<svg width="50" height="39" viewBox="0 0 50 39" fill="none" xmlns="http://www.w3.org/2000/svg">
<path d="M36.9273 38.8889C34.7078 38.8889 32.7225 38.2099 30.9713 36.8519C29.2405 35.4938 28.0798 33.7346 27.4893 31.5741C27.0821 30.072 26.8784 28.4877 26.8784 26.821C26.8784 24.2901 27.3671 21.7284 28.3445 19.1358C29.3219 16.5226 30.6659 14.0638 32.3763 11.7593C34.0867 9.45473 36.0619 7.30453 38.3018 5.30864C40.562 3.29218 42.9851 1.52263 45.5712 0L50 4.47531C45.3981 8.19959 42.2521 11.0802 40.562 13.1173C38.8923 15.1543 38.0269 17.1811 37.9658 19.1975C40.45 19.4856 42.527 20.5658 44.1967 22.4383C45.8664 24.3107 46.7013 26.5021 46.7013 29.0123C46.7013 31.749 45.7442 34.0844 43.8302 36.0185C41.9365 37.9321 39.6355 38.8889 36.9273 38.8889ZM10.0489 38.8889C7.82936 38.8889 5.84402 38.2099 4.09285 36.8519C2.36204 35.4938 1.20138 33.7346 0.610874 31.5741C0.203625 30.072 0 28.4877 0 26.821C0 24.2901 0.488699 21.7284 1.4661 19.1358C2.44349 16.5226 3.78742 14.0638 5.49786 11.7593C7.20831 9.45473 9.18347 7.30453 11.4233 5.30864C13.6836 3.29218 16.1067 1.52263 18.6927 0L23.1216 4.47531C18.5196 8.19959 15.3737 11.0802 13.6836 13.1173C12.0138 15.1543 11.1484 17.1811 11.0874 19.1975C13.5716 19.4856 15.6485 20.5658 17.3183 22.4383C18.988 24.3107 19.8228 26.5021 19.8228 29.0123C19.8228 31.749 18.8658 34.0844 16.9517 36.0185C15.058 37.9321 12.7571 38.8889 10.0489 38.8889Z" fill="#8A0204"/>
</svg>
