<?xml version="1.0" encoding="UTF-8" standalone="no"?>
<svg
   viewBox="1560.62 1019.96 1308.0402 853.4421"
   width="1308.04px"
   height="853.442px"
   preserveAspectRatio="none"
   version="1.1"
   id="svg137"
   sodipodi:docname="cartao-rosa-frente.svg"
   inkscape:version="1.4.3 (0d15f75, 2025-12-25)"
   inkscape:export-filename="cartao-rosa-frente.svg"
   inkscape:export-xdpi="96"
   inkscape:export-ydpi="96"
   xmlns:inkscape="http://www.inkscape.org/namespaces/inkscape"
   xmlns:sodipodi="http://sodipodi.sourceforge.net/DTD/sodipodi-0.dtd"
   xmlns="http://www.w3.org/2000/svg"
   xmlns:svg="http://www.w3.org/2000/svg">
  <sodipodi:namedview
     id="namedview137"
     pagecolor="#505050"
     bordercolor="#eeeeee"
     borderopacity="1"
     inkscape:showpageshadow="0"
     inkscape:pageopacity="0"
     inkscape:pagecheckerboard="0"
     inkscape:deskcolor="#505050"
     showgrid="false"
     inkscape:zoom="0.46405307"
     inkscape:cx="448.22459"
     inkscape:cy="522.56954"
     inkscape:window-width="1920"
     inkscape:window-height="1057"
     inkscape:window-x="-8"
     inkscape:window-y="-8"
     inkscape:window-maximized="1"
     inkscape:current-layer="svg137" />
  <defs
     id="defs7">
    <linearGradient
       id="Gold2"
       data-name="Gold"
       x1="2046.39"
       y1="1440.69"
       x2="2913.81"
       y2="2229.67"
       href="#Gold" />
    <linearGradient
       id="Gold"
       x1="674.24"
       y1="1862.73"
       x2="1541.66"
       y2="2651.71"
       gradientTransform="translate(-419.06 -117.61)"
       gradientUnits="userSpaceOnUse">
      <stop
         offset="0"
         stop-color="#e5be50"
         id="stop1" />
      <stop
         offset="0.25"
         stop-color="#faf7c8"
         id="stop2" />
      <stop
         offset="0.32"
         stop-color="#eee7b6"
         id="stop3" />
      <stop
         offset="0.44"
         stop-color="#d1bf8a"
         id="stop4" />
      <stop
         offset="0.6"
         stop-color="#a8874a"
         id="stop5" />
      <stop
         offset="0.87"
         stop-color="#ddca84"
         id="stop6" />
      <stop
         offset="1"
         stop-color="#faf7c8"
         id="stop7" />
    </linearGradient>
    <style
       id="style7">
      .st0 {
        fill: #efe32d;
      }

      .st1 {
        opacity: .11;
      }

      .st2 {
        opacity: .09;
      }

      .st3 {
        fill: #fff;
      }

      .st4 {
        fill: url(#Gold3);
      }

      .st5 {
        fill: none;
      }

      .st6 {
        fill: #ddd;
      }

      .st7 {
        fill: #8f521e;
      }

      .st8 {
        fill: #282828;
      }

      .st9 {
        fill: #e0cb26;
      }

      .st10 {
        fill: #a2631c;
      }

      .st11 {
        fill: #90371d;
      }

      .st12 {
        fill: url(#Gold);
      }

      .st13 {
        fill: #c2395b;
      }

      .st14 {
        fill: #eae43a;
      }

      .st15 {
        fill: #c79a1c;
      }

      .st16 {
        fill: #f3f2f2;
      }

      .st17 {
        fill: url(#Gold1);
      }

      .st18 {
        fill: url(#Gold2);
      }

      .st19 {
        fill: #22655b;
      }

      .st20 {
        fill: #d0b322;
      }
    </style>
    <clipPath
       clipPathUnits="userSpaceOnUse"
       id="clipPath138">
      <rect
         class="st13"
         x="1567.27"
         y="1019.96"
         width="1279.12"
         height="850.96002"
         rx="114.7"
         ry="114.7"
         id="rect139" />
    </clipPath>
  </defs>
  <g
     id="g139">
    <rect
       class="st13"
       x="1567.27"
       y="1019.96"
       width="1279.12"
       height="850.96002"
       rx="114.7"
       ry="114.7"
       id="rect13" />
    <g
       id="g22">
      <rect
         class="st18"
         x="1662.2"
         y="1362.87"
         width="139.48"
         height="110.71"
         rx="4.9699998"
         ry="4.9699998"
         id="rect14"
         style="fill:url(#Gold2)" />
      <rect
         class="st8"
         x="1647.5"
         y="1417.42"
         width="110.71"
         height="1.61"
         transform="rotate(90,1702.855,1418.225)"
         id="rect15" />
      <rect
         class="st8"
         x="1705.67"
         y="1417.42"
         width="110.71"
         height="1.61"
         transform="rotate(90,1761.03,1418.23)"
         id="rect16" />
      <rect
         class="st8"
         x="1662.2"
         y="1392.76"
         width="39.849998"
         height="1.61"
         id="rect17" />
      <rect
         class="st8"
         x="1662.2"
         y="1417.42"
         width="39.849998"
         height="1.61"
         id="rect18" />
      <rect
         class="st8"
         x="1662.2"
         y="1442.09"
         width="39.849998"
         height="1.61"
         id="rect19" />
      <rect
         class="st8"
         x="1761.83"
         y="1392.76"
         width="39.849998"
         height="1.61"
         id="rect20" />
      <rect
         class="st8"
         x="1761.83"
         y="1417.42"
         width="39.849998"
         height="1.61"
         id="rect21" />
      <rect
         class="st8"
         x="1761.83"
         y="1442.09"
         width="39.849998"
         height="1.61"
         id="rect22" />
    </g>
    <path
       class="st3"
       d="m 1986.28,1426.9 c -0.44,2.92 -0.85,5.58 -0.52,7.95 -0.09,-2.39 0.08,-5.03 0.52,-7.95 z m 50.37,-67.82 c -7.48,2.39 -12.6,6.98 -18.27,12.13 -25.58,-29.1 -71.87,-10.14 -67.93,29.29 1.67,16.69 16.84,27.15 27.36,38.42 0.19,-3.1 -0.44,-6.18 -0.27,-9.3 0.82,-14.57 10.62,-28.8 23.87,-34.77 30.33,-13.66 62.67,11.74 57.67,44.08 8.53,-8.99 20.25,-17.3 25,-29.09 12.32,-30.55 -16.11,-60.78 -47.42,-50.75 z m 30.53,53.16 c 0.83,-2.28 2.39,-4.27 3.22,-6.55 6.02,-16.5 -3.57,-30.8 -19.7,-34.92 -0.8,-0.2 -1.4,0.49 -1.16,-0.96 22.69,-1.79 35.67,27.94 17.65,42.43 z m 346.06,29.07 h -20.5 c 5.79,-7.62 4.31,-19.17 4.31,-28.38 0,-0.98 -0.38,-1.89 -0.49,-2.85 l 0.95,-17.87 -8.1,2.38 v -7.15 c 2.62,1.47 5.45,2.72 8.58,2.38 0.5,-5.61 2.88,-14.13 8.41,-16.62 5.58,-2.51 13.35,0.22 19.24,0.9 l -4.3,9.53 c -2.67,-2.79 -6.12,-8.07 -10.37,-8.51 -1.97,-0.2 -3.45,3.36 -3.45,4.93 v 9.77 c 4.27,0.31 7.81,0 11.44,-2.38 v 7.15 c -3.1,-2.29 -7.29,-2.78 -11,-2.66 -1.15,0.82 0.34,14.85 0.53,17.18 0.49,10.68 -2.09,23.12 4.75,32.2 z m 38.13,-53.86 v 7.15 c -3.1,-2.29 -7.3,-2.78 -11,-2.66 -1.15,0.82 0.34,14.85 0.53,17.18 0.49,10.68 -2.09,23.12 4.75,32.2 h -20.5 c 7.21,-10.15 3.49,-24.74 3.79,-36.48 l 0.97,-12.61 -8.1,2.38 v -7.15 c 2.62,1.47 5.45,2.72 8.58,2.38 0.54,-6.56 3.66,-16.54 11.25,-17.59 4.96,-0.69 11.41,1.28 16.4,1.87 l -4.3,9.53 c -2.67,-2.79 -6.11,-8.07 -10.37,-8.51 -1.97,-0.2 -3.45,3.36 -3.45,4.93 v 9.77 c 4.27,0.31 7.81,0 11.44,-2.38 z m -84.61,55.76 c 30.74,-2.06 27.4,-52.84 -4.64,-48.96 -28.44,3.46 -25.16,50.94 4.64,48.96 z m -3.09,-37.41 c 0,-0.83 2.86,-1.16 3.33,0 -0.6,5.2 0.82,12.19 0,17.16 -0.03,0.22 -0.52,1.15 -0.8,1.21 l -2.53,-0.74 z m -10.92,11.48 c 0.24,-1.73 2.4,-6.41 4.12,-6.88 1.23,-0.35 2.31,0.35 2.53,1.6 -3.3,4.01 -4.81,8.78 -1.45,13.34 6.08,8.2 19.94,1.15 15.82,-9.16 -0.55,-1.37 -4.38,-5.39 -1.27,-5.88 4.01,-0.63 5.83,8.08 5.42,11.19 -2.09,16.07 -27.66,13.56 -25.17,-4.21 z m -187.86,24.51 h -11.44 c 0.81,-2.03 0.2,-3.69 -0.24,-5.72 -3.06,-14.1 -11.06,-35.06 -16.57,-48.74 -0.81,-2.01 -2.05,-5.71 -3.1,-7.38 -0.31,-0.49 0.03,-0.83 -1.07,-0.61 -2.67,20.69 -2.02,42.52 2.38,62.92 h -16.21 l 0.98,-17.38 c -0.14,-17.26 0.43,-34.54 -0.98,-51.74 h 15.97 c 6.76,17.12 11.65,35.21 19.7,51.8 0.49,1.01 0.93,2.47 1.98,3.01 l 20.5,-54.82 H 2193 c -0.55,1.76 -1.28,3.4 -1.68,5.23 -0.93,4.16 -1.47,9.78 -1.67,14.06 -0.77,16.39 0.55,33.81 3.83,49.83 h -16.21 l 0.97,-15 c 0.23,-15.52 0.57,-30.97 -0.5,-46.5 -1.24,1.12 -1.79,3.42 -2.39,5 -5.53,14.52 -10.6,29.26 -15.6,43.98 -0.59,3.71 0.83,7.58 3.22,10.38 0.69,0.81 1.65,0.88 1.91,1.67 z m 132.04,-47.19 v -7.15 c 2.54,1.33 5.09,2.82 8.1,2.38 -0.79,-5.44 -0.11,-11.2 -3.22,-16.08 -0.59,-0.93 -1.38,-0.78 -1.54,-1.55 h 20.5 c -3.38,4.19 -4.44,9.74 -4.77,15.02 -0.06,0.94 -0.34,3.07 1.08,3 3.49,-0.17 6.24,-0.96 9.41,-2.29 v 6.67 c -1.12,-0.58 -2.22,-1.18 -3.44,-1.56 -1.24,-0.39 -6.57,-2.06 -7.01,-0.52 0.59,2.94 0.55,6.01 0.46,9.02 -0.22,7.5 -1.4,29.88 1.79,35.82 2.56,4.77 8.04,-3.25 10.35,-5.09 l 6.42,-8.58 0.99,13.51 c -10.2,3.98 -20.35,8.15 -26.19,-4.27 -5.49,-11.69 -4.56,-28.04 -4.82,-40.7 -0.68,-0.66 -7,1.74 -8.1,2.39 z m -12.38,0.7 c -32.9,-6.77 -43.9,35.1 -18.12,45.76 10.5,4.34 19.99,1.45 29.49,-3.61 l -3.28,-11.86 c -2.36,4.73 -11.09,16.48 -16.8,15.63 -7.07,-1.04 -10.48,-14.94 -10.84,-20.88 4.71,5.2 13.81,4.43 20,2.62 16.78,-4.89 16.92,-24.09 -0.46,-27.66 z m -3.33,18.62 c -3.68,3.94 -16.95,9.33 -16.17,0.03 0.42,-4.95 4.95,-15.29 10.31,-16.39 8.66,-1.78 11.58,10.18 5.86,16.36 z m -37.21,23.54 -3.08,-11.88 c -4.42,5.48 -13.29,21.61 -21.62,13.03 -3.47,-3.58 -6,-11.68 -6.29,-16.59 -0.03,-0.52 -0.31,-1.81 0.49,-1.67 0.69,2.64 5.37,3.6 7.86,3.82 9.66,0.85 24.12,-3.58 23.95,-15.38 -0.22,-14.83 -20.71,-16.53 -31.18,-11.9 -16.39,7.28 -18.98,30.31 -4.87,41.28 10.56,8.23 23.85,5.01 34.74,-0.71 z m -29.9,-28.69 c 1.1,-3.39 5.06,-10.36 8.8,-11.2 7.01,-1.6 10.45,6.11 8.75,12.07 -1.21,4.24 -7.48,8.67 -11.75,9.24 -8.66,1.15 -7.86,-3.68 -5.8,-10.1 z m -87.34,46.4 c -0.47,-0.44 -1.02,-0.79 -1.64,-1.03 -0.63,-0.24 -1.31,-0.37 -2.05,-0.37 h -3.35 v 9.82 h 3.35 c 0.74,0 1.42,-0.12 2.05,-0.36 0.63,-0.24 1.18,-0.58 1.64,-1.02 0.46,-0.44 0.82,-0.96 1.08,-1.56 0.26,-0.6 0.38,-1.25 0.38,-1.96 0,-0.71 -0.13,-1.35 -0.38,-1.95 -0.26,-0.6 -0.62,-1.12 -1.09,-1.56 z m -0.1,5.01 c -0.19,0.45 -0.46,0.85 -0.81,1.19 -0.35,0.34 -0.76,0.61 -1.22,0.8 -0.46,0.19 -0.97,0.29 -1.51,0.29 H 2121 v -7.55 h 2.13 c 0.54,0 1.05,0.1 1.51,0.29 0.46,0.19 0.87,0.46 1.22,0.8 0.35,0.34 0.62,0.74 0.81,1.2 0.19,0.46 0.29,0.95 0.29,1.49 0,0.54 -0.1,1.04 -0.29,1.49 z m 7.27,2.31 h 5.92 v 1.11 h -7.18 v -9.82 h 7.13 v 1.11 h -5.87 v 3.21 h 3.84 v 1.08 h -3.84 z m 16.63,-3.52 c 0.49,0.43 0.73,1.03 0.73,1.8 0,0.59 -0.16,1.11 -0.48,1.56 -0.32,0.45 -0.77,0.8 -1.35,1.05 -0.58,0.25 -1.24,0.37 -2,0.37 -0.76,0 -1.54,-0.15 -2.26,-0.46 -0.72,-0.31 -1.35,-0.75 -1.9,-1.33 l 0.8,-0.88 c 0.51,0.53 1.06,0.93 1.62,1.19 0.56,0.26 1.16,0.39 1.79,0.39 0.5,0 0.93,-0.07 1.31,-0.22 0.38,-0.15 0.67,-0.36 0.89,-0.64 0.22,-0.28 0.32,-0.59 0.32,-0.93 0,-0.48 -0.17,-0.84 -0.5,-1.09 -0.33,-0.25 -0.88,-0.44 -1.65,-0.56 l -1.51,-0.25 c -0.93,-0.16 -1.61,-0.44 -2.06,-0.86 -0.44,-0.41 -0.67,-0.96 -0.67,-1.66 0,-0.55 0.15,-1.04 0.44,-1.46 0.29,-0.42 0.71,-0.75 1.23,-0.98 0.53,-0.23 1.14,-0.34 1.85,-0.34 0.71,0 1.39,0.11 2.07,0.34 0.68,0.23 1.29,0.55 1.84,0.98 l -0.72,0.97 c -1.07,-0.81 -2.15,-1.22 -3.26,-1.22 -0.45,0 -0.84,0.07 -1.18,0.2 -0.34,0.14 -0.6,0.32 -0.79,0.56 -0.19,0.24 -0.28,0.52 -0.28,0.85 0,0.43 0.14,0.76 0.43,0.99 0.29,0.23 0.77,0.4 1.45,0.5 l 1.49,0.24 c 1.06,0.18 1.83,0.48 2.32,0.91 z m 6.22,3.5 h 5.77 v 1.12 h -7.03 v -9.82 h 1.26 z m 10.07,-8.7 h 1.26 v 9.82 h -1.26 z m 10.92,4.62 h 4.7 v 0.46 c 0,0.69 -0.12,1.34 -0.37,1.93 -0.24,0.59 -0.58,1.11 -1.01,1.56 -0.43,0.44 -0.94,0.79 -1.52,1.04 -0.58,0.25 -1.22,0.37 -1.9,0.37 -0.68,0 -1.38,-0.13 -1.99,-0.39 -0.62,-0.26 -1.16,-0.62 -1.62,-1.09 -0.46,-0.46 -0.83,-1 -1.09,-1.61 -0.26,-0.61 -0.39,-1.27 -0.39,-1.97 0,-0.7 0.13,-1.36 0.39,-1.97 0.26,-0.61 0.62,-1.15 1.08,-1.61 0.46,-0.46 1,-0.83 1.62,-1.09 0.62,-0.26 1.28,-0.39 1.99,-0.39 0.77,0 1.49,0.15 2.17,0.44 0.68,0.29 1.26,0.7 1.74,1.22 l -0.87,0.86 c -0.36,-0.43 -0.82,-0.76 -1.35,-1 -0.54,-0.23 -1.1,-0.35 -1.69,-0.35 -0.54,0 -1.04,0.1 -1.5,0.3 -0.46,0.2 -0.86,0.47 -1.21,0.83 -0.35,0.36 -0.62,0.77 -0.81,1.24 -0.19,0.47 -0.29,0.98 -0.29,1.54 0,0.56 0.1,1.06 0.29,1.54 0.19,0.47 0.46,0.89 0.81,1.24 0.35,0.36 0.75,0.63 1.21,0.83 0.46,0.2 0.96,0.3 1.51,0.3 0.63,0 1.19,-0.13 1.7,-0.4 0.5,-0.27 0.92,-0.63 1.23,-1.1 0.32,-0.47 0.51,-1 0.58,-1.59 h -3.41 v -1.11 z m 15.9,-4.62 h 1.26 v 5.66 c 0,0.88 -0.17,1.64 -0.51,2.29 -0.34,0.65 -0.81,1.15 -1.42,1.5 -0.61,0.36 -1.34,0.53 -2.18,0.53 -0.84,0 -1.57,-0.18 -2.19,-0.53 -0.62,-0.35 -1.09,-0.85 -1.42,-1.5 -0.33,-0.65 -0.5,-1.42 -0.5,-2.29 v -5.66 h 1.26 v 5.66 c 0,0.64 0.12,1.19 0.35,1.67 0.23,0.48 0.57,0.84 1,1.1 0.43,0.26 0.93,0.39 1.5,0.39 0.57,0 1.08,-0.13 1.51,-0.39 0.43,-0.26 0.76,-0.63 0.99,-1.1 0.23,-0.48 0.35,-1.03 0.35,-1.67 z m 7.23,8.72 h 5.92 v 1.11 h -7.18 v -9.82 h 7.13 v 1.11 h -5.87 v 3.21 h 3.84 v 1.08 h -3.84 z m 24.3,-7.4 c -0.47,-0.46 -1.01,-0.82 -1.62,-1.08 -0.61,-0.26 -1.28,-0.39 -1.99,-0.39 -0.71,0 -1.38,0.13 -1.99,0.39 -0.62,0.26 -1.16,0.62 -1.62,1.08 -0.46,0.46 -0.82,1 -1.08,1.61 -0.26,0.61 -0.39,1.27 -0.39,1.99 0,0.72 0.13,1.37 0.39,1.99 0.26,0.61 0.62,1.15 1.08,1.61 0.46,0.46 1,0.82 1.62,1.08 0.62,0.26 1.28,0.39 1.99,0.39 0.71,0 1.37,-0.13 1.99,-0.39 0.61,-0.26 1.15,-0.62 1.62,-1.08 0.47,-0.46 0.83,-1 1.09,-1.61 0.26,-0.61 0.39,-1.27 0.39,-1.99 0,-0.72 -0.13,-1.37 -0.39,-1.99 -0.26,-0.61 -0.62,-1.15 -1.09,-1.61 z m -0.1,5.13 c -0.2,0.47 -0.47,0.89 -0.81,1.24 -0.34,0.36 -0.74,0.63 -1.2,0.83 -0.46,0.2 -0.96,0.3 -1.5,0.3 -0.54,0 -1.03,-0.1 -1.49,-0.3 -0.46,-0.2 -0.87,-0.47 -1.21,-0.83 -0.35,-0.36 -0.62,-0.77 -0.81,-1.24 -0.19,-0.47 -0.29,-0.98 -0.29,-1.54 0,-0.56 0.1,-1.08 0.29,-1.54 0.19,-0.47 0.46,-0.88 0.81,-1.24 0.35,-0.36 0.75,-0.63 1.21,-0.83 0.46,-0.2 0.96,-0.3 1.49,-0.3 0.53,0 1.04,0.1 1.5,0.3 0.46,0.2 0.86,0.47 1.2,0.83 0.34,0.36 0.61,0.77 0.81,1.24 0.2,0.47 0.29,0.98 0.29,1.54 0,0.56 -0.1,1.06 -0.29,1.54 z m 14.86,-6.45 -4.06,9.82 h 1.31 l 1.21,-2.99 h 4.52 l 1.19,2.99 h 1.37 l -4.04,-9.82 z m -1.12,5.77 1.84,-4.59 1.84,4.59 z m 16.62,-5.41 c -0.48,-0.24 -1.04,-0.36 -1.68,-0.36 h -4.39 v 9.82 h 1.26 v -4.06 h 3.13 c 0.64,0 1.2,-0.12 1.68,-0.36 0.48,-0.24 0.86,-0.58 1.12,-1.01 0.27,-0.43 0.4,-0.94 0.4,-1.52 0,-0.58 -0.13,-1.07 -0.4,-1.51 -0.27,-0.44 -0.64,-0.77 -1.12,-1.01 z m -0.3,3.85 c -0.37,0.32 -0.87,0.48 -1.49,0.48 h -3.02 v -3.56 h 3.02 c 0.63,0 1.12,0.16 1.49,0.48 0.37,0.32 0.55,0.75 0.55,1.29 0,0.54 -0.19,0.99 -0.55,1.31 z m 12.28,-3.85 c -0.48,-0.24 -1.04,-0.36 -1.68,-0.36 h -4.39 v 9.82 h 1.26 v -4.06 h 3.13 c 0.64,0 1.2,-0.12 1.68,-0.36 0.48,-0.24 0.86,-0.58 1.12,-1.01 0.27,-0.43 0.4,-0.94 0.4,-1.52 0,-0.58 -0.13,-1.07 -0.4,-1.51 -0.27,-0.44 -0.64,-0.77 -1.11,-1.01 z m -0.3,3.85 c -0.37,0.32 -0.87,0.48 -1.49,0.48 h -3.02 v -3.56 h 3.02 c 0.63,0 1.12,0.16 1.49,0.48 0.37,0.32 0.55,0.75 0.55,1.29 0,0.54 -0.19,0.99 -0.55,1.31 z m 4.3,4.48 h 1.29 l -1.19,3.1 h -0.94 z m 19.1,-8.69 h 1.29 l -4.08,9.82 h -1.5 l -4.01,-9.82 h 1.36 l 3.44,8.6 3.51,-8.6 z m 5.16,0 h 1.26 v 9.82 h -1.26 z m 13.47,0 h 1.29 l -4.08,9.82 h -1.5 l -4.01,-9.82 h 1.36 l 3.44,8.6 3.51,-8.6 z m 6.6,0 -4.06,9.82 h 1.31 l 1.21,-2.99 h 4.52 l 1.19,2.99 h 1.38 l -4.04,-9.82 h -1.5 z m -1.12,5.77 1.84,-4.59 1.84,4.59 z m 24.57,-4.45 c -0.47,-0.46 -1.01,-0.82 -1.62,-1.08 -0.61,-0.26 -1.28,-0.39 -1.99,-0.39 -0.71,0 -1.38,0.13 -1.99,0.39 -0.62,0.26 -1.16,0.62 -1.62,1.08 -0.46,0.46 -0.82,1 -1.08,1.61 -0.26,0.61 -0.38,1.27 -0.38,1.99 0,0.72 0.13,1.37 0.38,1.99 0.26,0.61 0.62,1.15 1.08,1.61 0.46,0.46 1,0.82 1.62,1.08 0.62,0.26 1.28,0.39 1.99,0.39 0.71,0 1.37,-0.13 1.99,-0.39 0.61,-0.26 1.15,-0.62 1.62,-1.08 0.47,-0.46 0.83,-1 1.09,-1.61 0.26,-0.61 0.39,-1.27 0.39,-1.99 0,-0.72 -0.13,-1.37 -0.39,-1.99 -0.26,-0.61 -0.62,-1.15 -1.09,-1.61 z m -0.1,5.13 c -0.2,0.47 -0.47,0.89 -0.81,1.24 -0.34,0.36 -0.74,0.63 -1.2,0.83 -0.46,0.2 -0.96,0.3 -1.5,0.3 -0.54,0 -1.03,-0.1 -1.49,-0.3 -0.46,-0.2 -0.87,-0.47 -1.21,-0.83 -0.35,-0.36 -0.62,-0.77 -0.81,-1.24 -0.19,-0.47 -0.29,-0.98 -0.29,-1.54 0,-0.56 0.1,-1.08 0.29,-1.54 0.19,-0.46 0.46,-0.88 0.81,-1.24 0.35,-0.36 0.75,-0.63 1.21,-0.83 0.46,-0.2 0.96,-0.3 1.49,-0.3 0.53,0 1.04,0.1 1.5,0.3 0.46,0.2 0.86,0.47 1.2,0.83 0.34,0.36 0.61,0.77 0.81,1.24 0.2,0.47 0.29,0.98 0.29,1.54 0,0.56 -0.1,1.06 -0.29,1.54 z m 13.07,2.27 h 5.92 v 1.11 h -7.18 v -9.82 h 7.13 v 1.11 h -5.87 v 3.21 h 3.84 v 1.08 h -3.84 z m 17.23,-8.72 h 1.19 v 9.82 h -1.11 l -5.84,-7.87 v 7.87 h -1.21 v -9.82 h 1.25 l 5.71,7.66 v -7.66 z m 7.2,3.37 c -0.19,0.47 -0.29,0.98 -0.29,1.54 0,0.56 0.1,1.06 0.29,1.54 0.19,0.47 0.46,0.89 0.81,1.24 0.35,0.36 0.76,0.63 1.24,0.83 0.47,0.2 0.98,0.3 1.54,0.3 0.59,0 1.15,-0.12 1.68,-0.35 0.53,-0.23 0.98,-0.56 1.35,-0.98 l 0.83,0.84 c -0.33,0.35 -0.7,0.64 -1.11,0.89 -0.41,0.25 -0.85,0.44 -1.33,0.57 -0.47,0.13 -0.96,0.2 -1.47,0.2 -0.71,0 -1.38,-0.13 -2,-0.39 -0.62,-0.26 -1.17,-0.62 -1.64,-1.08 -0.47,-0.46 -0.83,-1 -1.09,-1.61 -0.26,-0.61 -0.39,-1.27 -0.39,-1.99 0,-0.72 0.13,-1.37 0.39,-1.99 0.26,-0.61 0.62,-1.15 1.09,-1.61 0.47,-0.46 1.01,-0.82 1.64,-1.08 0.62,-0.26 1.29,-0.39 2,-0.39 0.52,0 1.02,0.07 1.5,0.2 0.48,0.13 0.92,0.32 1.33,0.56 0.41,0.24 0.78,0.54 1.09,0.9 l -0.84,0.87 c -0.37,-0.44 -0.83,-0.78 -1.37,-1.01 -0.54,-0.23 -1.11,-0.35 -1.71,-0.35 -0.54,0 -1.05,0.1 -1.52,0.3 -0.47,0.2 -0.87,0.47 -1.22,0.83 -0.35,0.36 -0.62,0.77 -0.81,1.24 z m 19.84,-2.05 c -0.47,-0.46 -1.01,-0.82 -1.62,-1.08 -0.61,-0.26 -1.28,-0.39 -1.99,-0.39 -0.71,0 -1.38,0.13 -1.99,0.39 -0.62,0.26 -1.16,0.62 -1.62,1.08 -0.46,0.46 -0.82,1 -1.08,1.61 -0.26,0.61 -0.39,1.27 -0.39,1.99 0,0.72 0.13,1.37 0.39,1.99 0.26,0.61 0.62,1.15 1.08,1.61 0.46,0.46 1,0.82 1.62,1.08 0.62,0.26 1.28,0.39 1.99,0.39 0.71,0 1.37,-0.13 1.99,-0.39 0.61,-0.26 1.15,-0.62 1.62,-1.08 0.47,-0.46 0.83,-1 1.09,-1.61 0.26,-0.61 0.39,-1.27 0.39,-1.99 0,-0.72 -0.13,-1.37 -0.39,-1.99 -0.26,-0.61 -0.62,-1.15 -1.09,-1.61 z m -0.1,5.13 c -0.2,0.47 -0.47,0.89 -0.81,1.24 -0.34,0.36 -0.74,0.63 -1.2,0.83 -0.46,0.2 -0.96,0.3 -1.5,0.3 -0.54,0 -1.03,-0.1 -1.49,-0.3 -0.46,-0.2 -0.87,-0.47 -1.21,-0.83 -0.35,-0.36 -0.62,-0.77 -0.81,-1.24 -0.19,-0.47 -0.29,-0.98 -0.29,-1.54 0,-0.56 0.1,-1.08 0.29,-1.54 0.19,-0.46 0.46,-0.88 0.81,-1.24 0.35,-0.36 0.75,-0.63 1.21,-0.83 0.46,-0.2 0.96,-0.3 1.49,-0.3 0.53,0 1.04,0.1 1.5,0.3 0.46,0.2 0.86,0.47 1.2,0.83 0.34,0.36 0.61,0.77 0.81,1.24 0.2,0.47 0.29,0.98 0.29,1.54 0,0.56 -0.1,1.06 -0.29,1.54 z m 12.98,-6.45 h 1.19 v 9.82 h -1.11 l -5.84,-7.87 v 7.87 h -1.21 v -9.82 h 1.25 l 5.71,7.66 v -7.66 z m 5.28,0 h 8.28 v 1.12 h -3.51 v 8.7 h -1.26 v -8.7 h -3.51 z m 19.37,4.53 c 0.37,-0.46 0.56,-1.02 0.56,-1.66 0,-0.58 -0.14,-1.08 -0.41,-1.51 -0.27,-0.43 -0.65,-0.76 -1.13,-1 -0.48,-0.24 -1.05,-0.36 -1.71,-0.36 h -4.32 v 9.82 h 1.26 v -4.14 h 2.97 l 2.06,4.14 h 1.4 l -2.2,-4.31 c 0.63,-0.2 1.13,-0.53 1.5,-0.99 z m -5.74,0.11 v -3.51 h 2.97 c 0.63,0 1.13,0.16 1.5,0.48 0.37,0.32 0.56,0.74 0.56,1.26 0,0.52 -0.19,0.97 -0.56,1.29 -0.37,0.32 -0.87,0.48 -1.5,0.48 z m 18.94,-3.32 c -0.47,-0.46 -1.01,-0.82 -1.62,-1.08 -0.61,-0.26 -1.28,-0.39 -1.99,-0.39 -0.71,0 -1.38,0.13 -1.99,0.39 -0.62,0.26 -1.16,0.62 -1.62,1.08 -0.46,0.46 -0.82,1 -1.08,1.61 -0.26,0.61 -0.39,1.27 -0.39,1.99 0,0.72 0.13,1.37 0.39,1.99 0.26,0.61 0.62,1.15 1.08,1.61 0.46,0.46 1,0.82 1.62,1.08 0.62,0.26 1.28,0.39 1.99,0.39 0.71,0 1.37,-0.13 1.99,-0.39 0.61,-0.26 1.15,-0.62 1.62,-1.08 0.47,-0.46 0.83,-1 1.09,-1.61 0.26,-0.61 0.39,-1.27 0.39,-1.99 0,-0.72 -0.13,-1.37 -0.39,-1.99 -0.26,-0.61 -0.62,-1.15 -1.09,-1.61 z m -0.1,5.13 c -0.2,0.47 -0.47,0.89 -0.81,1.24 -0.34,0.36 -0.74,0.63 -1.2,0.83 -0.46,0.2 -0.96,0.3 -1.5,0.3 -0.54,0 -1.03,-0.1 -1.49,-0.3 -0.46,-0.2 -0.87,-0.47 -1.21,-0.83 -0.35,-0.36 -0.62,-0.77 -0.81,-1.24 -0.19,-0.47 -0.29,-0.98 -0.29,-1.54 0,-0.56 0.1,-1.08 0.29,-1.54 0.19,-0.47 0.46,-0.88 0.81,-1.24 0.35,-0.36 0.75,-0.63 1.21,-0.83 0.46,-0.2 0.96,-0.3 1.49,-0.3 0.53,0 1.04,0.1 1.5,0.3 0.46,0.2 0.86,0.47 1.2,0.83 0.34,0.36 0.61,0.77 0.81,1.24 0.2,0.47 0.29,0.98 0.29,1.54 0,0.56 -0.1,1.06 -0.29,1.54 z m 6.68,2.11 c 0.16,0.16 0.24,0.35 0.24,0.56 0,0.21 -0.08,0.4 -0.24,0.56 -0.16,0.16 -0.34,0.24 -0.56,0.24 -0.22,0 -0.4,-0.08 -0.56,-0.24 -0.16,-0.16 -0.24,-0.35 -0.24,-0.56 0,-0.21 0.08,-0.4 0.24,-0.56 0.16,-0.16 0.35,-0.24 0.56,-0.24 0.21,0 0.4,0.08 0.56,0.24 z M 2015.6,1399.1 c -14.74,1.27 -27.11,12.78 -29.32,27.39 -0.44,2.92 -0.61,5.56 -0.52,7.95 0.06,0.5 0.14,1.01 0.24,1.51 1.41,8.66 4.01,13.15 8.83,18.07 l 23.9,23.55 c 10.56,-12.4 29.26,-23.35 32.12,-40.37 0.05,-0.28 0.09,-0.58 0.13,-0.86 2.99,-20.8 -14.28,-39.06 -35.37,-37.24 z m 2.97,38.78 c -5.25,0 -9.51,-4.24 -9.51,-9.49 0,-5.25 4.26,-9.49 9.51,-9.49 5.25,0 9.49,4.24 9.49,9.49 0,5.25 -4.26,9.49 -9.49,9.49 z"
       id="path22" />
    <g
       id="g122">
      <line
         class="st5"
         x1="2663.03"
         y1="1152.6801"
         x2="2662.99"
         y2="1152.37"
         id="line22" />
      <line
         class="st5"
         x1="2686.0901"
         y1="1152.47"
         x2="2685.9199"
         y2="1152.47"
         id="line23" />
      <path
         class="st16"
         d="m 2631.38,1176.47 c 0.03,-0.81 0.45,-2.3 0.7,-3.08 1.11,-3.37 2.75,-6.07 5.35,-8.49 3.99,-3.77 9.34,-5.76 14.82,-5.52 5.48,0.21 10.71,2.57 14.58,6.6 2.49,2.59 4.88,7.12 5.16,10.88 0,0.01 0,0.03 0,0.04 0.13,0.7 0.17,2.18 0.06,2.89 -0.07,-0.52 -0.13,-1.02 -0.22,-1.54 -0.32,-1.41 -0.51,-2.04 -1.01,-3.4 -0.22,-0.46 -0.39,-0.85 -0.58,-1.32 l -0.02,-0.04 c -0.67,-1.07 -1.09,-2.11 -1.88,-3.18 -9.34,-12.6 -28.52,-11.12 -35.31,3.2 -0.6,1.27 -1,2.46 -1.4,3.8 l -0.18,-0.11 c -0.11,-0.16 -0.07,-0.5 -0.07,-0.73 z"
         id="path23" />
      <path
         class="st16"
         d="m 2701.39,1167.81 v -11.29 c 0,-1.43 -0.45,-2.51 -1.46,-3.52 -0.52,-0.52 -1.64,-1.11 -2.37,-1.22 -1.25,-0.1 -2.72,-0.07 -4.01,-0.07 h -20.49 c -2.13,0 -4.29,-0.03 -6.41,0.03 -0.63,-1.01 -3.76,-6.06 -4.49,-6.58 -0.31,-0.21 -0.98,-0.21 -1.32,-0.24 -1.46,-0.03 -2.96,0 -4.39,0 h -13.41 c -1.08,0 -2.37,-0.07 -3.41,0.14 -0.59,0.1 -1.46,1.78 -1.81,2.3 -0.94,1.43 -1.92,2.86 -2.82,4.32 -1.36,0.1 -3.14,0.03 -4.49,0.03 h -8.22 c -1.85,0 -2.86,0.07 -4.32,1.43 -0.63,0.59 -1.29,1.78 -1.39,2.65 -0.14,1.39 -0.1,3.07 -0.1,4.49 l 0.03,8.26 -0.03,29.02 c 0,2.44 1.57,4.81 3.97,5.26 1.46,0.24 4.04,0.07 5.61,0.07 3.97,0 7.98,0 11.95,-0.03 -0.91,-0.8 -1.88,-1.53 -2.79,-2.37 -8.68,-8.15 -10.28,-20.9 -4.63,-31.29 3.07,-5.68 8.26,-9.93 14.46,-11.78 6.34,-1.88 12.89,-0.84 18.57,2.51 0.63,0.35 1.25,0.87 1.88,1.22 l 0.07,0.03 c 3.41,2.65 5.44,4.88 7.6,8.68 2.44,4.91 3.52,9.51 2.86,15.02 -0.66,5.71 -3.21,11.04 -7.25,15.12 -1.01,1.05 -2.23,1.99 -3.38,2.89 10.28,-0.14 20.66,0.07 30.9,0 1.5,0 2.65,-0.38 3.73,-1.5 0.7,-0.73 1.18,-1.67 1.32,-2.68 0.1,-0.98 0.03,-3.45 0.03,-4.53 v -8.33 l 0.03,-18.05 z m -79.09,30.83 c -0.14,-0.1 -0.28,-0.21 -0.38,-0.35 -0.98,-0.98 -1.5,-2.16 -1.5,-3.52 -0.07,-0.42 -0.07,-2.13 -0.07,-2.61 -0.03,-2.06 -0.07,-4.11 -0.07,-6.17 -0.03,-7.63 0.03,-15.23 0.21,-22.86 0.1,-0.35 0.07,-1.25 0.17,-1.46 0,0.49 0.03,0.87 0.1,1.32 0.1,3.52 0.17,7.04 0.21,10.56 v 2.86 c 0,0.31 0,1.18 0.03,1.46 -0.1,2.02 0.03,4.25 -0.03,6.27 -0.03,0.63 0.03,1.64 -0.03,2.19 0,1.6 0,3.17 -0.03,4.77 -0.03,1.11 -0.03,2.26 -0.07,3.38 -0.03,1.64 0.42,2.93 1.67,4.04 l -0.21,0.1 z m 39.89,-46.61 -0.24,-0.35 c -0.42,-0.59 -1.95,-2.89 -2.68,-2.96 -0.94,-0.14 -2.4,-0.07 -3.38,-0.03 -1.78,0.03 -3.55,0.03 -5.33,0.03 -1.78,0 -3.66,0 -5.47,-0.03 -0.87,-0.03 -1.81,-0.03 -2.65,0 -0.28,0 -0.66,0.31 -0.91,0.49 -0.77,1.01 -1.46,2.06 -2.23,3.07 l -0.03,-0.31 c 0.42,-0.52 1.08,-1.85 1.53,-2.54 0.17,-0.28 0.24,-0.35 0.45,-0.59 l 0.21,-0.24 c 0.35,-0.21 0.77,-0.42 1.15,-0.45 1.85,-0.07 3.76,-0.07 5.61,-0.07 2.54,-0.03 5.12,-0.03 7.66,0 4.74,0.1 4.04,-0.1 6.48,4.01 h -0.17 z m 34.92,13.51 c -0.59,1.43 -1.08,1.25 -2.23,2.19 -0.35,0.24 -0.52,0.73 -1.08,1.15 0.7,0.84 0.7,1.29 0.63,2.37 -0.03,0.73 -0.03,1.46 -0.17,2.19 -0.31,0.24 -0.52,0.38 -0.84,0.66 0.14,0.17 0.63,0.77 0.59,1.01 -0.07,0.56 -0.66,2.13 -1.01,2.58 -0.14,0.17 -1.43,0.07 -1.74,0.07 0.77,1.11 0.73,1.64 1.32,2.61 0.35,0.07 0.7,0.1 0.87,0.42 0.45,0.91 -0.84,1.92 -1.15,2.61 -0.14,0.28 -0.31,1.01 -0.38,1.32 0.28,0.49 0.56,0.91 0.91,1.32 l 0.52,0.07 c 0.56,0.42 0.1,1.05 -0.14,1.57 -0.24,0.1 -0.7,0.21 -0.98,0.28 -0.38,1.05 -0.94,1.43 -1.25,2.26 l 0.35,0.98 c 0.1,0.45 0.31,0.98 0.21,1.43 -0.07,0.03 -2.33,1.43 -2.54,1.53 -0.49,-0.07 -1.01,-0.49 -1.39,-0.77 -0.91,0.03 -1.57,-0.21 -2.44,0 -0.63,0.14 -1.25,0.84 -1.78,0.49 -0.28,-0.45 0.14,-1.18 0.38,-1.64 0.56,-0.98 0.49,-2.4 0.42,-3.48 0,-0.24 -0.24,-0.59 -0.24,-0.87 0,-0.49 0.45,-0.94 0.52,-1.43 0.07,-0.35 -0.03,-0.98 -0.24,-1.25 -0.52,-0.31 -0.8,0.31 -1.46,0.28 -0.45,-0.21 -0.21,-1.11 -0.45,-1.5 -0.31,-0.52 -1.53,-0.24 -1.29,-1.15 0.38,-1.32 0.7,-2.61 0.8,-3.97 0.03,-0.31 0.59,-0.52 0.84,-0.7 0.52,-1.11 0.8,-2.65 1.36,-3.9 -0.45,-1.78 0.87,-3.62 0.98,-5.44 0.1,-2.06 -0.98,-4.11 -0.91,-6.06 0.84,-1.08 2.19,-1.53 3.45,-2.02 0.21,0.03 0.59,0.28 0.7,0.45 0.31,0.49 -0.07,1.01 -0.17,1.5 l 0.07,0.07 c 0.63,-0.03 1.43,-0.45 1.99,-0.35 1.39,0.24 1.43,1.22 2.44,-0.49 h 0.17 c 0.84,0 2.47,-0.14 3.14,0.35 0.35,0.21 -0.14,0.98 -0.07,1.18 0.31,1.32 2.19,-0.07 1.32,2.06 z"
         id="path24" />
      <path
         class="st16"
         d="m 2684.58,1147.24 c 1.04,-0.09 8.08,-0.12 8.67,0.05 0.37,0.11 0.71,0.4 0.87,0.75 0.16,0.34 0.19,0.78 0.05,1.14 -0.19,0.5 -0.68,0.72 -1.14,0.91 -0.9,0.11 -8.03,0.16 -8.54,-0.05 -0.42,-0.16 -0.79,-0.45 -0.95,-0.88 -0.13,-0.35 -0.09,-0.71 0.05,-1.05 0.21,-0.47 0.52,-0.69 0.99,-0.87 z"
         id="path25" />
      <path
         class="st16"
         d="m 2706.34,1200.18 -0.03,-7.14 c -0.07,-8.71 -0.17,-17.39 -0.35,-26.1 0.07,-1.11 -0.03,-3.76 -0.07,-4.98 0,-0.14 0.03,-0.28 -0.03,-0.38 -0.1,0.45 -0.1,0.56 -0.07,1.01 0,0.49 -0.07,1.5 -0.03,1.99 -0.28,9.09 -0.45,18.19 -0.59,27.28 l -0.1,7.42 c 0,1.25 0.03,2.79 -0.1,4.01 -0.21,1.71 -2.23,3.48 -3.9,3.62 -0.77,0.03 -1.57,0.03 -2.33,0.03 h -3.38 l -13.59,0.07 c -11.15,0 -22.3,0.07 -33.45,0.24 -4.08,0.1 -8.4,0.1 -12.44,0.28 l -4.32,0.07 c -0.63,0.03 -1.6,0.07 -2.23,0.03 -0.49,-0.03 -2.37,0.03 -2.79,0.14 0.7,0.03 1.92,0.14 2.58,0.07 2.37,0 4.7,0.03 7.07,0.1 21.36,0.35 42.75,0.49 64.14,0.42 1.88,0 3.03,-0.56 4.39,-1.88 1.95,-1.88 1.64,-3.83 1.64,-6.31 z"
         id="path26" />
      <path
         class="st16"
         d="m 2664,1183.1 v -12.79 c -1.67,-0.03 -3.38,-0.03 -5.05,0 -6.62,0.07 -13.31,-0.1 -19.93,0 v 17.7 c 0,1.32 -0.07,2.4 0.28,3.69 0.66,2.72 1.92,4.91 3.9,6.9 2.13,2.13 5.33,3.48 8.33,3.62 0.45,0 1.32,-0.14 1.78,-0.24 2.58,-0.56 4.95,-1.81 6.83,-3.62 2.47,-2.44 3.9,-5.33 3.9,-8.85 0,-2.13 0,-4.29 -0.03,-6.41 z m -5.09,2.43 c -0.03,1.46 0.1,3.24 -0.21,4.67 -0.52,2.54 -2.06,4.53 -4.36,5.75 -4.46,2.3 -9.16,-1.57 -9.96,-5.96 -0.28,-1.57 -0.17,-3.59 -0.17,-5.19 v -8.74 c 1.88,0 3.8,0.03 5.64,0 h 3.83 c 1.64,0.03 3.59,0 5.23,0 0.03,3.17 0.03,6.31 0,9.48 z"
         id="path27" />
      <path
         class="st16"
         d="m 2653.44,1178.02 h -3.6 c 0,0.74 -0.05,3.03 0.11,3.6 0.09,0.32 0.25,0.61 0.49,0.84 0.77,0.77 1.71,0.63 2.47,-0.06 0.58,-0.69 0.54,-1.22 0.54,-2.09 0,-0.76 0,-1.53 0,-2.29 z m -1,0.83 c 0.14,-0.1 0.33,-0.09 0.44,0.04 0.12,0.12 0.12,0.31 0.02,0.44 -0.07,0.09 -0.18,0.13 -0.29,0.12 -0.11,0 -0.21,-0.07 -0.26,-0.17 -0.08,-0.15 -0.05,-0.33 0.09,-0.44 z m -1.59,2.66 c -0.17,0.07 -0.37,0 -0.44,-0.18 -0.08,-0.17 0,-0.37 0.16,-0.45 0.11,-0.05 0.24,-0.04 0.35,0.03 0.1,0.07 0.16,0.19 0.14,0.32 -0.01,0.12 -0.09,0.23 -0.21,0.28 z m 0.05,-2.04 c -0.16,0.08 -0.36,0.01 -0.44,-0.15 -0.08,-0.16 -0.03,-0.36 0.13,-0.45 0.11,-0.06 0.24,-0.06 0.35,0 0.11,0.06 0.17,0.18 0.16,0.31 0,0.13 -0.08,0.24 -0.19,0.29 z m 0.98,0.95 c -0.1,0.07 -0.23,0.07 -0.34,0.02 -0.11,-0.05 -0.18,-0.17 -0.18,-0.29 0,-0.12 0.06,-0.23 0.17,-0.29 0.15,-0.09 0.35,-0.04 0.45,0.11 0.09,0.15 0.05,0.35 -0.1,0.45 z m 0.92,1.06 c -0.11,0.06 -0.24,0.04 -0.34,-0.03 -0.1,-0.07 -0.15,-0.2 -0.13,-0.32 0.03,-0.15 0.16,-0.27 0.31,-0.28 0.16,0 0.3,0.1 0.33,0.25 0.04,0.15 -0.03,0.31 -0.17,0.38 z"
         id="path28" />
      <path
         class="st16"
         d="m 2653.44,1183.81 h -3.6 c 0,0.74 -0.05,3.03 0.11,3.6 0.09,0.32 0.25,0.61 0.49,0.84 0.77,0.77 1.71,0.63 2.47,-0.06 0.58,-0.69 0.54,-1.22 0.54,-2.09 0,-0.76 0,-1.53 0,-2.29 z m -1,0.83 c 0.14,-0.1 0.33,-0.09 0.44,0.04 0.12,0.12 0.12,0.31 0.02,0.44 -0.07,0.09 -0.18,0.13 -0.29,0.12 -0.11,0 -0.21,-0.07 -0.26,-0.17 -0.08,-0.15 -0.05,-0.33 0.09,-0.44 z m -1.59,2.66 c -0.17,0.07 -0.37,0 -0.44,-0.18 -0.08,-0.17 0,-0.37 0.16,-0.45 0.11,-0.05 0.24,-0.04 0.35,0.03 0.1,0.07 0.16,0.19 0.14,0.32 -0.01,0.12 -0.09,0.23 -0.21,0.28 z m 0.05,-2.05 c -0.16,0.08 -0.36,0.01 -0.44,-0.15 -0.08,-0.16 -0.03,-0.36 0.13,-0.45 0.11,-0.06 0.24,-0.06 0.35,0 0.11,0.06 0.17,0.18 0.16,0.31 0,0.13 -0.08,0.24 -0.19,0.29 z m 0.98,0.95 c -0.1,0.07 -0.23,0.07 -0.34,0.02 -0.11,-0.05 -0.18,-0.17 -0.18,-0.29 0,-0.12 0.06,-0.23 0.17,-0.29 0.15,-0.09 0.35,-0.04 0.45,0.11 0.09,0.15 0.05,0.35 -0.1,0.45 z m 0.92,1.06 c -0.11,0.06 -0.24,0.04 -0.34,-0.03 -0.1,-0.07 -0.15,-0.2 -0.13,-0.32 0.03,-0.15 0.16,-0.27 0.31,-0.28 0.16,0 0.3,0.1 0.33,0.25 0.04,0.15 -0.03,0.31 -0.17,0.38 z"
         id="path29" />
      <path
         class="st16"
         d="m 2653.44,1189.6 h -3.6 c 0,0.74 -0.05,3.03 0.11,3.6 0.09,0.32 0.25,0.61 0.49,0.84 0.77,0.77 1.71,0.63 2.47,-0.06 0.58,-0.69 0.54,-1.22 0.54,-2.09 0,-0.76 0,-1.53 0,-2.29 z m -1,0.83 c 0.14,-0.1 0.33,-0.09 0.44,0.04 0.12,0.12 0.12,0.31 0.02,0.44 -0.07,0.09 -0.18,0.13 -0.29,0.12 -0.11,0 -0.21,-0.07 -0.26,-0.17 -0.08,-0.15 -0.05,-0.33 0.09,-0.44 z m -1.59,2.66 c -0.17,0.07 -0.37,0 -0.44,-0.18 -0.08,-0.17 0,-0.37 0.16,-0.45 0.11,-0.05 0.24,-0.04 0.35,0.03 0.1,0.07 0.16,0.19 0.14,0.32 -0.01,0.12 -0.09,0.23 -0.21,0.28 z m 0.05,-2.05 c -0.16,0.08 -0.36,0.01 -0.44,-0.15 -0.08,-0.16 -0.03,-0.36 0.13,-0.45 0.11,-0.06 0.24,-0.06 0.35,0 0.11,0.06 0.17,0.18 0.16,0.31 0,0.13 -0.08,0.24 -0.19,0.29 z m 0.98,0.95 c -0.1,0.07 -0.23,0.07 -0.34,0.02 -0.11,-0.05 -0.18,-0.17 -0.18,-0.29 0,-0.12 0.06,-0.23 0.17,-0.29 0.15,-0.09 0.35,-0.04 0.45,0.11 0.09,0.15 0.05,0.35 -0.1,0.45 z m 0.92,1.06 c -0.11,0.06 -0.24,0.04 -0.34,-0.03 -0.1,-0.07 -0.15,-0.2 -0.13,-0.32 0.03,-0.15 0.16,-0.27 0.31,-0.28 0.16,0 0.3,0.1 0.33,0.25 0.04,0.15 -0.03,0.31 -0.17,0.38 z"
         id="path30" />
      <path
         class="st16"
         d="m 2648.9,1183.77 h -3.6 c 0,0.74 -0.05,3.03 0.11,3.6 0.09,0.32 0.25,0.61 0.49,0.84 0.77,0.77 1.71,0.63 2.47,-0.06 0.58,-0.69 0.54,-1.22 0.54,-2.09 0,-0.76 0,-1.53 0,-2.29 z m -1,0.83 c 0.14,-0.1 0.33,-0.09 0.44,0.04 0.12,0.12 0.12,0.31 0.02,0.44 -0.07,0.09 -0.18,0.13 -0.29,0.12 -0.11,0 -0.21,-0.07 -0.26,-0.17 -0.08,-0.15 -0.05,-0.33 0.09,-0.44 z m -1.59,2.66 c -0.17,0.07 -0.37,0 -0.44,-0.18 -0.08,-0.17 0,-0.37 0.16,-0.45 0.11,-0.05 0.24,-0.04 0.35,0.03 0.1,0.07 0.16,0.19 0.14,0.32 -0.01,0.12 -0.09,0.23 -0.21,0.28 z m 0.04,-2.04 c -0.16,0.08 -0.36,0.01 -0.44,-0.15 -0.08,-0.16 -0.03,-0.36 0.13,-0.45 0.11,-0.06 0.24,-0.06 0.35,0 0.11,0.06 0.17,0.18 0.16,0.31 0,0.13 -0.08,0.24 -0.19,0.29 z m 0.99,0.94 c -0.1,0.07 -0.23,0.07 -0.34,0.02 -0.11,-0.05 -0.18,-0.17 -0.18,-0.29 0,-0.12 0.06,-0.23 0.17,-0.29 0.15,-0.09 0.35,-0.04 0.45,0.11 0.09,0.15 0.05,0.35 -0.1,0.45 z m 0.92,1.07 c -0.11,0.06 -0.24,0.04 -0.34,-0.03 -0.1,-0.07 -0.15,-0.2 -0.13,-0.32 0.03,-0.15 0.16,-0.27 0.31,-0.28 0.16,0 0.3,0.1 0.33,0.25 0.04,0.15 -0.03,0.31 -0.17,0.38 z"
         id="path31" />
      <path
         class="st16"
         d="m 2657.71,1183.81 h -3.6 c 0,0.74 -0.05,3.03 0.11,3.6 0.09,0.32 0.25,0.61 0.49,0.84 0.77,0.77 1.71,0.63 2.47,-0.06 0.58,-0.69 0.54,-1.22 0.54,-2.09 0,-0.76 0,-1.53 0,-2.29 z m -1,0.83 c 0.14,-0.1 0.33,-0.09 0.44,0.04 0.12,0.12 0.12,0.31 0.02,0.44 -0.07,0.09 -0.18,0.13 -0.29,0.12 -0.11,0 -0.21,-0.07 -0.26,-0.17 -0.08,-0.15 -0.05,-0.33 0.09,-0.44 z m -1.59,2.66 c -0.17,0.07 -0.37,0 -0.44,-0.18 -0.08,-0.17 0,-0.37 0.16,-0.45 0.11,-0.05 0.24,-0.04 0.35,0.03 0.1,0.07 0.16,0.19 0.14,0.32 -0.01,0.12 -0.09,0.23 -0.21,0.28 z m 0.05,-2.05 c -0.16,0.08 -0.36,0.01 -0.44,-0.15 -0.08,-0.16 -0.03,-0.36 0.13,-0.45 0.11,-0.06 0.24,-0.06 0.35,0 0.11,0.06 0.17,0.18 0.16,0.31 0,0.13 -0.08,0.24 -0.19,0.29 z m 0.98,0.95 c -0.1,0.07 -0.23,0.07 -0.34,0.02 -0.11,-0.05 -0.18,-0.17 -0.18,-0.29 0,-0.12 0.06,-0.23 0.17,-0.29 0.15,-0.09 0.35,-0.04 0.45,0.11 0.09,0.15 0.05,0.35 -0.1,0.45 z m 0.92,1.06 c -0.11,0.06 -0.24,0.04 -0.34,-0.03 -0.1,-0.07 -0.15,-0.2 -0.13,-0.32 0.03,-0.15 0.16,-0.27 0.31,-0.28 0.16,0 0.3,0.1 0.33,0.25 0.04,0.15 -0.03,0.31 -0.17,0.38 z"
         id="path32" />
      <path
         class="st20"
         d="m 2660.92,1182.43 c 0,-0.13 -0.04,-0.16 0.06,-0.25 0.3,-0.28 0.66,-0.34 1.04,-0.16 H 2662 c 0.14,0.1 0.23,0.13 0.28,0.27 l -0.04,0.17 v 0.11 c 0.21,0.15 0.69,-0.12 0.94,0 l 0.1,0.14 c 0.16,0.2 0.14,0.27 0.05,0.51 l -0.04,0.12 c 0,0 -0.01,0.03 -0.02,0.09 0,0.18 -0.02,0.66 0.05,0.8 0.09,0.02 0.13,0.02 0.2,0.1 0,0.4 -0.2,0.16 -0.24,0.66 0,0.36 -0.03,0.91 0.03,1.25 0.06,0.12 0.07,0.11 0.17,0.19 l 0.06,0.04 c 0.03,0.13 0.05,0.16 0,0.28 -0.08,0.05 -0.21,0.08 -0.31,0.07 -1.21,-0.05 -2.43,0.05 -3.63,-0.03 -0.09,0 -0.09,-0.04 -0.13,-0.11 0.02,-0.15 0.02,-0.15 0.11,-0.27 l 0.15,-0.08 c 0.13,-0.3 0.12,-1.32 0.03,-1.66 -0.02,-0.08 -0.09,-0.08 -0.18,-0.13 l -0.04,-0.25 c 0.11,-0.04 0.13,-0.05 0.24,-0.11 0.09,-0.17 0.05,-0.43 0.06,-0.64 0.01,-0.4 -0.19,-0.36 -0.16,-0.67 0.1,-0.14 0.05,-0.09 0.23,-0.16 l 0.07,-0.14 c 0.3,-0.1 0.64,0.22 0.92,0 v -0.15 z"
         id="path33" />
      <path
         class="st14"
         d="m 2659.85,1184.68 2.1,-0.02 c 0.36,0 0.92,-0.03 1.26,0.02 0.07,0.07 0.06,0.17 0.08,0.29 0,0.36 -0.03,0.91 0.03,1.25 -0.1,0 -0.18,0.02 -0.28,0.02 -0.39,0 -1.99,0.04 -2.27,0 -0.05,-0.14 -0.05,-0.07 -0.01,-0.21 0.24,-0.13 0.31,-0.14 0.25,-0.43 v -0.06 c 0.26,-0.11 0.32,-0.14 0.55,-0.33 l 0.05,-0.04 c 0.38,0.33 0.64,0.87 0.82,0.98 0.32,-0.56 -0.47,-0.92 -0.85,-1.22 -0.34,0.35 -0.68,0.45 -0.93,0.77 -0.01,0.25 -0.01,0.34 0.02,0.58 h -0.82 c 0.02,-0.52 0.02,-1.06 0,-1.6 z"
         id="path34" />
      <path
         class="st14"
         d="m 2662.24,1182.46 v 0.11 c 0.21,0.15 0.69,-0.12 0.94,0 l 0.1,0.14 c 0.16,0.2 0.14,0.27 0.05,0.51 l -0.04,0.12 c 0,0 -0.01,0.03 -0.02,0.09 h -0.03 c 0,0.3 0.03,0.52 -0.08,0.79 l -0.07,0.04 c -0.19,-0.09 -0.21,-0.16 -0.28,-0.37 -0.08,0.12 -0.11,0.17 -0.17,0.3 -0.13,0.08 -0.18,0.06 -0.37,0.05 -0.05,0 -0.1,-0.01 -0.15,-0.02 -0.08,-0.14 -0.05,-0.39 -0.06,-0.58 0,-0.26 0.02,-0.52 0.03,-0.78 v -0.28 c 0,0 0.14,-0.1 0.14,-0.1 z"
         id="path35" />
      <path
         class="st0"
         d="m 2662.21,1183.17 c 0.33,-0.07 0.49,-0.06 0.83,-0.02 l 0.07,0.1 c -0.26,0.14 -0.25,0.32 -0.3,0.62 -0.08,0.12 -0.11,0.17 -0.17,0.3 -0.13,0.08 -0.18,0.06 -0.37,0.05 0,-0.25 0,-0.82 -0.06,-1.04 z"
         id="path36" />
      <path
         class="st20"
         d="m 2663.04,1183.15 0.07,0.1 h -0.09 c -0.15,0.02 -0.19,0.04 -0.32,-0.02 0.1,-0.08 0.19,-0.06 0.34,-0.07 z"
         id="path37" />
      <path
         class="st10"
         d="m 2662.24,1182.46 v 0.11 c 0.21,0.15 0.69,-0.12 0.94,0 l 0.1,0.14 c -0.33,0 -0.84,-0.09 -1.06,0.1 -0.06,0.12 -0.03,0.23 -0.02,0.37 0.05,0.23 0.06,0.79 0.06,1.04 -0.05,0 -0.1,-0.01 -0.15,-0.02 -0.08,-0.14 -0.05,-0.39 -0.06,-0.58 0,-0.26 0.02,-0.52 0.03,-0.78 v -0.28 c 0,0 0.14,-0.1 0.14,-0.1 z"
         id="path38" />
      <path
         class="st14"
         d="m 2659.59,1186.41 c 0.7,-0.02 3.34,-0.11 3.9,0.01 l 0.06,0.04 c 0.03,0.13 0.05,0.16 0,0.28 -0.08,0.05 -0.21,0.08 -0.31,0.07 -1.21,-0.05 -2.43,0.05 -3.63,-0.03 -0.09,0 -0.09,-0.04 -0.13,-0.11 0.02,-0.15 0.02,-0.15 0.11,-0.27 z"
         id="path39" />
      <path
         class="st14"
         d="m 2661.08,1182.67 c 0.26,-0.01 0.67,-0.05 0.91,0 0.07,0.02 0.07,0.07 0.11,0.16 -0.01,0.26 -0.03,0.52 -0.03,0.78 -0.08,0.15 0,0.31 -0.05,0.55 -0.11,0.07 -0.79,-0.01 -0.89,-0.07 -0.04,-0.2 -0.04,-1.14 -0.05,-1.43 z"
         id="path40" />
      <path
         class="st14"
         d="m 2659.55,1184.29 c 0.58,-0.02 3.54,-0.09 3.88,0.08 l 0.05,0.08 c -0.11,0.11 -0.24,0.1 -0.4,0.09 -1.14,-0.04 -2.35,0.07 -3.49,-0.01 l -0.04,-0.25 z"
         id="path41" />
      <path
         class="st14"
         d="m 2659.91,1182.72 c 0.33,0 0.67,-0.01 0.99,-0.01 0,0.18 0.02,0.28 -0.07,0.42 -0.26,0.16 -0.28,-0.06 -0.56,0.03 -0.15,0.19 0.18,1.04 -0.18,1.07 -0.12,0 -0.16,-0.04 -0.21,-0.11 -0.04,-0.2 0,-0.46 -0.04,-0.58 0.01,-0.4 -0.19,-0.36 -0.16,-0.67 0.1,-0.14 0.05,-0.09 0.23,-0.16 z"
         id="path42" />
      <path
         class="st14"
         d="m 2660.92,1182.43 c 0,-0.13 -0.04,-0.16 0.06,-0.25 0.3,-0.28 0.66,-0.34 1.04,-0.16 H 2662 c 0.14,0.1 0.23,0.13 0.28,0.27 l -0.04,0.17 -0.13,0.1 c -0.33,-0.01 -0.79,-0.05 -1.1,0.01 l -0.09,-0.15 z"
         id="path43" />
      <path
         class="st7"
         d="m 2660.92,1182.43 0.09,0.15 c 0.04,0.26 0.11,1.44 0.02,1.64 h -0.08 c -0.2,-0.29 0.04,-1.1 -0.04,-1.51 -0.33,0 -0.67,0 -0.99,0.01 l 0.07,-0.14 c 0.3,-0.1 0.64,0.22 0.92,0 v -0.15 z"
         id="path44" />
      <path
         class="st14"
         d="m 2660.47,1183.25 c 0.12,0 0.24,-0.02 0.33,0.04 0.04,0.21 0.06,0.78 -0.03,0.97 l -0.22,-0.04 c -0.18,-0.19 -0.21,-0.78 -0.08,-0.97 z"
         id="path45" />
      <path
         class="st15"
         d="m 2660.33,1183.43 c 0.11,0.12 0.07,0.68 0.01,0.83 -0.1,-0.12 -0.06,-0.68 -0.01,-0.83 z"
         id="path46" />
      <path
         class="st14"
         d="m 2640.86,1182.47 c -0.08,-0.62 0.98,-0.68 1.27,-0.25 0.05,0.07 0.03,0.09 0.02,0.19 0.02,0.18 -0.01,0.11 0.11,0.24 0.45,0.14 0.64,-0.24 0.82,-0.04 0.03,0.03 0.02,0.07 0.12,0.15 0.13,0.13 0.17,0.22 0.09,0.4 -0.12,0.14 -0.12,0.24 -0.14,0.42 0.01,0.22 -0.02,0.48 0.05,0.64 0.08,0.07 0.12,0.07 0.22,0.1 0,0.11 0,0.18 -0.04,0.28 -0.13,0.1 -0.13,0.07 -0.16,0.26 -0.05,0.36 0.04,0.87 0,1.21 v 0.21 c 0.08,0.04 0.14,0.08 0.21,0.11 0.04,0.16 0.07,0.22 0.03,0.36 -0.12,0.06 -3.76,0.07 -4.02,0.03 -0.08,-0.13 -0.05,-0.22 -0.02,-0.37 l 0.24,-0.1 c 0.11,-0.24 0.09,-1.29 0.03,-1.58 -0.02,-0.12 -0.08,-0.12 -0.19,-0.18 -0.05,-0.12 -0.05,-0.05 0,-0.2 l 0.15,-0.08 c 0.1,-0.14 0.07,-0.35 0.07,-0.54 0,-0.33 0.02,-0.34 -0.17,-0.56 -0.04,-0.36 0.19,-0.43 0.47,-0.6 0.05,-0.03 0.11,0 0.15,0.02 l -0.07,0.1 0.03,0.03 h 0.68 c 0,0 0.11,-0.05 0.11,-0.05 l -0.08,-0.17 z"
         id="path47" />
      <path
         class="st9"
         d="m 2640.86,1182.47 c -0.08,-0.62 0.98,-0.68 1.27,-0.25 0.05,0.07 0.03,0.09 0.02,0.19 0.02,0.18 -0.01,0.11 0.11,0.24 0.45,0.14 0.64,-0.24 0.82,-0.04 0.03,0.03 0.02,0.07 0.12,0.15 0.13,0.13 0.17,0.22 0.09,0.4 -0.12,0.14 -0.12,0.24 -0.14,0.42 0.01,0.22 -0.02,0.48 0.05,0.64 0.08,0.07 0.12,0.07 0.22,0.1 0,0.11 0,0.18 -0.04,0.28 -0.52,0.04 -3.46,0.03 -3.88,-0.06 -0.05,-0.12 -0.05,-0.05 0,-0.2 l 0.15,-0.08 c 0.1,-0.14 0.07,-0.35 0.07,-0.54 0,-0.33 0.02,-0.34 -0.17,-0.56 -0.04,-0.36 0.19,-0.43 0.47,-0.6 0.05,-0.03 0.11,0 0.15,0.02 l -0.07,0.1 0.03,0.03 h 0.68 c 0,0 0.11,-0.05 0.11,-0.05 l -0.08,-0.17 z"
         id="path48" />
      <path
         class="st0"
         d="m 2640.86,1182.47 c -0.08,-0.62 0.98,-0.68 1.27,-0.25 0.05,0.07 0.03,0.09 0.02,0.19 -0.04,0.08 -0.04,0.1 -0.1,0.17 l -0.02,0.41 H 2642 c -0.01,0.44 -0.02,0.81 0,1.24 h -0.99 c 0,-0.18 0.03,-0.7 -0.05,-0.82 0,-0.14 0,-0.29 0,-0.42 l -0.03,-0.33 -0.08,-0.17 z"
         id="path49" />
      <path
         class="st14"
         d="m 2640.86,1182.47 c -0.08,-0.62 0.98,-0.68 1.27,-0.25 0.05,0.07 0.03,0.09 0.02,0.19 -0.04,0.08 -0.04,0.1 -0.1,0.17 -0.37,-0.04 -0.94,0.08 -1.19,-0.1 z"
         id="path50" />
      <path
         class="st15"
         d="m 2640.86,1182.47 c 0.25,0.18 0.82,0.06 1.19,0.1 l -0.02,0.41 H 2642 c 0,-0.13 0.02,-0.18 -0.03,-0.31 -0.17,-0.02 -0.81,-0.04 -0.95,0.02 l -0.06,0.28 -0.03,-0.33 -0.08,-0.17 z"
         id="path51" />
      <path
         class="st15"
         d="m 2641.32,1182.98 c 0.26,0.01 0.35,0.06 0.36,0.32 -0.09,0.15 -0.03,0.1 -0.18,0.17 -0.13,-0.02 -0.13,-0.03 -0.22,-0.11 0.14,0 0.18,0 0.3,-0.06 v -0.08 c 0,0 -0.05,-0.05 -0.05,-0.05 -0.14,0.03 -0.16,0.04 -0.3,0.02 0,-0.04 0.07,-0.16 0.09,-0.21 z"
         id="path52" />
      <path
         class="st14"
         d="m 2642.15,1182.41 c 0.02,0.18 -0.01,0.11 0.11,0.24 0.45,0.14 0.64,-0.24 0.82,-0.04 0.03,0.03 0.02,0.07 0.12,0.15 0.13,0.13 0.17,0.22 0.09,0.4 -0.12,0.14 -0.12,0.24 -0.14,0.42 -0.1,0.15 0.04,0.46 -0.17,0.68 -0.11,0 -0.05,0 -0.15,-0.07 -0.06,-0.12 -0.05,-0.56 -0.06,-0.75 l -0.15,0.07 -0.02,0.09 c 0,0.19 0.01,0.45 -0.08,0.59 -0.1,0.04 -0.21,0.02 -0.3,-0.04 -0.04,0.08 0,0.05 -0.1,0.08 -0.12,-0.15 -0.08,-0.99 -0.08,-1.23 l 0.02,-0.41 c 0.06,-0.06 0.06,-0.08 0.1,-0.17 z"
         id="path53" />
      <path
         class="st0"
         d="m 2642.64,1183.18 0.1,0.02 c 0.06,0.11 0.04,0.07 0.02,0.21 l -0.15,0.07 -0.02,0.09 c 0,0.19 0.01,0.45 -0.08,0.59 -0.1,0.04 -0.21,0.02 -0.3,-0.04 -0.03,-0.26 -0.02,-0.64 -0.04,-0.93 l 0.48,-0.02 z"
         id="path54" />
      <path
         class="st7"
         d="m 2642.15,1182.41 c 0.02,0.18 -0.01,0.11 0.11,0.24 0.45,0.14 0.64,-0.24 0.82,-0.04 0.03,0.03 0.02,0.07 0.12,0.15 -0.31,-0.03 -0.79,-0.13 -1.04,0.03 -0.07,0.12 -0.04,0.23 -0.03,0.37 l 0.04,0.05 c 0.02,0.29 0.01,0.67 0.04,0.93 -0.04,0.08 0,0.05 -0.1,0.08 -0.12,-0.15 -0.08,-0.99 -0.08,-1.23 l 0.02,-0.41 c 0.06,-0.06 0.06,-0.08 0.1,-0.17 z"
         id="path55" />
      <path
         class="st14"
         d="m 2639.51,1184.32 c 0.68,-0.08 1.61,-0.04 2.3,-0.04 0.47,0 1.16,-0.02 1.61,0.02 0,0.11 0,0.18 -0.04,0.28 -0.52,0.04 -3.46,0.03 -3.88,-0.06 -0.05,-0.12 -0.05,-0.05 0,-0.2 z"
         id="path56" />
      <path
         class="st14"
         d="m 2639.56,1183.15 c -0.04,-0.36 0.19,-0.43 0.47,-0.6 0.05,-0.03 0.11,0 0.15,0.02 l -0.07,0.1 0.03,0.03 h 0.68 c 0.03,0.21 0.03,0.26 0.01,0.47 l -0.02,0.06 c -0.19,0.19 0,0.66 -0.1,0.96 -0.1,0.07 -0.08,0.04 -0.23,0.04 -0.14,-0.1 -0.12,-0.25 -0.14,-0.42 0.16,-0.18 0.19,-0.44 0.06,-0.64 -0.29,0.01 -0.56,0.03 -0.85,0 z"
         id="path57" />
      <path
         class="st0"
         d="m 2639.56,1183.15 c 0.29,0.04 0.56,0.02 0.85,0 0.13,0.21 0.1,0.46 -0.06,0.64 -0.03,-0.2 0.1,-0.15 -0.09,-0.34 l -0.07,0.07 c -0.05,0.27 0.15,0.44 -0.03,0.66 -0.14,0.04 -0.18,0.07 -0.31,0.04 -0.14,-0.2 0,-0.33 -0.12,-0.52 0,-0.33 0.02,-0.34 -0.17,-0.56 z"
         id="path58" />
      <path
         class="st7"
         d="m 2640.94,1182.65 0.03,0.33 c 0,0.14 0,0.29 0,0.42 0,0.27 0.03,0.53 -0.08,0.77 -0.13,-0.15 -0.07,-0.74 -0.06,-0.96 l 0.02,-0.06 c 0.02,-0.21 0.02,-0.25 -0.01,-0.47 l 0.11,-0.05 z"
         id="path59" />
      <path
         class="st15"
         d="m 2642.6,1183.58 0.02,-0.09 0.15,-0.07 c -0.02,0.22 -0.02,0.54 -0.07,0.74 -0.1,-0.14 -0.07,-0.4 -0.1,-0.58 z"
         id="path60" />
      <path
         class="st14"
         d="m 2643.43,1186.37 c 0.04,0.16 0.07,0.22 0.03,0.36 -0.12,0.06 -3.76,0.07 -4.02,0.03 -0.08,-0.13 -0.05,-0.22 -0.02,-0.37 0.17,-0.02 0.36,-0.02 0.53,-0.02 1.15,0 2.32,0.04 3.47,0 z"
         id="path61" />
      <path
         class="st20"
         d="m 2639.5,1184.52 c 0.41,0.1 3.36,0.1 3.88,0.06 -0.13,0.1 -0.13,0.07 -0.16,0.26 -0.05,0.36 0.04,0.87 0,1.21 -0.07,-0.2 -0.05,-1.11 -0.04,-1.37 h -3.41 c 0.01,0.53 0,1.05 0,1.57 h 3.47 c 0.06,0.04 0.13,0.08 0.2,0.11 -1.15,0.05 -2.32,0 -3.47,0 -0.17,0 -0.37,0 -0.53,0.02 l 0.24,-0.1 c 0.11,-0.24 0.09,-1.29 0.03,-1.58 -0.02,-0.12 -0.08,-0.12 -0.19,-0.18 z"
         id="path62" />
      <path
         class="st20"
         d="m 2641.37,1185.05 c 0.37,-0.01 1.36,0.57 1.04,1.03 -0.2,-0.02 -0.3,-0.36 -0.55,-0.6 -0.67,-0.69 -0.64,0.2 -1.23,0.17 0.09,-0.23 0.54,-0.49 0.74,-0.61 z"
         id="path63" />
      <path
         class="st14"
         d="m 2640.81,1171.35 c 0.24,-0.6 1.16,-0.64 1.46,0.01 0.11,0.15 0.13,0.14 0.32,0.17 0.28,-0.02 0.47,-0.06 0.69,0.12 0.08,0.17 0.05,0.23 -0.03,0.39 -0.11,0.2 -0.09,0.87 -0.05,1.08 0.07,0.04 0.04,0.04 0.1,0.04 l 0.12,0.02 c 0.07,0.11 0.08,0.2 0.03,0.33 -0.16,0.1 -0.14,0.05 -0.19,0.26 -0.06,0.24 -0.06,1.26 0.02,1.44 0.18,0.06 0.21,0.09 0.23,0.3 -0.03,0.06 -0.03,0.11 -0.09,0.12 -0.67,0.04 -3.31,0.1 -3.84,0.02 -0.09,-0.11 -0.09,-0.26 0.01,-0.37 l 0.13,-0.07 c 0.16,-0.23 0.06,-0.86 0.09,-1.17 l -0.03,-0.13 c -0.06,-0.3 -0.04,-0.31 -0.3,-0.44 0,-0.09 0.04,-0.19 0.06,-0.28 0.07,-0.02 0.12,-0.04 0.2,-0.07 0.14,-0.24 0.13,-1.01 -0.09,-1.21 v -0.22 c 0.08,-0.1 0.04,-0.07 0.21,-0.09 l 0.06,-0.06 c 0.15,-0.08 0.63,-0.06 0.87,-0.08 v -0.1 z"
         id="path64" />
      <path
         class="st20"
         d="m 2639.49,1173.46 c 1.03,0.09 2.89,0.07 3.95,0.04 -0.16,0.1 -0.14,0.05 -0.19,0.26 -0.06,0.24 -0.06,1.26 0.02,1.44 0.18,0.06 0.21,0.09 0.23,0.3 -0.03,0.06 -0.03,0.11 -0.09,0.12 -0.67,0.04 -3.31,0.1 -3.84,0.02 -0.09,-0.11 -0.09,-0.26 0.01,-0.37 l 0.13,-0.07 c 0.16,-0.23 0.06,-0.86 0.09,-1.17 l -0.03,-0.13 c -0.06,-0.3 -0.04,-0.31 -0.3,-0.44 z"
         id="path65" />
      <path
         class="st14"
         d="m 2639.79,1173.9 c 0,-0.11 0,-0.23 0.06,-0.28 1.07,-0.04 2.24,0.01 3.35,-0.01 -0.02,0.52 -0.02,0.99 -0.01,1.51 -0.2,0 -0.57,0.02 -0.75,-0.03 -0.05,-0.18 0.13,-0.29 0,-0.5 -0.19,-0.31 -0.59,-0.46 -0.9,-0.62 -0.51,0.24 -1,0.39 -0.83,1.04 -0.13,0.16 -0.63,0.12 -0.85,0.12 0,-0.22 0.03,-0.92 -0.03,-1.09 l -0.03,-0.13 z"
         id="path66" />
      <path
         class="st14"
         d="m 2643.27,1175.2 c 0.18,0.06 0.21,0.09 0.23,0.3 -0.03,0.06 -0.03,0.11 -0.09,0.12 -0.67,0.04 -3.31,0.1 -3.84,0.02 -0.09,-0.11 -0.09,-0.26 0.01,-0.37 0.94,-0.13 2.65,0.04 3.68,-0.07 z"
         id="path67" />
      <path
         class="st14"
         d="m 2641.42,1174.13 h 0.16 c 0.23,0.15 0.64,0.67 0.6,0.94 -0.11,0.06 -0.43,0.04 -0.58,0.04 h -0.04 c -1.23,0.03 -0.92,-0.54 -0.14,-0.98 z"
         id="path68" />
      <path
         class="st14"
         d="m 2640.81,1171.35 c 0.24,-0.6 1.16,-0.64 1.46,0.01 0.11,0.15 0.13,0.14 0.32,0.17 -0.19,0.01 -0.32,0 -0.45,0.11 -0.02,0.18 0,0.26 0.02,0.43 0,0.2 0,0.51 0.04,0.7 0,0.12 0,0.25 0.02,0.36 h -0.13 c 0,0 -0.05,-0.08 -0.05,-0.08 -0.17,0.07 -0.76,0.09 -0.96,0.02 l -0.06,-0.14 -0.02,0.25 h -0.18 c -0.02,-0.34 -0.02,-0.67 -0.02,-0.99 0.05,-0.23 0.09,-0.42 -0.06,-0.61 -0.22,-0.11 -0.57,-0.07 -0.81,-0.05 0.15,-0.08 0.63,-0.06 0.87,-0.08 v -0.1 z"
         id="path69" />
      <path
         class="st0"
         d="m 2640.81,1171.35 c 0.24,-0.6 1.16,-0.64 1.46,0.01 -0.03,0.02 -0.18,0.14 -0.2,0.15 -0.18,-0.22 -0.99,-0.3 -1.19,-0.15 h -0.07 z"
         id="path70" />
      <path
         class="st10"
         d="m 2640.81,1171.35 h 0.07 c 0.2,0.41 0.09,1.09 0.14,1.58 l -0.02,0.25 h -0.18 c -0.02,-0.34 -0.02,-0.67 -0.02,-0.99 0.05,-0.23 0.09,-0.42 -0.06,-0.61 -0.22,-0.11 -0.57,-0.07 -0.81,-0.05 0.15,-0.08 0.63,-0.06 0.87,-0.08 v -0.1 z"
         id="path71" />
      <path
         class="st7"
         d="m 2642.26,1171.36 c 0.11,0.15 0.13,0.14 0.32,0.17 -0.19,0.01 -0.32,0 -0.45,0.11 -0.02,0.18 0,0.26 0.02,0.43 0,0.2 0,0.51 0.04,0.7 0,0.12 0,0.25 0.02,0.36 h -0.13 c 0,0 -0.05,-0.08 -0.05,-0.08 0,-0.42 -0.02,-1.16 0.03,-1.54 0.02,0 0.17,-0.13 0.2,-0.15 z"
         id="path72" />
      <path
         class="st20"
         d="m 2641.49,1171.56 c 0.13,0 0.26,0 0.37,0.06 -0.11,0.08 -0.17,0.06 -0.32,0.08 -0.17,0 -0.21,-0.01 -0.38,-0.06 0.07,-0.07 0.22,-0.07 0.33,-0.08 z"
         id="path73" />
      <path
         class="st0"
         d="m 2639.93,1171.53 c 0.25,-0.02 0.59,-0.06 0.81,0.05 0.15,0.19 0.11,0.38 0.06,0.61 -0.2,0 -0.24,-0.03 -0.39,0.07 -0.18,0.28 -0.06,0.64 0.06,0.93 l -0.13,0.02 c -0.06,0 -0.12,-0.01 -0.18,-0.02 0.02,-0.31 0.21,-0.64 -0.03,-0.88 -0.15,-0.04 -0.08,-0.05 -0.21,0 -0.08,0.11 -0.05,0.69 -0.06,0.91 l -0.3,-0.04 c 0.07,-0.02 0.12,-0.04 0.2,-0.07 0.14,-0.24 0.13,-1.01 -0.09,-1.21 v -0.22 c 0.08,-0.1 0.04,-0.07 0.21,-0.09 l 0.06,-0.06 z"
         id="path74" />
      <path
         class="st14"
         d="m 2639.65,1171.9 v -0.22 c 0.08,-0.1 0.04,-0.07 0.21,-0.09 0.28,0.02 0.49,0.03 0.74,0.19 v 0.07 c -0.16,0.09 -0.77,0.1 -0.95,0.05 z"
         id="path75" />
      <path
         class="st14"
         d="m 2642.58,1171.53 c 0.28,-0.02 0.47,-0.06 0.69,0.12 0.08,0.17 0.05,0.23 -0.03,0.39 -0.31,-0.19 -0.76,-0.03 -1.08,0.04 -0.02,-0.17 -0.04,-0.26 -0.02,-0.43 0.12,-0.12 0.26,-0.1 0.45,-0.11 z"
         id="path76" />
      <path
         class="st0"
         d="m 2642.2,1172.77 c 0,-0.21 -0.02,-0.46 0.06,-0.65 0.14,-0.12 0.26,-0.14 0.44,-0.12 l 0.04,0.06 c -0.13,0.15 -0.22,-0.03 -0.28,0.13 0.06,0.08 0.09,0.09 0.18,0.15 -0.03,0.3 -0.04,0.59 -0.08,0.88 l -0.3,-0.03 -0.05,-0.06 c 0,-0.11 -0.01,-0.25 -0.02,-0.36 z"
         id="path77" />
      <path
         class="st20"
         d="m 2642.15,1172.07 c 0.32,-0.07 0.77,-0.23 1.08,-0.04 -0.11,0.2 -0.09,0.87 -0.05,1.08 0.07,0.04 0.04,0.04 0.1,0.04 l -0.1,0.06 -0.07,-0.03 c -0.04,-0.34 0.07,-0.97 -0.09,-1.16 -0.12,-0.04 -0.06,-0.04 -0.18,0 -0.17,0.25 -0.03,0.84 -0.11,1.13 0,0.02 -0.13,0.06 -0.17,0.07 0.03,-0.29 0.04,-0.58 0.08,-0.88 -0.09,-0.06 -0.11,-0.06 -0.18,-0.15 0.06,-0.16 0.15,0.02 0.28,-0.13 l -0.04,-0.06 c -0.18,-0.02 -0.3,0 -0.44,0.12 -0.08,0.19 -0.05,0.43 -0.06,0.65 -0.04,-0.19 -0.04,-0.5 -0.04,-0.7 z"
         id="path78" />
      <path
         class="st9"
         d="m 2641.02,1172.93 0.06,0.14 c 0.21,0.07 0.8,0.05 0.96,-0.02 l 0.05,0.08 h 0.13 c 0,0 0.05,0.07 0.05,0.07 -0.38,0 -0.91,0.04 -1.26,-0.01 l 0.02,-0.25 z"
         id="path79" />
      <path
         class="st9"
         d="m 2651.01,1171.19 c 0.2,-0.21 0.57,-0.38 0.84,-0.29 0.23,0.08 0.35,0.23 0.5,0.4 l 0.03,0.11 0.07,0.14 h 0.99 c 0,0 0,0.05 0,0.05 -0.01,0.35 -0.26,1.38 -0.07,1.59 l 0.16,0.03 c 0.06,0.09 0.07,0.19 0,0.29 -0.16,0.13 -0.12,0.06 -0.18,0.25 -0.01,0.3 -0.02,0.57 -0.01,0.87 0.01,0.19 0,0.41 0.1,0.56 l 0.13,0.06 0.04,0.1 c -0.03,0.19 0,0.19 -0.1,0.29 -1.13,0.09 -2.68,-0.02 -3.86,0.02 -0.05,-0.15 -0.02,-0.29 0,-0.45 0.11,-0.02 0.12,-0.01 0.22,-0.08 0.15,-0.25 0.08,-0.94 0.07,-1.28 -0.1,-0.25 -0.02,-0.19 -0.2,-0.33 l -0.09,-0.08 c 0,-0.25 0.1,-0.24 0.3,-0.32 0.08,-0.58 -0.06,-0.7 -0.14,-1.27 -0.02,-0.12 0.04,-0.2 0.11,-0.28 0.16,-0.07 0.35,-0.05 0.54,-0.04 l 0.51,-0.03 c 0.06,-0.08 0.05,-0.2 0.06,-0.31 z"
         id="path80" />
      <path
         class="st14"
         d="m 2649.92,1173.86 c 0,-0.12 0,-0.11 0.04,-0.22 0.29,-0.05 3.13,-0.04 3.33,0.03 l 0.04,0.1 c -0.01,0.3 -0.02,0.57 -0.01,0.87 0.01,0.19 0,0.41 0.1,0.56 l 0.13,0.06 0.04,0.1 c -0.03,0.19 0,0.19 -0.1,0.29 -1.13,0.09 -2.68,-0.02 -3.86,0.02 -0.05,-0.15 -0.02,-0.29 0,-0.45 0.11,-0.02 0.12,-0.01 0.22,-0.08 0.15,-0.25 0.08,-0.94 0.07,-1.28 z"
         id="path81" />
      <path
         class="st14"
         d="m 2649.63,1175.22 h 2.5 c 0.42,0 1.03,-0.03 1.42,0.04 l 0.04,0.1 c -0.03,0.19 0,0.19 -0.1,0.29 -1.13,0.09 -2.68,-0.02 -3.86,0.02 -0.05,-0.15 -0.02,-0.29 0,-0.45 z"
         id="path82" />
      <path
         class="st9"
         d="m 2650.7,1175.1 c -0.1,-0.79 0.43,-0.8 0.94,-1.21 0.37,0.17 1.26,0.54 0.95,1.09 h -0.06 c -0.05,-0.05 -0.05,-0.03 -0.07,-0.1 -0.07,0.04 -0.04,0.02 -0.08,0.1 -0.25,-0.29 -0.29,-0.66 -0.64,-0.84 -0.07,0 -0.21,0 -0.25,0.06 -0.11,0.21 -0.39,0.23 -0.5,0.39 0.08,0.15 0.1,0.12 0.08,0.26 l -0.07,0.04 -0.13,-0.14 -0.06,0.02 c -0.02,0.17 -0.02,0.19 0.09,0.34 h -0.22 z"
         id="path83" />
      <path
         class="st15"
         d="m 2649.92,1173.86 c 0.1,0.27 0.05,0.96 0.04,1.27 0.21,0 0.54,0 0.74,-0.02 h 0.22 c 0.76,0.03 1.62,0 2.39,0 0,-0.16 0,-0.32 0.02,-0.48 0.01,0.19 0,0.41 0.1,0.56 l 0.13,0.06 c -0.4,-0.06 -1,-0.03 -1.42,-0.03 h -2.5 c 0.11,-0.02 0.12,-0.02 0.22,-0.08 0.15,-0.25 0.08,-0.94 0.07,-1.28 z"
         id="path84" />
      <path
         class="st14"
         d="m 2652.38,1171.41 0.07,0.14 h 0.99 c 0,0 0,0.05 0,0.05 -0.01,0.35 -0.26,1.38 -0.07,1.59 l 0.16,0.03 c 0.06,0.09 0.07,0.19 0,0.29 -0.16,0.13 -0.12,0.06 -0.18,0.25 l -0.04,-0.1 c -0.21,-0.07 -3.04,-0.08 -3.33,-0.03 -0.04,0.11 -0.03,0.1 -0.04,0.22 -0.1,-0.25 -0.02,-0.19 -0.2,-0.33 l -0.09,-0.08 c 0.5,-0.52 1.8,-0.04 2.58,-0.27 -0.13,-0.21 -0.08,-1.14 -0.06,-1.43 0,-0.16 0.07,-0.18 0.17,-0.27 l 0.06,-0.06 z"
         id="path85" />
      <path
         class="st20"
         d="m 2649.72,1173.53 c 1.21,-0.05 2.57,0 3.8,-0.01 -0.16,0.13 -0.12,0.06 -0.18,0.25 l -0.04,-0.1 c -0.21,-0.07 -3.04,-0.08 -3.33,-0.03 -0.04,0.11 -0.03,0.1 -0.04,0.22 -0.1,-0.25 -0.02,-0.19 -0.2,-0.33 z"
         id="path86" />
      <path
         class="st7"
         d="m 2652.38,1171.41 0.07,0.14 c -0.1,0.06 -0.12,0.04 -0.14,0.14 -0.05,0.33 0.15,1.18 0.02,1.45 l -0.12,0.03 c -0.13,-0.21 -0.08,-1.14 -0.06,-1.43 0,-0.16 0.07,-0.18 0.17,-0.27 z"
         id="path87" />
      <path
         class="st14"
         d="m 2650.95,1171.5 -0.04,0.79 c -0.08,0.29 0.02,0.61 -0.1,0.82 -0.11,0.06 -0.16,0.05 -0.28,0.06 l -0.12,-0.03 c -0.22,-0.01 -0.47,-0.03 -0.47,-0.37 0,-0.35 0.27,-0.43 0.58,-0.44 0.09,-0.29 0.01,-0.38 -0.18,-0.59 l -0.03,-0.03 c 0.03,-0.13 0.01,-0.08 0.14,-0.18 l 0.51,-0.03 z"
         id="path88" />
      <path
         class="st15"
         d="m 2650.45,1172.42 c 0.08,0.28 0.08,0.46 0.07,0.75 l -0.12,-0.03 c -0.01,-0.19 -0.07,-0.58 0.04,-0.72 z"
         id="path89" />
      <path
         class="st14"
         d="m 2651.01,1171.19 c 0.2,-0.21 0.57,-0.38 0.84,-0.29 0.23,0.08 0.35,0.23 0.5,0.4 l 0.03,0.11 -0.06,0.06 c -0.4,0.02 -0.81,0.02 -1.21,0.07 l -0.11,-0.35 z"
         id="path90" />
      <path
         class="st11"
         d="m 2651.01,1171.19 0.11,0.35 c 0,0.35 0.04,1.26 -0.01,1.56 l -0.06,0.05 -0.09,-0.02 c -0.06,-0.12 -0.04,-0.67 -0.04,-0.84 l 0.04,-0.79 c 0.06,-0.08 0.05,-0.2 0.06,-0.31 z"
         id="path91" />
      <path
         class="st14"
         d="m 2651.57,1171.61 h 0.53 c 0,0.32 0.03,1.23 -0.03,1.49 -0.11,0.07 -0.24,0.04 -0.38,0.02 l -0.5,0.02 c 0,-0.45 -0.03,-1.01 0,-1.45 0.08,-0.08 0.17,-0.04 0.33,-0.07 h 0.06 z"
         id="path92" />
      <path
         class="st15"
         d="m 2651.6,1171.88 c 0.2,0.17 0.2,0.35 0.03,0.54 l -0.11,-0.1 c -0.04,-0.17 0.03,-0.27 0.09,-0.44 z"
         id="path93" />
      <path
         class="st14"
         d="m 2660.88,1171.34 v -0.15 c 0.42,-0.34 0.85,-0.54 1.27,-0.06 0.08,0.09 0.08,0.14 0.05,0.25 0.04,0.07 0.04,0.09 0.09,0.14 0.25,-0.01 0.72,-0.05 0.94,0.03 0.25,0.26 -0.01,0.61 0,0.98 0,0.21 0,0.38 0.03,0.59 0.16,0.07 0.22,0.07 0.31,0.2 -0.02,0.14 0,0.08 -0.09,0.19 -0.16,0.14 -0.11,0.07 -0.18,0.28 -0.04,0.44 -0.02,0.9 -0.02,1.34 l 0.11,0.1 0.09,0.05 c 0.02,0.15 0.02,0.15 -0.02,0.3 -0.25,0.18 -3.01,0.03 -3.51,0.08 -0.14,0.01 -0.32,0.01 -0.41,-0.09 -0.03,-0.15 0,-0.2 0.04,-0.36 l 0.18,-0.05 c 0.12,-0.13 0.09,-0.18 0.13,-0.37 0,-0.31 0.02,-0.58 -0.02,-0.89 -0.04,-0.26 0,-0.24 -0.17,-0.37 -0.14,-0.07 -0.1,-0.15 -0.11,-0.29 0.11,-0.05 0.22,-0.04 0.3,-0.12 0.03,-0.24 0.02,-0.8 -0.06,-1.03 -0.16,-0.05 -0.22,-0.15 -0.17,-0.3 0.21,-0.21 0.29,-0.2 0.58,-0.23 0.2,-0.01 0.51,0.05 0.65,-0.07 v -0.12 z"
         id="path94" />
      <path
         class="st14"
         d="m 2659.87,1173.87 c 0.01,-0.12 0,-0.2 0.06,-0.26 0.37,-0.03 3.04,-0.03 3.32,0.05 l 0.05,0.11 c -0.04,0.44 -0.02,0.9 -0.02,1.34 l 0.11,0.1 0.09,0.05 c 0.02,0.15 0.02,0.15 -0.02,0.3 -0.25,0.18 -3.01,0.03 -3.51,0.08 -0.14,0.01 -0.32,0.01 -0.41,-0.09 -0.03,-0.15 0,-0.2 0.04,-0.36 l 0.18,-0.05 c 0.12,-0.13 0.09,-0.18 0.13,-0.37 0,-0.31 0.02,-0.58 -0.02,-0.89 z"
         id="path95" />
      <path
         class="st14"
         d="m 2659.88,1174.76 c 0,0.19 -0.03,0.2 0.07,0.32 0.19,0.06 0.32,0.01 0.52,0.02 h 0.37 c 0.78,-0.01 1.64,0 2.43,0 l 0.11,0.1 0.09,0.05 c 0.02,0.15 0.02,0.15 -0.02,0.3 -0.25,0.18 -3.01,0.03 -3.51,0.08 -0.14,0.01 -0.32,0.01 -0.41,-0.09 -0.03,-0.15 0,-0.2 0.04,-0.36 l 0.18,-0.05 c 0.12,-0.13 0.09,-0.18 0.13,-0.37 z"
         id="path96" />
      <path
         class="st15"
         d="m 2659.88,1174.76 c 0,0.19 -0.03,0.2 0.07,0.32 0.19,0.06 0.32,0.01 0.52,0.02 h 0.37 c 0.78,-0.01 1.64,0 2.43,0 l 0.11,0.1 c -1.25,-0.04 -2.53,0.02 -3.81,-0.03 l 0.18,-0.05 c 0.12,-0.13 0.09,-0.18 0.13,-0.37 z"
         id="path97" />
      <path
         class="st9"
         d="m 2661.55,1173.89 c 0.35,0.17 1.26,0.58 0.94,1.08 -0.03,0.05 0,0.03 -0.06,0.05 -0.02,-0.08 0,-0.1 -0.06,-0.15 -0.32,-0.27 -0.43,-0.52 -0.8,-0.76 -0.32,0.22 -0.46,0.31 -0.54,0.73 -0.01,0.07 -0.02,0.14 -0.03,0.21 -0.07,0.04 -0.07,0.04 -0.14,0.07 h -0.37 c 0.3,-0.11 0.09,-0.27 0.17,-0.46 0.14,-0.31 0.63,-0.59 0.91,-0.77 z"
         id="path98" />
      <path
         class="st14"
         d="m 2660.88,1171.34 v -0.15 c 0.42,-0.34 0.85,-0.54 1.27,-0.06 0.08,0.09 0.08,0.14 0.05,0.25 0.04,0.07 0.04,0.09 0.09,0.14 -0.08,0.17 -0.04,0.4 -0.03,0.6 0,0.23 0.02,0.77 -0.02,0.97 l -0.05,0.04 -0.1,-0.03 c -0.06,0.04 -0.85,0 -0.99,0 v -0.81 c 0,0 0,-0.65 0,-0.65 l -0.04,-0.02 c -0.03,-0.18 -0.05,-0.17 -0.17,-0.28 z"
         id="path99" />
      <path
         class="st7"
         d="m 2662.1,1171.52 0.09,-0.14 c 0.04,0.07 0.04,0.09 0.09,0.14 -0.08,0.17 -0.04,0.4 -0.03,0.6 0,0.23 0.02,0.77 -0.02,0.97 l -0.05,0.04 -0.1,-0.03 c 0,-0.31 0,-0.63 -0.01,-0.94 V 1172 c 0.03,-0.13 0.03,-0.33 0.03,-0.47 z"
         id="path100" />
      <path
         class="st20"
         d="m 2661.14,1171.62 c 0.12,-0.21 0.73,-0.12 0.96,-0.11 0,0.14 0,0.34 -0.03,0.47 -0.01,-0.18 0.02,-0.24 -0.08,-0.37 -0.23,-0.11 -0.58,-0.03 -0.86,0 z"
         id="path101" />
      <path
         class="st9"
         d="m 2661.05,1171.62 0.04,0.02 v 0.65 c 0,0 0,0.81 0,0.81 0.14,0 0.93,0.03 0.99,0 l 0.1,0.03 0.05,-0.04 c 0.05,-0.2 0.03,-0.74 0.02,-0.97 0.08,0.13 0.05,0.79 0.05,1 0.18,0 0.21,0.03 0.33,-0.07 0.06,-0.17 0.07,-0.21 0.09,-0.39 0.09,-0.11 0.03,-0.09 0.14,-0.11 l 0.05,0.02 v 0.06 c -0.08,0.35 -0.08,0.28 0.14,0.53 -0.56,0.07 -1.27,-0.02 -1.78,0.05 l -0.28,-0.04 c 0.08,-0.15 0.05,-1.28 0.05,-1.56 z"
         id="path102" />
      <path
         class="st0"
         d="m 2660.23,1171.53 c 0.17,0 0.52,0 0.67,0.05 -0.19,0.02 -0.29,0.02 -0.48,0.02 0.08,0.05 0.17,0.09 0.26,0.14 -0.09,0.06 -0.09,0.04 -0.2,0.05 -0.14,0.39 -0.32,0.18 -0.65,0.27 -0.16,-0.05 -0.22,-0.15 -0.17,-0.3 0.21,-0.21 0.29,-0.2 0.58,-0.23 z"
         id="path103" />
      <path
         class="st20"
         d="m 2659.69,1173.5 c 0.75,0.03 1.55,0.02 2.31,0.02 0.37,0 1.12,0.02 1.47,-0.03 -0.16,0.14 -0.11,0.07 -0.18,0.28 l -0.05,-0.11 c -0.28,-0.08 -2.95,-0.08 -3.32,-0.05 -0.07,0.06 -0.05,0.14 -0.06,0.26 -0.04,-0.26 0,-0.24 -0.17,-0.37 z"
         id="path104" />
      <path
         class="st7"
         d="m 2660.88,1171.34 c 0.13,0.11 0.15,0.1 0.17,0.28 0,0.27 0.03,1.4 -0.05,1.56 -0.04,0 -0.09,-0.02 -0.13,-0.03 -0.11,-0.34 0.03,-1.09 0.02,-1.51 v -0.05 c -0.14,-0.04 -0.5,-0.04 -0.67,-0.05 0.2,-0.01 0.51,0.05 0.65,-0.07 v -0.12 z"
         id="path105" />
      <path
         class="st14"
         d="m 2643.35,1194.03 c 0.21,-0.22 0.76,-0.8 0.98,-0.96 0.48,0.8 1.54,2.06 2.32,2.59 0.11,0.09 0.2,0.14 0.24,0.26 -0.41,0.5 -0.93,1.02 -1.38,1.5 -0.4,0.43 -0.86,0.97 -1.27,1.36 -0.06,-0.09 -0.18,-0.28 -0.26,-0.35 l 0.03,-0.11 c -0.19,-0.42 -0.99,-1.22 -1.35,-1.63 -0.07,0.02 -0.05,0.01 -0.12,0 -0.08,-0.17 -0.1,-0.21 -0.22,-0.36 l -0.03,-0.03 c -0.16,-0.26 -0.31,-0.34 -0.56,-0.51 0.18,-0.25 0.5,-0.73 0.75,-0.85 l 0.11,-0.16 c -0.12,-0.15 -0.26,-0.3 -0.37,-0.46 0.3,-0.22 0.58,-0.58 0.86,-0.57 0.15,0.08 0.16,0.12 0.26,0.27 z"
         id="path106" />
      <path
         class="st20"
         d="m 2644.67,1197.65 c 0.36,-0.44 1.39,-1.49 1.81,-1.91 l 0.1,0.02 c -0.5,0.59 -2.04,2.3 -2.59,2.68 l 0.03,-0.11 c 0.17,-0.14 0.46,-0.47 0.6,-0.64 -0.21,-0.23 -0.33,-0.5 -0.45,-0.79 0.14,-0.39 0.46,-0.89 0.89,-0.99 0.25,-0.06 0.42,0.14 0.63,0.27 l -0.05,0.09 h -0.07 c 0,0 -0.13,-0.17 -0.17,-0.18 -0.41,-0.09 -0.95,0.2 -1.04,0.62 -0.08,0.4 0.12,0.63 0.31,0.94 z"
         id="path107" />
      <path
         class="st0"
         d="m 2642.64,1194.81 c 0.1,-0.07 0.19,-0.14 0.29,-0.21 0.21,0.05 0.71,0.7 0.71,0.9 -0.15,0.19 -0.12,0.1 -0.11,0.35 -0.16,-0.33 -0.63,-0.72 -0.89,-1.03 z"
         id="path108" />
      <path
         class="st11"
         d="m 2642.6,1194.79 0.05,0.02 c 0.26,0.32 0.73,0.71 0.89,1.03 l -0.04,0.07 -0.31,-0.22 c -0.23,-0.25 -0.46,-0.47 -0.69,-0.73 l 0.11,-0.16 z"
         id="path109" />
      <path
         class="st7"
         d="m 2644.45,1195.08 c -0.07,0.03 -0.06,0.02 -0.14,0.04 -0.23,-0.24 -0.58,-0.57 -0.7,-0.87 l 0.03,-0.03 c 0.21,0.14 0.6,0.56 0.73,0.77 l 0.07,0.08 z"
         id="path110" />
      <path
         class="st0"
         d="m 2643.77,1196.3 0.04,0.07 c -0.02,0.17 -0.12,0.28 -0.22,0.43 l -0.04,-0.04 c 0.02,-0.13 0.14,-0.33 0.22,-0.46 z"
         id="path111" />
      <path
         class="st20"
         d="m 2644.38,1195 c 0.1,-0.08 0.21,-0.21 0.33,-0.22 -0.04,0.13 -0.16,0.21 -0.26,0.31 l -0.07,-0.08 z"
         id="path112" />
      <path
         class="st14"
         d="m 2657.08,1195.33 c 0.62,-0.55 1.49,-1.3 1.74,-2.1 0.18,-0.02 0.47,0.23 0.62,0.34 0.25,0.23 0.17,0.32 0.38,0.51 l 0.12,0.03 c 0.17,-0.14 0.22,-0.25 0.4,-0.28 0.13,0.05 0.52,0.44 0.77,0.62 -0.11,0.13 -0.23,0.28 -0.35,0.39 v 0.12 c 0.24,0.26 0.53,0.55 0.74,0.81 -0.14,0.16 -0.28,0.35 -0.45,0.47 -0.14,0.21 -0.28,0.44 -0.48,0.59 -0.13,0.25 -0.24,0.41 -0.51,0.34 0.03,0.47 -0.61,0.67 -0.9,1.15 0,0.16 0.03,0.23 -0.05,0.37 -0.11,0.07 -0.05,0.05 -0.17,0.06 -0.28,-0.21 -0.8,-0.81 -1.05,-1.09 -0.42,-0.46 -0.84,-0.91 -1.27,-1.37 -0.16,-0.14 -0.26,-0.19 -0.24,-0.41 0.12,-0.18 0.49,-0.4 0.69,-0.54 z"
         id="path113" />
      <path
         class="st14"
         d="m 2660.78,1194.96 c 0.23,0.26 0.51,0.55 0.73,0.81 -0.14,0.16 -0.28,0.35 -0.45,0.47 -0.14,0.21 -0.28,0.44 -0.48,0.59 -0.11,-0.27 -0.53,-0.43 -0.74,-0.75 l 0.06,-0.07 c 0.28,-0.38 0.59,-0.57 0.89,-1.05 z"
         id="path114" />
      <path
         class="st0"
         d="m 2659.89,1196.01 c 0.16,0.15 0.19,0.23 0.39,0.27 0.36,-0.09 0.28,-0.35 0.53,-0.43 0.21,0.15 0.08,0.2 0.25,0.39 -0.14,0.21 -0.28,0.44 -0.48,0.59 -0.11,-0.27 -0.53,-0.43 -0.74,-0.75 l 0.06,-0.07 z"
         id="path115" />
      <path
         class="st20"
         d="m 2656.63,1196.28 c -0.16,-0.14 -0.26,-0.19 -0.24,-0.41 0.12,-0.18 0.49,-0.4 0.69,-0.54 -0.13,0.41 -0.16,0.12 -0.28,0.38 0.2,0.22 0.39,0.44 0.61,0.63 v -0.05 c 0.05,-0.15 0.12,-0.33 0.28,-0.39 0.51,-0.19 1.08,0.46 1.27,0.88 0.1,0.22 -0.05,0.73 -0.24,0.89 0.06,-0.25 0.12,-0.48 0.19,-0.73 -0.15,-0.32 -0.19,-0.41 -0.42,-0.69 -0.31,0 -0.68,-0.06 -0.9,0.15 -0.07,0.4 0.98,1.09 1.22,1.64 l -0.05,0.02 c -0.42,-0.33 -1.65,-2.07 -2.02,-2.07 -0.08,0.13 -0.08,0.16 -0.12,0.3 z"
         id="path116" />
      <path
         class="st14"
         d="m 2658.5,1194.67 c 0.15,-0.19 0.23,-0.36 0.49,-0.36 l 0.25,0.28 c -0.14,0.16 -0.2,0.21 -0.36,0.35 -0.17,-0.05 -0.25,-0.15 -0.38,-0.28 z"
         id="path117" />
      <path
         class="st7"
         d="m 2659.83,1194.08 0.12,0.03 c -0.52,0.52 -0.57,0.57 -0.97,1.15 -0.09,-0.05 -0.17,-0.15 -0.24,-0.23 0.03,0 0.1,-0.05 0.13,-0.07 0.17,-0.14 0.22,-0.19 0.36,-0.35 0,-0.01 0.16,-0.17 0.18,-0.19 0.16,-0.1 0.3,-0.18 0.41,-0.33 z"
         id="path118" />
      <path
         class="st7"
         d="m 2659.76,1195.9 c 0.33,-0.31 0.67,-0.73 1.01,-1.06 v 0.12 c -0.29,0.48 -0.61,0.67 -0.88,1.05 l -0.06,0.07 -0.14,-0.12 0.08,-0.06 z"
         id="path119" />
      <path
         class="st20"
         d="m 2658.34,1194.68 c 0.21,-0.18 0.5,-0.58 0.76,-0.83 -0.04,0.15 -0.09,0.31 -0.12,0.46 -0.25,0 -0.34,0.17 -0.49,0.36 0.13,0.13 0.2,0.23 0.38,0.28 -0.03,0.02 -0.1,0.06 -0.13,0.07 -0.13,-0.08 -0.28,-0.23 -0.4,-0.34 z"
         id="path120" />
      <path
         class="st0"
         d="m 2659.1,1193.86 0.08,0.13 v 0.09 c 0.15,0.05 0.11,0.03 0.21,0.16 0,0.04 0.02,0.14 0.03,0.17 -0.02,0.02 -0.17,0.18 -0.18,0.19 l -0.25,-0.28 c 0.03,-0.15 0.08,-0.31 0.12,-0.46 z"
         id="path121" />
      <path
         class="st15"
         d="m 2659.68,1195.96 c -0.13,-0.12 -0.15,-0.15 -0.25,-0.3 l 0.02,-0.07 h -0.03 c 0.14,0.03 0.24,0.2 0.34,0.31 z"
         id="path122" />
    </g>
    <g
       id="g130">
      <path
         class="st3"
         d="m 2588.95,1152.46 c 0.62,0.55 1.25,1.68 1.24,2.54 v 43.44 c -0.11,1.54 -1.08,2.79 -2.52,3.29 l -68.55,0.1 c -1.96,-0.09 -3.31,-1.9 -3.39,-3.78 v -42.67 c 0.08,-1.99 1.54,-3.67 3.59,-3.78 h 67.49 c 0.74,0.03 1.61,0.37 2.15,0.85 z m -62.61,5.99 c -0.86,0.26 -1.77,1.05 -1.89,1.98 0.37,4.99 -0.46,10.61 0,15.53 0.14,1.49 0.92,2.3 2.42,2.42 5.52,0.47 11.68,-0.37 17.27,0 1.57,-0.24 2.12,-1.35 2.23,-2.81 0.37,-4.74 -0.3,-9.95 0,-14.74 -0.11,-1.04 -0.73,-1.99 -1.74,-2.33 l -18.28,-0.05 z m -0.01,29.66 c -0.93,0.21 -1.77,1.24 -1.89,2.18 -0.3,2.46 -0.05,4.66 2.82,4.95 1.66,0.17 5.12,0.17 6.78,0 1.45,-0.15 2.82,-0.83 3.01,-2.42 0.27,-2.28 0.09,-4.52 -2.61,-4.76 -1.45,-0.13 -6.88,-0.23 -8.11,0.05 z m 18.62,0 c -1.17,0.21 -1.95,1.43 -2.08,2.57 -0.26,2.25 0.26,4.28 2.81,4.56 1.58,0.17 5.81,0.19 7.35,-0.02 1.39,-0.19 2.47,-1.2 2.63,-2.6 0.24,-2.09 -0.16,-4.33 -2.61,-4.56 -1.64,-0.15 -6.6,-0.22 -8.1,0.05 z m 18.61,0 c -2.84,0.52 -2.82,5.87 -0.51,6.82 1.16,0.48 6.95,0.46 8.4,0.29 3.97,-0.47 3.63,-6.84 0.22,-7.16 -1.64,-0.15 -6.6,-0.22 -8.11,0.05 z"
         id="path123" />
      <g
         id="g127">
        <rect
           class="st3"
           x="2526"
           y="1159.95"
           width="9.5"
           height="9.5"
           id="rect123" />
        <path
           class="st3"
           d="m 2533.66,1171.01 h 10.86 c 0,0 0.29,0.27 0.29,0.29 v 4.85 c 0,0.05 -0.3,0.53 -0.39,0.58 -3.52,0.05 -7.12,0.22 -10.65,0.21 -0.16,0 -0.4,-0.07 -0.4,-0.21 v -5.43 c 0,-0.05 0.23,-0.19 0.29,-0.29 z"
           id="path124" />
        <path
           class="st3"
           d="m 2531.82,1176.82 h -5.33 c 0,0 -0.48,-0.45 -0.48,-0.48 v -5.33 h 5.53 c 0,0 0.29,0.27 0.29,0.29 v 5.53 z"
           id="path125" />
        <path
           class="st3"
           d="m 2544.81,1169.45 h -7.76 v -3.78 c 0,-0.43 0.45,-0.1 0.48,-0.1 h 6.79 c 0,0 0.48,-0.33 0.48,0.1 v 3.78 z"
           id="path126" />
        <path
           class="st3"
           d="m 2544.13,1159.95 c 0.23,0.04 0.68,0.46 0.68,0.68 v 3.2 h -7.76 v -3.88 c 2.13,0.25 5.04,-0.34 7.08,0 z"
           id="path127" />
      </g>
      <path
         class="st3"
         d="m 2490.06,1152.31 c 2.51,-2.24 6.23,0.24 5.09,3.36 -0.33,0.92 -1.7,2.09 -2.35,2.9 -9.86,12.23 -8.35,24.62 0.69,36.73 0.56,0.75 1.53,1.56 1.77,2.48 0.77,2.85 -2.14,5.11 -4.64,3.55 -1.07,-0.67 -3.32,-3.92 -4.11,-5.1 -9.14,-13.72 -9.16,-28.63 1.43,-41.53 0.58,-0.71 1.46,-1.81 2.11,-2.39 z"
         id="path128" />
      <path
         class="st3"
         d="m 2490.35,1178.04 c -0.44,-6.3 1.63,-11.85 5.52,-16.7 0.71,-0.89 2.27,-2.79 3.31,-3.13 2.31,-0.76 4.51,1.18 4.07,3.57 -0.23,1.23 -1.65,2.36 -2.43,3.32 -5.68,7.05 -5.54,14.59 -0.68,22.06 1.41,2.16 5.13,5.12 2.16,7.64 -2.24,1.9 -4.05,0.15 -5.45,-1.59 -3.3,-4.09 -6.14,-9.88 -6.51,-15.18 z"
         id="path129" />
      <path
         class="st3"
         d="m 2500.75,1177.35 c -0.24,-3.52 1.43,-8.79 4.03,-11.26 1.66,-1.58 4.42,-1.01 5.17,1.17 0.74,2.15 -0.87,3.15 -1.78,4.79 -1.53,2.76 -1.56,5.44 -0.37,8.35 0.95,2.3 4.05,4.85 1.38,7.23 -4.67,4.18 -8.22,-7.15 -8.44,-10.28 z"
         id="path130" />
    </g>
    <g
       class="st2"
       id="g137"
       clip-path="url(#clipPath138)">
      <path
         class="st6"
         d="m 2692.7,1865.87 h -78.77 c 22.25,-29.29 16.56,-73.69 16.56,-109.07 0,-3.76 -1.47,-7.25 -1.89,-10.93 l 3.64,-68.67 -31.13,9.15 v -27.48 c 10.07,5.66 20.95,10.44 32.95,9.14 1.91,-21.56 11.07,-54.31 32.31,-63.86 21.45,-9.65 51.31,0.85 73.96,3.45 l -16.51,36.62 c -10.27,-10.73 -23.5,-31.01 -39.85,-32.69 -7.56,-0.77 -13.26,12.91 -13.26,18.95 v 37.55 c 16.42,1.17 30.02,0.03 43.97,-9.16 v 27.48 c -11.92,-8.79 -28.03,-10.69 -42.26,-10.21 -4.43,3.15 1.32,57.08 2.03,66 1.89,41.04 -8.02,88.86 18.24,123.73 z"
         id="path131" />
      <path
         class="st6"
         d="m 2839.25,1658.87 v 27.48 c -11.92,-8.79 -28.04,-10.69 -42.26,-10.21 -4.43,3.15 1.32,57.08 2.03,66 1.89,41.04 -8.01,88.86 18.24,123.73 h -78.77 c 27.71,-39.02 13.42,-95.07 14.58,-140.21 l 3.73,-48.46 -31.13,9.15 v -27.48 c 10.07,5.67 20.95,10.44 32.95,9.14 2.09,-25.21 14.08,-63.56 43.23,-67.6 19.08,-2.64 43.84,4.92 63.04,7.18 l -16.51,36.62 c -10.27,-10.73 -23.5,-31.01 -39.85,-32.69 -7.56,-0.77 -13.26,12.91 -13.26,18.95 v 37.55 c 16.42,1.17 30.02,0.03 43.97,-9.16 z"
         id="path132" />
      <path
         class="st6"
         d="m 2496.27,1685.01 c -109.28,13.26 -96.66,195.78 17.82,188.16 118.11,-7.9 105.33,-203.08 -17.82,-188.16 z m 5.92,44.39 c 0,-3.18 11,-4.47 12.82,0 -2.3,19.99 3.1,46.84 0,65.95 -0.12,0.85 -2.02,4.39 -3.1,4.64 l -9.71,-2.82 v -67.76 z m 54.78,60.34 c -8.06,61.75 -106.3,52.08 -96.74,-16.2 0.89,-6.65 9.23,-24.63 15.8,-26.44 4.72,-1.33 8.87,1.33 9.71,6.17 -12.66,15.4 -18.46,33.74 -5.52,51.27 23.34,31.52 76.63,4.39 60.79,-35.23 -2.1,-5.24 -16.85,-20.72 -4.88,-22.57 15.4,-2.42 22.41,31.04 20.84,43.01 z"
         id="path133" />
      <path
         class="st6"
         d="m 1738.3,1867.7 h -43.96 c 3.13,-7.79 0.78,-14.2 -0.91,-21.99 -11.78,-54.2 -42.51,-134.75 -63.66,-187.3 -3.12,-7.74 -7.87,-21.95 -11.9,-28.34 -1.18,-1.87 0.11,-3.21 -4.11,-2.34 -10.25,79.5 -7.75,163.42 9.14,241.81 h -62.28 l 3.75,-66.78 c -0.53,-66.35 1.66,-132.74 -3.75,-198.85 h 61.37 c 25.98,65.8 44.77,135.31 75.71,199.08 1.89,3.9 3.57,9.5 7.62,11.58 l 78.79,-210.66 h 62.28 c -2.1,6.78 -4.91,13.07 -6.48,20.09 -3.56,15.99 -5.65,37.58 -6.42,54.03 -2.94,63 2.13,129.94 14.73,191.51 h -62.28 l 3.74,-57.63 c 0.87,-59.65 2.2,-119.01 -1.93,-178.68 -4.77,4.29 -6.86,13.13 -9.18,19.2 -21.26,55.81 -40.72,112.44 -59.97,169 -2.26,14.27 3.18,29.12 12.36,39.88 2.65,3.1 6.34,3.4 7.34,6.4 z"
         id="path134" />
      <path
         class="st6"
         d="m 2245.73,1686.35 v -27.48 c 9.74,5.1 19.56,10.83 31.13,9.15 -3.02,-20.89 -0.43,-43.05 -12.37,-61.8 -2.28,-3.59 -5.3,-3 -5.94,-5.97 h 78.77 c -12.99,16.1 -17.07,37.44 -18.32,57.74 -0.22,3.63 -1.32,11.78 4.13,11.52 13.4,-0.65 23.99,-3.67 36.17,-8.8 v 25.65 c -4.32,-2.21 -8.54,-4.52 -13.23,-6.01 -4.78,-1.52 -25.26,-7.93 -26.93,-2 2.25,11.28 2.11,23.12 1.77,34.65 -0.85,28.83 -5.38,114.81 6.88,137.66 9.85,18.35 30.89,-12.48 39.77,-19.57 l 24.69,-32.99 3.79,51.91 c -39.18,15.31 -78.21,31.33 -100.64,-16.42 -21.1,-44.91 -17.51,-107.76 -18.54,-156.41 -2.6,-2.55 -26.91,6.69 -31.14,9.17 z"
         id="path135" />
      <path
         class="st6"
         d="m 2164.69,1865.52 c -27.17,-3.99 -40.27,-57.44 -41.68,-80.26 18.14,19.99 53.09,17.01 76.87,10.08 64.49,-18.78 65.06,-92.59 -1.73,-106.29 -126.45,-26 -168.73,134.91 -69.61,175.87 40.31,16.65 76.79,5.56 113.35,-13.91 l -12.66,-45.59 c -9.03,18.18 -42.61,63.37 -64.53,60.1 z m -41.48,-104.8 c 1.61,-18.99 19.03,-58.73 39.62,-62.96 33.25,-6.81 44.5,39.14 22.49,62.84 -14.11,15.16 -65.14,35.87 -62.12,0.12 z"
         id="path136" />
      <path
         class="st6"
         d="m 1947.42,1855.48 c -13.34,-13.79 -23.06,-44.86 -24.15,-63.77 -0.12,-1.98 -1.21,-6.93 1.85,-6.41 2.66,10.16 20.64,13.83 30.19,14.67 37.12,3.27 92.71,-13.75 92.03,-59.09 -0.85,-57.04 -79.57,-63.53 -119.8,-45.75 -63,27.97 -72.96,116.49 -18.7,158.66 40.55,31.64 91.66,19.27 133.5,-2.7 l -11.85,-45.67 c -16.97,21.08 -51.07,83.04 -83.08,50.06 z m -19.99,-114.68 c 4.23,-13.06 19.43,-39.79 33.82,-43.05 26.93,-6.17 40.15,23.5 33.62,46.36 -4.64,16.33 -28.74,33.34 -45.15,35.51 -33.3,4.43 -30.19,-14.11 -22.29,-38.82 z"
         id="path137" />
    </g>
  </g>
</svg>
