<?xml version="1.0" encoding="utf-8"?>
<svg xmlns="http://www.w3.org/2000/svg" viewBox="195.11 1442 1306.4799 857.7219" width="1306.48px" height="857.722px" preserveAspectRatio="none"><defs><linearGradient id="Gold" x1="674.24" y1="1862.73" x2="1541.66" y2="2651.71" gradientTransform="translate(-419.06 -117.61)" gradientUnits="userSpaceOnUse"><stop offset="0" stop-color="#e5be50"/><stop offset="0.25" stop-color="#faf7c8"/><stop offset="0.32" stop-color="#eee7b6"/><stop offset="0.44" stop-color="#d1bf8a"/><stop offset="0.6" stop-color="#a8874a"/><stop offset="0.87" stop-color="#ddca84"/><stop offset="1" stop-color="#faf7c8"/></linearGradient><style>
      .st0 {
        fill: #efe32d;
      }

      .st1 {
        opacity: .11;
      }

      .st2 {
        opacity: .09;
      }

      .st3 {
        fill: #fff;
      }

      .st4 {
        fill: url(#Gold3);
      }

      .st5 {
        fill: none;
      }

      .st6 {
        fill: #ddd;
      }

      .st7 {
        fill: #8f521e;
      }

      .st8 {
        fill: #282828;
      }

      .st9 {
        fill: #e0cb26;
      }

      .st10 {
        fill: #a2631c;
      }

      .st11 {
        fill: #90371d;
      }

      .st12 {
        fill: url(#Gold);
      }

      .st13 {
        fill: #c2395b;
      }

      .st14 {
        fill: #eae43a;
      }

      .st15 {
        fill: #c79a1c;
      }

      .st16 {
        fill: #f3f2f2;
      }

      .st17 {
        fill: url(#Gold1);
      }

      .st18 {
        fill: url(#Gold2);
      }

      .st19 {
        fill: #22655b;
      }

      .st20 {
        fill: #d0b322;
      }
    </style></defs><g id="object-3" transform="matrix(1, 0, 0, 1, 5.684341886080802e-14, 0)"><rect class="st19" x="195.11" y="1442" width="1279.12" height="850.96" rx="114.7" ry="114.7"/><g><rect class="st12" x="290.05" y="1784.91" width="139.48" height="110.71" rx="4.97" ry="4.97"/><rect class="st8" x="275.35" y="1839.46" width="110.71" height="1.61" transform="translate(2170.97 1509.57) rotate(90)"/><rect class="st8" x="333.52" y="1839.46" width="110.71" height="1.61" transform="translate(2229.14 1451.39) rotate(90)"/><rect class="st8" x="290.05" y="1814.79" width="39.85" height="1.61"/><rect class="st8" x="290.05" y="1839.46" width="39.85" height="1.61"/><rect class="st8" x="290.05" y="1864.13" width="39.85" height="1.61"/><rect class="st8" x="389.68" y="1814.79" width="39.85" height="1.61"/><rect class="st8" x="389.68" y="1839.46" width="39.85" height="1.61"/><rect class="st8" x="389.68" y="1864.13" width="39.85" height="1.61"/></g><path class="st3" d="M614.12,1848.94c-.44,2.92-.85,5.58-.52,7.95-.09-2.39.08-5.03.52-7.95ZM664.5,1781.12c-7.48,2.39-12.6,6.98-18.27,12.13-25.58-29.1-71.87-10.14-67.93,29.29,1.67,16.69,16.84,27.15,27.36,38.42.19-3.1-.44-6.18-.27-9.3.82-14.57,10.62-28.8,23.87-34.77,30.33-13.66,62.67,11.74,57.67,44.08,8.53-8.99,20.25-17.3,25-29.09,12.32-30.55-16.11-60.78-47.42-50.75ZM695.03,1834.28c.83-2.28,2.39-4.27,3.22-6.55,6.02-16.5-3.57-30.8-19.7-34.92-.8-.2-1.4.49-1.16-.96,22.69-1.79,35.67,27.94,17.65,42.43ZM1041.09,1863.35h-20.5c5.79-7.62,4.31-19.17,4.31-28.38,0-.98-.38-1.89-.49-2.85l.95-17.87-8.1,2.38v-7.15c2.62,1.47,5.45,2.72,8.58,2.38.5-5.61,2.88-14.13,8.41-16.62,5.58-2.51,13.35.22,19.24.9l-4.3,9.53c-2.67-2.79-6.12-8.07-10.37-8.51-1.97-.2-3.45,3.36-3.45,4.93v9.77c4.27.31,7.81,0,11.44-2.38v7.15c-3.1-2.29-7.29-2.78-11-2.66-1.15.82.34,14.85.53,17.18.49,10.68-2.09,23.12,4.75,32.2ZM1079.22,1809.48v7.15c-3.1-2.29-7.3-2.78-11-2.66-1.15.82.34,14.85.53,17.18.49,10.68-2.09,23.12,4.75,32.2h-20.5c7.21-10.15,3.49-24.74,3.79-36.48l.97-12.61-8.1,2.38v-7.15c2.62,1.47,5.45,2.72,8.58,2.38.54-6.56,3.66-16.54,11.25-17.59,4.96-.69,11.41,1.28,16.4,1.87l-4.3,9.53c-2.67-2.79-6.11-8.07-10.37-8.51-1.97-.2-3.45,3.36-3.45,4.93v9.77c4.27.31,7.81,0,11.44-2.38ZM994.61,1865.25c30.74-2.06,27.4-52.84-4.64-48.96-28.44,3.46-25.16,50.94,4.64,48.96ZM991.51,1827.84c0-.83,2.86-1.16,3.33,0-.6,5.2.82,12.19,0,17.16-.03.22-.52,1.15-.8,1.21l-2.53-.74v-17.63ZM980.59,1839.32c.24-1.73,2.4-6.41,4.12-6.88,1.23-.35,2.31.35,2.53,1.6-3.3,4.01-4.81,8.78-1.45,13.34,6.08,8.2,19.94,1.15,15.82-9.16-.55-1.37-4.38-5.39-1.27-5.88,4.01-.63,5.83,8.08,5.42,11.19-2.09,16.07-27.66,13.56-25.17-4.21ZM792.74,1863.83h-11.44c.81-2.03.2-3.69-.24-5.72-3.06-14.1-11.06-35.06-16.57-48.74-.81-2.01-2.05-5.71-3.1-7.38-.31-.49.03-.83-1.07-.61-2.67,20.69-2.02,42.52,2.38,62.92h-16.21l.98-17.38c-.14-17.26.43-34.54-.98-51.74h15.97c6.76,17.12,11.65,35.21,19.7,51.8.49,1.01.93,2.47,1.98,3.01l20.5-54.82h16.21c-.55,1.76-1.28,3.4-1.68,5.23-.93,4.16-1.47,9.78-1.67,14.06-.77,16.39.55,33.81,3.83,49.83h-16.21l.97-15c.23-15.52.57-30.97-.5-46.5-1.24,1.12-1.79,3.42-2.39,5-5.53,14.52-10.6,29.26-15.6,43.98-.59,3.71.83,7.58,3.22,10.38.69.81,1.65.88,1.91,1.67ZM924.78,1816.64v-7.15c2.54,1.33,5.09,2.82,8.1,2.38-.79-5.44-.11-11.2-3.22-16.08-.59-.93-1.38-.78-1.54-1.55h20.5c-3.38,4.19-4.44,9.74-4.77,15.02-.06.94-.34,3.07,1.08,3,3.49-.17,6.24-.96,9.41-2.29v6.67c-1.12-.58-2.22-1.18-3.44-1.56-1.24-.39-6.57-2.06-7.01-.52.59,2.94.55,6.01.46,9.02-.22,7.5-1.4,29.88,1.79,35.82,2.56,4.77,8.04-3.25,10.35-5.09l6.42-8.58.99,13.51c-10.2,3.98-20.35,8.15-26.19-4.27-5.49-11.69-4.56-28.04-4.82-40.7-.68-.66-7,1.74-8.1,2.39ZM912.39,1817.34c-32.9-6.77-43.9,35.1-18.12,45.76,10.5,4.34,19.99,1.45,29.49-3.61l-3.28-11.86c-2.36,4.73-11.09,16.48-16.8,15.63-7.07-1.04-10.48-14.94-10.84-20.88,4.71,5.2,13.81,4.43,20,2.62,16.78-4.89,16.92-24.09-.46-27.66ZM909.06,1835.96c-3.68,3.94-16.95,9.33-16.17.03.42-4.95,4.95-15.29,10.31-16.39,8.66-1.78,11.58,10.18,5.86,16.36ZM871.85,1859.5l-3.08-11.88c-4.42,5.48-13.29,21.61-21.62,13.03-3.47-3.58-6-11.68-6.29-16.59-.03-.52-.31-1.81.49-1.67.69,2.64,5.37,3.6,7.86,3.82,9.66.85,24.12-3.58,23.95-15.38-.22-14.83-20.71-16.53-31.18-11.9-16.39,7.28-18.98,30.31-4.87,41.28,10.56,8.23,23.85,5.01,34.74-.71ZM841.95,1830.81c1.1-3.39,5.06-10.36,8.8-11.2,7.01-1.6,10.45,6.11,8.75,12.07-1.21,4.24-7.48,8.67-11.75,9.24-8.66,1.15-7.86-3.68-5.8-10.1ZM754.62,1877.21c-.47-.44-1.02-.79-1.64-1.03-.63-.24-1.31-.37-2.05-.37h-3.35v9.82h3.35c.74,0,1.42-.12,2.05-.36.63-.24,1.18-.58,1.64-1.02.46-.44.82-.96,1.08-1.56.26-.6.38-1.25.38-1.96s-.13-1.35-.38-1.95c-.26-.6-.62-1.12-1.09-1.56ZM754.51,1882.22c-.19.45-.46.85-.81,1.19-.35.34-.76.61-1.22.8-.46.19-.97.29-1.51.29h-2.13v-7.55h2.13c.54,0,1.05.1,1.51.29.46.19.87.46,1.22.8.35.34.62.74.81,1.2.19.46.29.95.29,1.49s-.1,1.04-.29,1.49ZM761.79,1884.53h5.92v1.11h-7.18v-9.82h7.13v1.11h-5.87v3.21h3.84v1.08h-3.84v3.31ZM778.42,1881c.49.43.73,1.03.73,1.8,0,.59-.16,1.11-.48,1.56s-.77.8-1.35,1.05c-.58.25-1.24.37-2,.37s-1.54-.15-2.26-.46c-.72-.31-1.35-.75-1.9-1.33l.8-.88c.51.53,1.06.93,1.62,1.19.56.26,1.16.39,1.79.39.5,0,.93-.07,1.31-.22.38-.15.67-.36.89-.64.22-.28.32-.59.32-.93,0-.48-.17-.84-.5-1.09-.33-.25-.88-.44-1.65-.56l-1.51-.25c-.93-.16-1.61-.44-2.06-.86-.44-.41-.67-.96-.67-1.66,0-.55.15-1.04.44-1.46.29-.42.71-.75,1.23-.98.53-.23,1.14-.34,1.85-.34s1.39.11,2.07.34c.68.23,1.29.55,1.84.98l-.72.97c-1.07-.81-2.15-1.22-3.26-1.22-.45,0-.84.07-1.18.2-.34.14-.6.32-.79.56-.19.24-.28.52-.28.85,0,.43.14.76.43.99.29.23.77.4,1.45.5l1.49.24c1.06.18,1.83.48,2.32.91ZM784.63,1884.51h5.77v1.12h-7.03v-9.82h1.26v8.7ZM794.71,1875.81h1.26v9.82h-1.26v-9.82ZM805.63,1880.43h4.7v.46c0,.69-.12,1.34-.37,1.93-.24.59-.58,1.11-1.01,1.56-.43.44-.94.79-1.52,1.04-.58.25-1.22.37-1.9.37s-1.38-.13-1.99-.39-1.16-.62-1.62-1.09c-.46-.46-.83-1-1.09-1.61-.26-.61-.39-1.27-.39-1.97s.13-1.36.39-1.97c.26-.61.62-1.15,1.08-1.61.46-.46,1-.83,1.62-1.09.62-.26,1.28-.39,1.99-.39.77,0,1.49.15,2.17.44s1.26.7,1.74,1.22l-.87.86c-.36-.43-.82-.76-1.35-1-.54-.23-1.1-.35-1.69-.35-.54,0-1.04.1-1.5.3-.46.2-.86.47-1.21.83-.35.36-.62.77-.81,1.24-.19.47-.29.98-.29,1.54s.1,1.06.29,1.54c.19.47.46.89.81,1.24.35.36.75.63,1.21.83.46.2.96.3,1.51.3.63,0,1.19-.13,1.7-.4.5-.27.92-.63,1.23-1.1.32-.47.51-1,.58-1.59h-3.41v-1.11ZM821.53,1875.81h1.26v5.66c0,.88-.17,1.64-.51,2.29-.34.65-.81,1.15-1.42,1.5-.61.36-1.34.53-2.18.53s-1.57-.18-2.19-.53-1.09-.85-1.42-1.5c-.33-.65-.5-1.42-.5-2.29v-5.66h1.26v5.66c0,.64.12,1.19.35,1.67.23.48.57.84,1,1.1.43.26.93.39,1.5.39s1.08-.13,1.51-.39c.43-.26.76-.63.99-1.1.23-.48.35-1.03.35-1.67v-5.66ZM828.75,1884.53h5.92v1.11h-7.18v-9.82h7.13v1.11h-5.87v3.21h3.84v1.08h-3.84v3.31ZM853.06,1877.12c-.47-.46-1.01-.82-1.62-1.08-.61-.26-1.28-.39-1.99-.39s-1.38.13-1.99.39c-.62.26-1.16.62-1.62,1.08-.46.46-.82,1-1.08,1.61-.26.61-.39,1.27-.39,1.99s.13,1.37.39,1.99c.26.61.62,1.15,1.08,1.61.46.46,1,.82,1.62,1.08.62.26,1.28.39,1.99.39s1.37-.13,1.99-.39c.61-.26,1.15-.62,1.62-1.08.47-.46.83-1,1.09-1.61.26-.61.39-1.27.39-1.99s-.13-1.37-.39-1.99c-.26-.61-.62-1.15-1.09-1.61ZM852.96,1882.26c-.2.47-.47.89-.81,1.24-.34.36-.74.63-1.2.83-.46.2-.96.3-1.5.3s-1.03-.1-1.49-.3c-.46-.2-.87-.47-1.21-.83-.35-.36-.62-.77-.81-1.24-.19-.47-.29-.98-.29-1.54s.1-1.08.29-1.54c.19-.47.46-.88.81-1.24.35-.36.75-.63,1.21-.83.46-.2.96-.3,1.49-.3s1.04.1,1.5.3c.46.2.86.47,1.2.83.34.36.61.77.81,1.24s.29.98.29,1.54-.1,1.06-.29,1.54ZM867.82,1875.81l-4.06,9.82h1.31l1.21-2.99h4.52l1.19,2.99h1.37l-4.04-9.82h-1.5ZM866.7,1881.58l1.84-4.59,1.84,4.59h-3.68ZM883.31,1876.17c-.48-.24-1.04-.36-1.68-.36h-4.39v9.82h1.26v-4.06h3.13c.64,0,1.2-.12,1.68-.36.48-.24.86-.58,1.12-1.01.27-.43.4-.94.4-1.52s-.13-1.07-.4-1.51c-.27-.44-.64-.77-1.12-1.01ZM883.01,1880.02c-.37.32-.87.48-1.49.48h-3.02v-3.56h3.02c.63,0,1.12.16,1.49.48.37.32.55.75.55,1.29s-.19.99-.55,1.31ZM895.3,1876.17c-.48-.24-1.04-.36-1.68-.36h-4.39v9.82h1.26v-4.06h3.13c.64,0,1.2-.12,1.68-.36.48-.24.86-.58,1.12-1.01.27-.43.4-.94.4-1.52s-.13-1.07-.4-1.51c-.27-.44-.64-.77-1.11-1.01ZM894.99,1880.02c-.37.32-.87.48-1.49.48h-3.02v-3.56h3.02c.63,0,1.12.16,1.49.48.37.32.55.75.55,1.29s-.19.99-.55,1.31ZM899.3,1884.5h1.29l-1.19,3.1h-.94l.84-3.1ZM918.39,1875.81h1.29l-4.08,9.82h-1.5l-4.01-9.82h1.36l3.44,8.6,3.51-8.6ZM923.56,1875.81h1.26v9.82h-1.26v-9.82ZM937.03,1875.81h1.29l-4.08,9.82h-1.5l-4.01-9.82h1.36l3.44,8.6,3.51-8.6ZM943.63,1875.81l-4.06,9.82h1.31l1.21-2.99h4.52l1.19,2.99h1.38l-4.04-9.82h-1.5ZM942.5,1881.58l1.84-4.59,1.84,4.59h-3.68ZM967.08,1877.12c-.47-.46-1.01-.82-1.62-1.08-.61-.26-1.28-.39-1.99-.39s-1.38.13-1.99.39c-.62.26-1.16.62-1.62,1.08-.46.46-.82,1-1.08,1.61-.26.61-.38,1.27-.38,1.99s.13,1.37.38,1.99c.26.61.62,1.15,1.08,1.61.46.46,1,.82,1.62,1.08.62.26,1.28.39,1.99.39s1.37-.13,1.99-.39c.61-.26,1.15-.62,1.62-1.08.47-.46.83-1,1.09-1.61.26-.61.39-1.27.39-1.99s-.13-1.37-.39-1.99c-.26-.61-.62-1.15-1.09-1.61ZM966.98,1882.26c-.2.47-.47.89-.81,1.24-.34.36-.74.63-1.2.83-.46.2-.96.3-1.5.3s-1.03-.1-1.49-.3c-.46-.2-.87-.47-1.21-.83-.35-.36-.62-.77-.81-1.24-.19-.47-.29-.98-.29-1.54s.1-1.08.29-1.54.46-.88.81-1.24c.35-.36.75-.63,1.21-.83.46-.2.96-.3,1.49-.3s1.04.1,1.5.3c.46.2.86.47,1.2.83.34.36.61.77.81,1.24.2.47.29.98.29,1.54s-.1,1.06-.29,1.54ZM980.04,1884.53h5.92v1.11h-7.18v-9.82h7.13v1.11h-5.87v3.21h3.84v1.08h-3.84v3.31ZM997.27,1875.81h1.19v9.82h-1.11l-5.84-7.87v7.87h-1.21v-9.82h1.25l5.71,7.66v-7.66ZM1004.48,1879.18c-.19.47-.29.98-.29,1.54s.1,1.06.29,1.54c.19.47.46.89.81,1.24.35.36.76.63,1.24.83.47.2.98.3,1.54.3.59,0,1.15-.12,1.68-.35s.98-.56,1.35-.98l.83.84c-.33.35-.7.64-1.11.89-.41.25-.85.44-1.33.57-.47.13-.96.2-1.47.2-.71,0-1.38-.13-2-.39-.62-.26-1.17-.62-1.64-1.08-.47-.46-.83-1-1.09-1.61-.26-.61-.39-1.27-.39-1.99s.13-1.37.39-1.99c.26-.61.62-1.15,1.09-1.61.47-.46,1.01-.82,1.64-1.08.62-.26,1.29-.39,2-.39.52,0,1.02.07,1.5.2.48.13.92.32,1.33.56.41.24.78.54,1.09.9l-.84.87c-.37-.44-.83-.78-1.37-1.01-.54-.23-1.11-.35-1.71-.35-.54,0-1.05.1-1.52.3-.47.2-.87.47-1.22.83-.35.36-.62.77-.81,1.24ZM1024.32,1877.12c-.47-.46-1.01-.82-1.62-1.08-.61-.26-1.28-.39-1.99-.39s-1.38.13-1.99.39c-.62.26-1.16.62-1.62,1.08-.46.46-.82,1-1.08,1.61-.26.61-.39,1.27-.39,1.99s.13,1.37.39,1.99c.26.61.62,1.15,1.08,1.61.46.46,1,.82,1.62,1.08.62.26,1.28.39,1.99.39s1.37-.13,1.99-.39c.61-.26,1.15-.62,1.62-1.08.47-.46.83-1,1.09-1.61.26-.61.39-1.27.39-1.99s-.13-1.37-.39-1.99c-.26-.61-.62-1.15-1.09-1.61ZM1024.22,1882.26c-.2.47-.47.89-.81,1.24-.34.36-.74.63-1.2.83-.46.2-.96.3-1.5.3s-1.03-.1-1.49-.3c-.46-.2-.87-.47-1.21-.83-.35-.36-.62-.77-.81-1.24-.19-.47-.29-.98-.29-1.54s.1-1.08.29-1.54.46-.88.81-1.24c.35-.36.75-.63,1.21-.83.46-.2.96-.3,1.49-.3s1.04.1,1.5.3c.46.2.86.47,1.2.83.34.36.61.77.81,1.24s.29.98.29,1.54-.1,1.06-.29,1.54ZM1037.2,1875.81h1.19v9.82h-1.11l-5.84-7.87v7.87h-1.21v-9.82h1.25l5.71,7.66v-7.66ZM1042.47,1875.81h8.28v1.12h-3.51v8.7h-1.26v-8.7h-3.51v-1.12ZM1061.84,1880.34c.37-.46.56-1.02.56-1.66,0-.58-.14-1.08-.41-1.51-.27-.43-.65-.76-1.13-1-.48-.24-1.05-.36-1.71-.36h-4.32v9.82h1.26v-4.14h2.97l2.06,4.14h1.4l-2.2-4.31c.63-.2,1.13-.53,1.5-.99ZM1056.1,1880.44v-3.51h2.97c.63,0,1.13.16,1.5.48.37.32.56.74.56,1.26s-.19.97-.56,1.29c-.37.32-.87.48-1.5.48h-2.97ZM1075.05,1877.12c-.47-.46-1.01-.82-1.62-1.08-.61-.26-1.28-.39-1.99-.39s-1.38.13-1.99.39c-.62.26-1.16.62-1.62,1.08-.46.46-.82,1-1.08,1.61-.26.61-.39,1.27-.39,1.99s.13,1.37.39,1.99c.26.61.62,1.15,1.08,1.61.46.46,1,.82,1.62,1.08.62.26,1.28.39,1.99.39s1.37-.13,1.99-.39c.61-.26,1.15-.62,1.62-1.08.47-.46.83-1,1.09-1.61.26-.61.39-1.27.39-1.99s-.13-1.37-.39-1.99c-.26-.61-.62-1.15-1.09-1.61ZM1074.95,1882.26c-.2.47-.47.89-.81,1.24-.34.36-.74.63-1.2.83-.46.2-.96.3-1.5.3s-1.03-.1-1.49-.3c-.46-.2-.87-.47-1.21-.83-.35-.36-.62-.77-.81-1.24-.19-.47-.29-.98-.29-1.54s.1-1.08.29-1.54c.19-.47.46-.88.81-1.24.35-.36.75-.63,1.21-.83.46-.2.96-.3,1.49-.3s1.04.1,1.5.3c.46.2.86.47,1.2.83.34.36.61.77.81,1.24.2.47.29.98.29,1.54s-.1,1.06-.29,1.54ZM1081.63,1884.37c.16.16.24.35.24.56s-.08.4-.24.56c-.16.16-.34.24-.56.24s-.4-.08-.56-.24c-.16-.16-.24-.35-.24-.56s.08-.4.24-.56c.16-.16.35-.24.56-.24s.4.08.56.24ZM643.44,1821.14c-14.74,1.27-27.11,12.78-29.32,27.39-.44,2.92-.61,5.56-.52,7.95.06.5.14,1.01.24,1.51,1.41,8.66,4.01,13.15,8.83,18.07l23.9,23.55c10.56-12.4,29.26-23.35,32.12-40.37.05-.28.09-.58.13-.86,2.99-20.8-14.28-39.06-35.37-37.24ZM646.41,1859.92c-5.25,0-9.51-4.24-9.51-9.49s4.26-9.49,9.51-9.49,9.49,4.24,9.49,9.49-4.26,9.49-9.49,9.49Z"/><g><line class="st5" x1="1290.87" y1="1574.72" x2="1290.84" y2="1574.41"/><line class="st5" x1="1313.94" y1="1574.51" x2="1313.76" y2="1574.51"/><path class="st16" d="M1259.23,1598.51c.03-.81.45-2.3.7-3.08,1.11-3.37,2.75-6.07,5.35-8.49,3.99-3.77,9.34-5.76,14.82-5.52,5.48.21,10.71,2.57,14.58,6.6,2.49,2.59,4.88,7.12,5.16,10.88,0,.01,0,.03,0,.04.13.7.17,2.18.06,2.89-.07-.52-.13-1.02-.22-1.54-.32-1.41-.51-2.04-1.01-3.4-.22-.46-.39-.85-.58-1.32l-.02-.04c-.67-1.07-1.09-2.11-1.88-3.18-9.34-12.6-28.52-11.12-35.31,3.2-.6,1.27-1,2.46-1.4,3.8l-.18-.11c-.11-.16-.07-.5-.07-.73Z"/><path class="st16" d="M1329.24,1589.85v-11.29c0-1.43-.45-2.51-1.46-3.52-.52-.52-1.64-1.11-2.37-1.22-1.25-.1-2.72-.07-4.01-.07h-20.49c-2.13,0-4.29-.03-6.41.03-.63-1.01-3.76-6.06-4.49-6.58-.31-.21-.98-.21-1.32-.24-1.46-.03-2.96,0-4.39,0h-13.41c-1.08,0-2.37-.07-3.41.14-.59.1-1.46,1.78-1.81,2.3-.94,1.43-1.92,2.86-2.82,4.32-1.36.1-3.14.03-4.49.03h-8.22c-1.85,0-2.86.07-4.32,1.43-.63.59-1.29,1.78-1.39,2.65-.14,1.39-.1,3.07-.1,4.49l.03,8.26-.03,29.02c0,2.44,1.57,4.81,3.97,5.26,1.46.24,4.04.07,5.61.07,3.97,0,7.98,0,11.95-.03-.91-.8-1.88-1.53-2.79-2.37-8.68-8.15-10.28-20.9-4.63-31.29,3.07-5.68,8.26-9.93,14.46-11.78,6.34-1.88,12.89-.84,18.57,2.51.63.35,1.25.87,1.88,1.22l.07.03c3.41,2.65,5.44,4.88,7.6,8.68,2.44,4.91,3.52,9.51,2.86,15.02-.66,5.71-3.21,11.04-7.25,15.12-1.01,1.05-2.23,1.99-3.38,2.89,10.28-.14,20.66.07,30.9,0,1.5,0,2.65-.38,3.73-1.5.7-.73,1.18-1.67,1.32-2.68.1-.98.03-3.45.03-4.53v-8.33l.03-18.05ZM1250.15,1620.68c-.14-.1-.28-.21-.38-.35-.98-.98-1.5-2.16-1.5-3.52-.07-.42-.07-2.13-.07-2.61-.03-2.06-.07-4.11-.07-6.17-.03-7.63.03-15.23.21-22.86.1-.35.07-1.25.17-1.46,0,.49.03.87.1,1.32.1,3.52.17,7.04.21,10.56v2.86c0,.31,0,1.18.03,1.46-.1,2.02.03,4.25-.03,6.27-.03.63.03,1.64-.03,2.19,0,1.6,0,3.17-.03,4.77-.03,1.11-.03,2.26-.07,3.38-.03,1.64.42,2.93,1.67,4.04l-.21.1ZM1290.04,1574.06l-.24-.35c-.42-.59-1.95-2.89-2.68-2.96-.94-.14-2.4-.07-3.38-.03-1.78.03-3.55.03-5.33.03s-3.66,0-5.47-.03c-.87-.03-1.81-.03-2.65,0-.28,0-.66.31-.91.49-.77,1.01-1.46,2.06-2.23,3.07l-.03-.31c.42-.52,1.08-1.85,1.53-2.54.17-.28.24-.35.45-.59l.21-.24c.35-.21.77-.42,1.15-.45,1.85-.07,3.76-.07,5.61-.07,2.54-.03,5.12-.03,7.66,0,4.74.1,4.04-.1,6.48,4.01h-.17ZM1324.95,1587.58c-.59,1.43-1.08,1.25-2.23,2.19-.35.24-.52.73-1.08,1.15.7.84.7,1.29.63,2.37-.03.73-.03,1.46-.17,2.19-.31.24-.52.38-.84.66.14.17.63.77.59,1.01-.07.56-.66,2.13-1.01,2.58-.14.17-1.43.07-1.74.07.77,1.11.73,1.64,1.32,2.61.35.07.7.1.87.42.45.91-.84,1.92-1.15,2.61-.14.28-.31,1.01-.38,1.32.28.49.56.91.91,1.32l.52.07c.56.42.1,1.05-.14,1.57-.24.1-.7.21-.98.28-.38,1.05-.94,1.43-1.25,2.26l.35.98c.1.45.31.98.21,1.43-.07.03-2.33,1.43-2.54,1.53-.49-.07-1.01-.49-1.39-.77-.91.03-1.57-.21-2.44,0-.63.14-1.25.84-1.78.49-.28-.45.14-1.18.38-1.64.56-.98.49-2.4.42-3.48,0-.24-.24-.59-.24-.87,0-.49.45-.94.52-1.43.07-.35-.03-.98-.24-1.25-.52-.31-.8.31-1.46.28-.45-.21-.21-1.11-.45-1.5-.31-.52-1.53-.24-1.29-1.15.38-1.32.7-2.61.8-3.97.03-.31.59-.52.84-.7.52-1.11.8-2.65,1.36-3.9-.45-1.78.87-3.62.98-5.44.1-2.06-.98-4.11-.91-6.06.84-1.08,2.19-1.53,3.45-2.02.21.03.59.28.7.45.31.49-.07,1.01-.17,1.5l.07.07c.63-.03,1.43-.45,1.99-.35,1.39.24,1.43,1.22,2.44-.49h.17c.84,0,2.47-.14,3.14.35.35.21-.14.98-.07,1.18.31,1.32,2.19-.07,1.32,2.06Z"/><path class="st16" d="M1312.42,1569.28c1.04-.09,8.08-.12,8.67.05.37.11.71.4.87.75.16.34.19.78.05,1.14-.19.5-.68.72-1.14.91-.9.11-8.03.16-8.54-.05-.42-.16-.79-.45-.95-.88-.13-.35-.09-.71.05-1.05.21-.47.52-.69.99-.87Z"/><path class="st16" d="M1334.18,1622.21l-.03-7.14c-.07-8.71-.17-17.39-.35-26.1.07-1.11-.03-3.76-.07-4.98,0-.14.03-.28-.03-.38-.1.45-.1.56-.07,1.01,0,.49-.07,1.5-.03,1.99-.28,9.09-.45,18.19-.59,27.28l-.1,7.42c0,1.25.03,2.79-.1,4.01-.21,1.71-2.23,3.48-3.9,3.62-.77.03-1.57.03-2.33.03h-3.38l-13.59.07c-11.15,0-22.3.07-33.45.24-4.08.1-8.4.1-12.44.28l-4.32.07c-.63.03-1.6.07-2.23.03-.49-.03-2.37.03-2.79.14.7.03,1.92.14,2.58.07,2.37,0,4.7.03,7.07.1,21.36.35,42.75.49,64.14.42,1.88,0,3.03-.56,4.39-1.88,1.95-1.88,1.64-3.83,1.64-6.31Z"/><path class="st16" d="M1291.85,1605.13v-12.79c-1.67-.03-3.38-.03-5.05,0-6.62.07-13.31-.1-19.93,0v17.7c0,1.32-.07,2.4.28,3.69.66,2.72,1.92,4.91,3.9,6.9,2.13,2.13,5.33,3.48,8.33,3.62.45,0,1.32-.14,1.78-.24,2.58-.56,4.95-1.81,6.83-3.62,2.47-2.44,3.9-5.33,3.9-8.85,0-2.13,0-4.29-.03-6.41ZM1286.76,1607.57c-.03,1.46.1,3.24-.21,4.67-.52,2.54-2.06,4.53-4.36,5.75-4.46,2.3-9.16-1.57-9.96-5.96-.28-1.57-.17-3.59-.17-5.19v-8.74c1.88,0,3.8.03,5.64,0h3.83c1.64.03,3.59,0,5.23,0,.03,3.17.03,6.31,0,9.48Z"/><path class="st16" d="M1281.29,1600.06h-3.6c0,.74-.05,3.03.11,3.6.09.32.25.61.49.84.77.77,1.71.63,2.47-.06.58-.69.54-1.22.54-2.09,0-.76,0-1.53,0-2.29ZM1280.29,1600.89c.14-.1.33-.09.44.04.12.12.12.31.02.44-.07.09-.18.13-.29.12-.11,0-.21-.07-.26-.17-.08-.15-.05-.33.09-.44ZM1278.7,1603.55c-.17.07-.37,0-.44-.18-.08-.17,0-.37.16-.45.11-.05.24-.04.35.03.1.07.16.19.14.32-.01.12-.09.23-.21.28ZM1278.74,1601.51c-.16.08-.36.01-.44-.15-.08-.16-.03-.36.13-.45.11-.06.24-.06.35,0,.11.06.17.18.16.31,0,.13-.08.24-.19.29ZM1279.72,1602.46c-.1.07-.23.07-.34.02s-.18-.17-.18-.29c0-.12.06-.23.17-.29.15-.09.35-.04.45.11.09.15.05.35-.1.45ZM1280.65,1603.52c-.11.06-.24.04-.34-.03-.1-.07-.15-.2-.13-.32.03-.15.16-.27.31-.28.16,0,.3.1.33.25.04.15-.03.31-.17.38Z"/><path class="st16" d="M1281.29,1605.85h-3.6c0,.74-.05,3.03.11,3.6.09.32.25.61.49.84.77.77,1.71.63,2.47-.06.58-.69.54-1.22.54-2.09,0-.76,0-1.53,0-2.29ZM1280.29,1606.68c.14-.1.33-.09.44.04.12.12.12.31.02.44-.07.09-.18.13-.29.12-.11,0-.21-.07-.26-.17-.08-.15-.05-.33.09-.44ZM1278.7,1609.34c-.17.07-.37,0-.44-.18-.08-.17,0-.37.16-.45.11-.05.24-.04.35.03.1.07.16.19.14.32-.01.12-.09.23-.21.28ZM1278.74,1607.29c-.16.08-.36.01-.44-.15-.08-.16-.03-.36.13-.45.11-.06.24-.06.35,0,.11.06.17.18.16.31,0,.13-.08.24-.19.29ZM1279.72,1608.24c-.1.07-.23.07-.34.02s-.18-.17-.18-.29c0-.12.06-.23.17-.29.15-.09.35-.04.45.11.09.15.05.35-.1.45ZM1280.65,1609.3c-.11.06-.24.04-.34-.03-.1-.07-.15-.2-.13-.32.03-.15.16-.27.31-.28.16,0,.3.1.33.25.04.15-.03.31-.17.38Z"/><path class="st16" d="M1281.29,1611.64h-3.6c0,.74-.05,3.03.11,3.6.09.32.25.61.49.84.77.77,1.71.63,2.47-.06.58-.69.54-1.22.54-2.09,0-.76,0-1.53,0-2.29ZM1280.29,1612.46c.14-.1.33-.09.44.04.12.12.12.31.02.44-.07.09-.18.13-.29.12-.11,0-.21-.07-.26-.17-.08-.15-.05-.33.09-.44ZM1278.69,1615.13c-.17.07-.37,0-.44-.18-.08-.17,0-.37.16-.45.11-.05.24-.04.35.03.1.07.16.19.14.32-.01.12-.09.23-.21.28ZM1278.74,1613.08c-.16.08-.36.01-.44-.15-.08-.16-.03-.36.13-.45.11-.06.24-.06.35,0,.11.06.17.18.16.31,0,.13-.08.24-.19.29ZM1279.72,1614.03c-.1.07-.23.07-.34.02s-.18-.17-.18-.29c0-.12.06-.23.17-.29.15-.09.35-.04.45.11.09.15.05.35-.1.45ZM1280.65,1615.09c-.11.06-.24.04-.34-.03-.1-.07-.15-.2-.13-.32.03-.15.16-.27.31-.28.16,0,.3.1.33.25.04.15-.03.31-.17.38Z"/><path class="st16" d="M1276.75,1605.81h-3.6c0,.74-.05,3.03.11,3.6.09.32.25.61.49.84.77.77,1.71.63,2.47-.06.58-.69.54-1.22.54-2.09,0-.76,0-1.53,0-2.29ZM1275.75,1606.64c.14-.1.33-.09.44.04.12.12.12.31.02.44-.07.09-.18.13-.29.12-.11,0-.21-.07-.26-.17-.08-.15-.05-.33.09-.44ZM1274.15,1609.3c-.17.07-.37,0-.44-.18-.08-.17,0-.37.16-.45.11-.05.24-.04.35.03.1.07.16.19.14.32-.01.12-.09.23-.21.28ZM1274.2,1607.25c-.16.08-.36.01-.44-.15-.08-.16-.03-.36.13-.45.11-.06.24-.06.35,0,.11.06.17.18.16.31,0,.13-.08.24-.19.29ZM1275.18,1608.2c-.1.07-.23.07-.34.02s-.18-.17-.18-.29c0-.12.06-.23.17-.29.15-.09.35-.04.45.11.09.15.05.35-.1.45ZM1276.1,1609.26c-.11.06-.24.04-.34-.03-.1-.07-.15-.2-.13-.32.03-.15.16-.27.31-.28.16,0,.3.1.33.25.04.15-.03.31-.17.38Z"/><path class="st16" d="M1285.56,1605.85h-3.6c0,.74-.05,3.03.11,3.6.09.32.25.61.49.84.77.77,1.71.63,2.47-.06.58-.69.54-1.22.54-2.09,0-.76,0-1.53,0-2.29ZM1284.56,1606.68c.14-.1.33-.09.44.04.12.12.12.31.02.44-.07.09-.18.13-.29.12-.11,0-.21-.07-.26-.17-.08-.15-.05-.33.09-.44ZM1282.97,1609.34c-.17.07-.37,0-.44-.18-.08-.17,0-.37.16-.45.11-.05.24-.04.35.03.1.07.16.19.14.32-.01.12-.09.23-.21.28ZM1283.01,1607.29c-.16.08-.36.01-.44-.15-.08-.16-.03-.36.13-.45.11-.06.24-.06.35,0,.11.06.17.18.16.31,0,.13-.08.24-.19.29ZM1283.99,1608.24c-.1.07-.23.07-.34.02s-.18-.17-.18-.29c0-.12.06-.23.17-.29.15-.09.35-.04.45.11.09.15.05.35-.1.45ZM1284.92,1609.3c-.11.06-.24.04-.34-.03-.1-.07-.15-.2-.13-.32.03-.15.16-.27.31-.28.16,0,.3.1.33.25.04.15-.03.31-.17.38Z"/><path class="st20" d="M1288.76,1604.46c0-.13-.04-.16.06-.25.3-.28.66-.34,1.04-.16h-.02c.14.1.23.13.28.27l-.04.17v.11c.21.15.69-.12.94,0l.1.14c.16.2.14.27.05.51l-.04.12s-.01.03-.02.09c0,.18-.02.66.05.8.09.02.13.02.2.1,0,.4-.2.16-.24.66,0,.36-.03.91.03,1.25.06.12.07.11.17.19l.06.04c.03.13.05.16,0,.28-.08.05-.21.08-.31.07-1.21-.05-2.43.05-3.63-.03-.09,0-.09-.04-.13-.11.02-.15.02-.15.11-.27l.15-.08c.13-.3.12-1.32.03-1.66-.02-.08-.09-.08-.18-.13l-.04-.25c.11-.04.13-.05.24-.11.09-.17.05-.43.06-.64.01-.4-.19-.36-.16-.67.1-.14.05-.09.23-.16l.07-.14c.3-.1.64.22.92,0v-.15Z"/><path class="st14" d="M1287.69,1606.72l2.1-.02c.36,0,.92-.03,1.26.02.07.07.06.17.08.29,0,.36-.03.91.03,1.25-.1,0-.18.02-.28.02-.39,0-1.99.04-2.27,0-.05-.14-.05-.07-.01-.21.24-.13.31-.14.25-.43v-.06c.26-.11.32-.14.55-.33l.05-.04c.38.33.64.87.82.98.32-.56-.47-.92-.85-1.22-.34.35-.68.45-.93.77-.01.25-.01.34.02.58h-.82c.02-.52.02-1.06,0-1.6Z"/><path class="st14" d="M1290.08,1604.5v.11c.21.15.69-.12.94,0l.1.14c.16.2.14.27.05.51l-.04.12s-.01.03-.02.09h-.03c0,.3.03.52-.08.79l-.07.04c-.19-.09-.21-.16-.28-.37-.08.12-.11.17-.17.3-.13.08-.18.06-.37.05-.05,0-.1-.01-.15-.02-.08-.14-.05-.39-.06-.58,0-.26.02-.52.03-.78v-.28s.14-.1.14-.1Z"/><path class="st0" d="M1290.06,1605.21c.33-.07.49-.06.83-.02l.07.1c-.26.14-.25.32-.3.62-.08.12-.11.17-.17.3-.13.08-.18.06-.37.05,0-.25,0-.82-.06-1.04Z"/><path class="st20" d="M1290.88,1605.19l.07.1h-.09c-.15.02-.19.04-.32-.02.1-.08.19-.06.34-.07Z"/><path class="st10" d="M1290.08,1604.5v.11c.21.15.69-.12.94,0l.1.14c-.33,0-.84-.09-1.06.1-.06.12-.03.23-.02.37.05.23.06.79.06,1.04-.05,0-.1-.01-.15-.02-.08-.14-.05-.39-.06-.58,0-.26.02-.52.03-.78v-.28s.14-.1.14-.1Z"/><path class="st14" d="M1287.43,1608.45c.7-.02,3.34-.11,3.9.01l.06.04c.03.13.05.16,0,.28-.08.05-.21.08-.31.07-1.21-.05-2.43.05-3.63-.03-.09,0-.09-.04-.13-.11.02-.15.02-.15.11-.27Z"/><path class="st14" d="M1288.92,1604.71c.26-.01.67-.05.91,0,.07.02.07.07.11.16-.01.26-.03.52-.03.78-.08.15,0,.31-.05.55-.11.07-.79-.01-.89-.07-.04-.2-.04-1.14-.05-1.43Z"/><path class="st14" d="M1287.39,1606.33c.58-.02,3.54-.09,3.88.08l.05.08c-.11.11-.24.1-.4.09-1.14-.04-2.35.07-3.49-.01l-.04-.25Z"/><path class="st14" d="M1287.76,1604.76c.33,0,.67-.01.99-.01,0,.18.02.28-.07.42-.26.16-.28-.06-.56.03-.15.19.18,1.04-.18,1.07-.12,0-.16-.04-.21-.11-.04-.2,0-.46-.04-.58.01-.4-.19-.36-.16-.67.1-.14.05-.09.23-.16Z"/><path class="st14" d="M1288.76,1604.46c0-.13-.04-.16.06-.25.3-.28.66-.34,1.04-.16h-.02c.14.1.23.13.28.27l-.04.17-.13.1c-.33-.01-.79-.05-1.1.01l-.09-.15Z"/><path class="st7" d="M1288.76,1604.46l.09.15c.04.26.11,1.44.02,1.64h-.08c-.2-.29.04-1.1-.04-1.51-.33,0-.67,0-.99.01l.07-.14c.3-.1.64.22.92,0v-.15Z"/><path class="st14" d="M1288.31,1605.29c.12,0,.24-.02.33.04.04.21.06.78-.03.97l-.22-.04c-.18-.19-.21-.78-.08-.97Z"/><path class="st15" d="M1288.17,1605.46c.11.12.07.68.01.83-.1-.12-.06-.68-.01-.83Z"/><path class="st14" d="M1268.7,1604.51c-.08-.62.98-.68,1.27-.25.05.07.03.09.02.19.02.18-.01.11.11.24.45.14.64-.24.82-.04.03.03.02.07.12.15.13.13.17.22.09.4-.12.14-.12.24-.14.42.01.22-.02.48.05.64.08.07.12.07.22.1,0,.11,0,.18-.04.28-.13.1-.13.07-.16.26-.05.36.04.87,0,1.21v.21c.08.04.14.08.21.11.04.16.07.22.03.36-.12.06-3.76.07-4.02.03-.08-.13-.05-.22-.02-.37l.24-.1c.11-.24.09-1.29.03-1.58-.02-.12-.08-.12-.19-.18-.05-.12-.05-.05,0-.2l.15-.08c.1-.14.07-.35.07-.54,0-.33.02-.34-.17-.56-.04-.36.19-.43.47-.6.05-.03.11,0,.15.02l-.07.1.03.03h.68s.11-.05.11-.05l-.08-.17Z"/><path class="st9" d="M1268.7,1604.51c-.08-.62.98-.68,1.27-.25.05.07.03.09.02.19.02.18-.01.11.11.24.45.14.64-.24.82-.04.03.03.02.07.12.15.13.13.17.22.09.4-.12.14-.12.24-.14.42.01.22-.02.48.05.64.08.07.12.07.22.1,0,.11,0,.18-.04.28-.52.04-3.46.03-3.88-.06-.05-.12-.05-.05,0-.2l.15-.08c.1-.14.07-.35.07-.54,0-.33.02-.34-.17-.56-.04-.36.19-.43.47-.6.05-.03.11,0,.15.02l-.07.1.03.03h.68s.11-.05.11-.05l-.08-.17Z"/><path class="st0" d="M1268.7,1604.51c-.08-.62.98-.68,1.27-.25.05.07.03.09.02.19-.04.08-.04.1-.1.17l-.02.41h-.03c-.01.44-.02.81,0,1.24h-.99c0-.18.03-.7-.05-.82,0-.14,0-.29,0-.42l-.03-.33-.08-.17Z"/><path class="st14" d="M1268.7,1604.51c-.08-.62.98-.68,1.27-.25.05.07.03.09.02.19-.04.08-.04.1-.1.17-.37-.04-.94.08-1.19-.1Z"/><path class="st15" d="M1268.7,1604.51c.25.18.82.06,1.19.1l-.02.41h-.03c0-.13.02-.18-.03-.31-.17-.02-.81-.04-.95.02l-.06.28-.03-.33-.08-.17Z"/><path class="st15" d="M1269.16,1605.02c.26.01.35.06.36.32-.09.15-.03.1-.18.17-.13-.02-.13-.03-.22-.11.14,0,.18,0,.3-.06v-.08s-.05-.05-.05-.05c-.14.03-.16.04-.3.02,0-.04.07-.16.09-.21Z"/><path class="st14" d="M1270,1604.45c.02.18-.01.11.11.24.45.14.64-.24.82-.04.03.03.02.07.12.15.13.13.17.22.09.4-.12.14-.12.24-.14.42-.1.15.04.46-.17.68-.11,0-.05,0-.15-.07-.06-.12-.05-.56-.06-.75l-.15.07-.02.09c0,.19.01.45-.08.59-.1.04-.21.02-.3-.04-.04.08,0,.05-.1.08-.12-.15-.08-.99-.08-1.23l.02-.41c.06-.06.06-.08.1-.17Z"/><path class="st0" d="M1270.49,1605.22l.1.02c.06.11.04.07.02.21l-.15.07-.02.09c0,.19.01.45-.08.59-.1.04-.21.02-.3-.04-.03-.26-.02-.64-.04-.93l.48-.02Z"/><path class="st7" d="M1270,1604.45c.02.18-.01.11.11.24.45.14.64-.24.82-.04.03.03.02.07.12.15-.31-.03-.79-.13-1.04.03-.07.12-.04.23-.03.37l.04.05c.02.29.01.67.04.93-.04.08,0,.05-.1.08-.12-.15-.08-.99-.08-1.23l.02-.41c.06-.06.06-.08.1-.17Z"/><path class="st14" d="M1267.35,1606.36c.68-.08,1.61-.04,2.3-.04.47,0,1.16-.02,1.61.02,0,.11,0,.18-.04.28-.52.04-3.46.03-3.88-.06-.05-.12-.05-.05,0-.2Z"/><path class="st14" d="M1267.4,1605.19c-.04-.36.19-.43.47-.6.05-.03.11,0,.15.02l-.07.1.03.03h.68c.03.21.03.26.01.47l-.02.06c-.19.19,0,.66-.1.96-.1.07-.08.04-.23.04-.14-.1-.12-.25-.14-.42.16-.18.19-.44.06-.64-.29.01-.56.03-.85,0Z"/><path class="st0" d="M1267.4,1605.19c.29.04.56.02.85,0,.13.21.1.46-.06.64-.03-.2.1-.15-.09-.34l-.07.07c-.05.27.15.44-.03.66-.14.04-.18.07-.31.04-.14-.2,0-.33-.12-.52,0-.33.02-.34-.17-.56Z"/><path class="st7" d="M1268.78,1604.69l.03.33c0,.14,0,.29,0,.42,0,.27.03.53-.08.77-.13-.15-.07-.74-.06-.96l.02-.06c.02-.21.02-.25-.01-.47l.11-.05Z"/><path class="st15" d="M1270.44,1605.62l.02-.09.15-.07c-.02.22-.02.54-.07.74-.1-.14-.07-.4-.1-.58Z"/><path class="st14" d="M1271.27,1608.4c.04.16.07.22.03.36-.12.06-3.76.07-4.02.03-.08-.13-.05-.22-.02-.37.17-.02.36-.02.53-.02,1.15,0,2.32.04,3.47,0Z"/><path class="st20" d="M1267.35,1606.56c.41.1,3.36.1,3.88.06-.13.1-.13.07-.16.26-.05.36.04.87,0,1.21-.07-.2-.05-1.11-.04-1.37h-3.41c.01.53,0,1.05,0,1.57h3.47c.06.04.13.08.2.11-1.15.05-2.32,0-3.47,0-.17,0-.37,0-.53.02l.24-.1c.11-.24.09-1.29.03-1.58-.02-.12-.08-.12-.19-.18Z"/><path class="st20" d="M1269.22,1607.09c.37-.01,1.36.57,1.04,1.03-.2-.02-.3-.36-.55-.6-.67-.69-.64.2-1.23.17.09-.23.54-.49.74-.61Z"/><path class="st14" d="M1268.65,1593.39c.24-.6,1.16-.64,1.46.01.11.15.13.14.32.17.28-.02.47-.06.69.12.08.17.05.23-.03.39-.11.2-.09.87-.05,1.08.07.04.04.04.1.04l.12.02c.07.11.08.2.03.33-.16.1-.14.05-.19.26-.06.24-.06,1.26.02,1.44.18.06.21.09.23.3-.03.06-.03.11-.09.12-.67.04-3.31.1-3.84.02-.09-.11-.09-.26.01-.37l.13-.07c.16-.23.06-.86.09-1.17l-.03-.13c-.06-.3-.04-.31-.3-.44,0-.09.04-.19.06-.28.07-.02.12-.04.2-.07.14-.24.13-1.01-.09-1.21v-.22c.08-.1.04-.07.21-.09l.06-.06c.15-.08.63-.06.87-.08v-.1Z"/><path class="st20" d="M1267.34,1595.5c1.03.09,2.89.07,3.95.04-.16.1-.14.05-.19.26-.06.24-.06,1.26.02,1.44.18.06.21.09.23.3-.03.06-.03.11-.09.12-.67.04-3.31.1-3.84.02-.09-.11-.09-.26.01-.37l.13-.07c.16-.23.06-.86.09-1.17l-.03-.13c-.06-.3-.04-.31-.3-.44Z"/><path class="st14" d="M1267.63,1595.93c0-.11,0-.23.06-.28,1.07-.04,2.24.01,3.35-.01-.02.52-.02.99-.01,1.51-.2,0-.57.02-.75-.03-.05-.18.13-.29,0-.5-.19-.31-.59-.46-.9-.62-.51.24-1,.39-.83,1.04-.13.16-.63.12-.85.12,0-.22.03-.92-.03-1.09l-.03-.13Z"/><path class="st14" d="M1271.12,1597.23c.18.06.21.09.23.3-.03.06-.03.11-.09.12-.67.04-3.31.1-3.84.02-.09-.11-.09-.26.01-.37.94-.13,2.65.04,3.68-.07Z"/><path class="st14" d="M1269.27,1596.16h.16c.23.15.64.67.6.94-.11.06-.43.04-.58.04h-.04c-1.23.03-.92-.54-.14-.98Z"/><path class="st14" d="M1268.65,1593.39c.24-.6,1.16-.64,1.46.01.11.15.13.14.32.17-.19.01-.32,0-.45.11-.02.18,0,.26.02.43,0,.2,0,.51.04.7,0,.12,0,.25.02.36h-.13s-.05-.08-.05-.08c-.17.07-.76.09-.96.02l-.06-.14-.02.25h-.18c-.02-.34-.02-.67-.02-.99.05-.23.09-.42-.06-.61-.22-.11-.57-.07-.81-.05.15-.08.63-.06.87-.08v-.1Z"/><path class="st0" d="M1268.65,1593.39c.24-.6,1.16-.64,1.46.01-.03.02-.18.14-.2.15-.18-.22-.99-.3-1.19-.15h-.07Z"/><path class="st10" d="M1268.65,1593.39h.07c.2.41.09,1.09.14,1.58l-.02.25h-.18c-.02-.34-.02-.67-.02-.99.05-.23.09-.42-.06-.61-.22-.11-.57-.07-.81-.05.15-.08.63-.06.87-.08v-.1Z"/><path class="st7" d="M1270.11,1593.4c.11.15.13.14.32.17-.19.01-.32,0-.45.11-.02.18,0,.26.02.43,0,.2,0,.51.04.7,0,.12,0,.25.02.36h-.13s-.05-.08-.05-.08c0-.42-.02-1.16.03-1.54.02,0,.17-.13.2-.15Z"/><path class="st20" d="M1269.34,1593.6c.13,0,.26,0,.37.06-.11.08-.17.06-.32.08-.17,0-.21-.01-.38-.06.07-.07.22-.07.33-.08Z"/><path class="st0" d="M1267.77,1593.57c.25-.02.59-.06.81.05.15.19.11.38.06.61-.2,0-.24-.03-.39.07-.18.28-.06.64.06.93l-.13.02c-.06,0-.12-.01-.18-.02.02-.31.21-.64-.03-.88-.15-.04-.08-.05-.21,0-.08.11-.05.69-.06.91l-.3-.04c.07-.02.12-.04.2-.07.14-.24.13-1.01-.09-1.21v-.22c.08-.1.04-.07.21-.09l.06-.06Z"/><path class="st14" d="M1267.5,1593.94v-.22c.08-.1.04-.07.21-.09.28.02.49.03.74.19v.07c-.16.09-.77.1-.95.05Z"/><path class="st14" d="M1270.43,1593.56c.28-.02.47-.06.69.12.08.17.05.23-.03.39-.31-.19-.76-.03-1.08.04-.02-.17-.04-.26-.02-.43.12-.12.26-.1.45-.11Z"/><path class="st0" d="M1270.04,1594.81c0-.21-.02-.46.06-.65.14-.12.26-.14.44-.12l.04.06c-.13.15-.22-.03-.28.13.06.08.09.09.18.15-.03.3-.04.59-.08.88l-.3-.03-.05-.06c0-.11-.01-.25-.02-.36Z"/><path class="st20" d="M1270,1594.11c.32-.07.77-.23,1.08-.04-.11.2-.09.87-.05,1.08.07.04.04.04.1.04l-.1.06-.07-.03c-.04-.34.07-.97-.09-1.16-.12-.04-.06-.04-.18,0-.17.25-.03.84-.11,1.13,0,.02-.13.06-.17.07.03-.29.04-.58.08-.88-.09-.06-.11-.06-.18-.15.06-.16.15.02.28-.13l-.04-.06c-.18-.02-.3,0-.44.12-.08.19-.05.43-.06.65-.04-.19-.04-.5-.04-.7Z"/><path class="st9" d="M1268.86,1594.97l.06.14c.21.07.8.05.96-.02l.05.08h.13s.05.07.05.07c-.38,0-.91.04-1.26-.01l.02-.25Z"/><path class="st9" d="M1278.85,1593.23c.2-.21.57-.38.84-.29.23.08.35.23.5.4l.03.11.07.14h.99s0,.05,0,.05c-.01.35-.26,1.38-.07,1.59l.16.03c.06.09.07.19,0,.29-.16.13-.12.06-.18.25-.01.3-.02.57-.01.87.01.19,0,.41.1.56l.13.06.04.1c-.03.19,0,.19-.1.29-1.13.09-2.68-.02-3.86.02-.05-.15-.02-.29,0-.45.11-.02.12-.01.22-.08.15-.25.08-.94.07-1.28-.1-.25-.02-.19-.2-.33l-.09-.08c0-.25.1-.24.3-.32.08-.58-.06-.7-.14-1.27-.02-.12.04-.2.11-.28.16-.07.35-.05.54-.04l.51-.03c.06-.08.05-.2.06-.31Z"/><path class="st14" d="M1277.77,1595.89c0-.12,0-.11.04-.22.29-.05,3.13-.04,3.33.03l.04.1c-.01.3-.02.57-.01.87.01.19,0,.41.1.56l.13.06.04.1c-.03.19,0,.19-.1.29-1.13.09-2.68-.02-3.86.02-.05-.15-.02-.29,0-.45.11-.02.12-.01.22-.08.15-.25.08-.94.07-1.28Z"/><path class="st14" d="M1277.48,1597.26h2.5c.42,0,1.03-.03,1.42.04l.04.1c-.03.19,0,.19-.1.29-1.13.09-2.68-.02-3.86.02-.05-.15-.02-.29,0-.45Z"/><path class="st9" d="M1278.54,1597.14c-.1-.79.43-.8.94-1.21.37.17,1.26.54.95,1.09h-.06c-.05-.05-.05-.03-.07-.1-.07.04-.04.02-.08.1-.25-.29-.29-.66-.64-.84-.07,0-.21,0-.25.06-.11.21-.39.23-.5.39.08.15.1.12.08.26l-.07.04-.13-.14-.06.02c-.02.17-.02.19.09.34h-.22Z"/><path class="st15" d="M1277.77,1595.89c.1.27.05.96.04,1.27.21,0,.54,0,.74-.02h.22c.76.03,1.62,0,2.39,0,0-.16,0-.32.02-.48.01.19,0,.41.1.56l.13.06c-.4-.06-1-.03-1.42-.03h-2.5c.11-.02.12-.02.22-.08.15-.25.08-.94.07-1.28Z"/><path class="st14" d="M1280.23,1593.45l.07.14h.99s0,.05,0,.05c-.01.35-.26,1.38-.07,1.59l.16.03c.06.09.07.19,0,.29-.16.13-.12.06-.18.25l-.04-.1c-.21-.07-3.04-.08-3.33-.03-.04.11-.03.1-.04.22-.1-.25-.02-.19-.2-.33l-.09-.08c.5-.52,1.8-.04,2.58-.27-.13-.21-.08-1.14-.06-1.43,0-.16.07-.18.17-.27l.06-.06Z"/><path class="st20" d="M1277.57,1595.57c1.21-.05,2.57,0,3.8-.01-.16.13-.12.06-.18.25l-.04-.1c-.21-.07-3.04-.08-3.33-.03-.04.11-.03.1-.04.22-.1-.25-.02-.19-.2-.33Z"/><path class="st7" d="M1280.23,1593.45l.07.14c-.1.06-.12.04-.14.14-.05.33.15,1.18.02,1.45l-.12.03c-.13-.21-.08-1.14-.06-1.43,0-.16.07-.18.17-.27l.06-.06Z"/><path class="st14" d="M1278.8,1593.54l-.04.79c-.08.29.02.61-.1.82-.11.06-.16.05-.28.06l-.12-.03c-.22-.01-.47-.03-.47-.37,0-.35.27-.43.58-.44.09-.29.01-.38-.18-.59l-.03-.03c.03-.13.01-.08.14-.18l.51-.03Z"/><path class="st15" d="M1278.3,1594.46c.08.28.08.46.07.75l-.12-.03c-.01-.19-.07-.58.04-.72Z"/><path class="st14" d="M1278.85,1593.23c.2-.21.57-.38.84-.29.23.08.35.23.5.4l.03.11-.06.06c-.4.02-.81.02-1.21.07l-.11-.35Z"/><path class="st11" d="M1278.85,1593.23l.11.35c0,.35.04,1.26-.01,1.56l-.06.05-.09-.02c-.06-.12-.04-.67-.04-.84l.04-.79c.06-.08.05-.2.06-.31Z"/><path class="st14" d="M1279.41,1593.65h.53c0,.32.03,1.23-.03,1.49-.11.07-.24.04-.38.02l-.5.02c0-.45-.03-1.01,0-1.45.08-.08.17-.04.33-.07h.06Z"/><path class="st15" d="M1279.45,1593.91c.2.17.2.35.03.54l-.11-.1c-.04-.17.03-.27.09-.44Z"/><path class="st14" d="M1288.72,1593.37v-.15c.42-.34.85-.54,1.27-.06.08.09.08.14.05.25.04.07.04.09.09.14.25-.01.72-.05.94.03.25.26-.01.61,0,.98,0,.21,0,.38.03.59.16.07.22.07.31.2-.02.14,0,.08-.09.19-.16.14-.11.07-.18.28-.04.44-.02.9-.02,1.34l.11.1.09.05c.02.15.02.15-.02.3-.25.18-3.01.03-3.51.08-.14.01-.32.01-.41-.09-.03-.15,0-.2.04-.36l.18-.05c.12-.13.09-.18.13-.37,0-.31.02-.58-.02-.89-.04-.26,0-.24-.17-.37-.14-.07-.1-.15-.11-.29.11-.05.22-.04.3-.12.03-.24.02-.8-.06-1.03-.16-.05-.22-.15-.17-.3.21-.21.29-.2.58-.23.2-.01.51.05.65-.07v-.12Z"/><path class="st14" d="M1287.71,1595.91c.01-.12,0-.2.06-.26.37-.03,3.04-.03,3.32.05l.05.11c-.04.44-.02.9-.02,1.34l.11.1.09.05c.02.15.02.15-.02.3-.25.18-3.01.03-3.51.08-.14.01-.32.01-.41-.09-.03-.15,0-.2.04-.36l.18-.05c.12-.13.09-.18.13-.37,0-.31.02-.58-.02-.89Z"/><path class="st14" d="M1287.73,1596.8c0,.19-.03.2.07.32.19.06.32.01.52.02h.37c.78-.01,1.64,0,2.43,0l.11.1.09.05c.02.15.02.15-.02.3-.25.18-3.01.03-3.51.08-.14.01-.32.01-.41-.09-.03-.15,0-.2.04-.36l.18-.05c.12-.13.09-.18.13-.37Z"/><path class="st15" d="M1287.73,1596.8c0,.19-.03.2.07.32.19.06.32.01.52.02h.37c.78-.01,1.64,0,2.43,0l.11.1c-1.25-.04-2.53.02-3.81-.03l.18-.05c.12-.13.09-.18.13-.37Z"/><path class="st9" d="M1289.4,1595.93c.35.17,1.26.58.94,1.08-.03.05,0,.03-.06.05-.02-.08,0-.1-.06-.15-.32-.27-.43-.52-.8-.76-.32.22-.46.31-.54.73-.01.07-.02.14-.03.21-.07.04-.07.04-.14.07h-.37c.3-.11.09-.27.17-.46.14-.31.63-.59.91-.77Z"/><path class="st14" d="M1288.72,1593.37v-.15c.42-.34.85-.54,1.27-.06.08.09.08.14.05.25.04.07.04.09.09.14-.08.17-.04.4-.03.6,0,.23.02.77-.02.97l-.05.04-.1-.03c-.06.04-.85,0-.99,0v-.81s0-.65,0-.65l-.04-.02c-.03-.18-.05-.17-.17-.28Z"/><path class="st7" d="M1289.95,1593.56l.09-.14c.04.07.04.09.09.14-.08.17-.04.4-.03.6,0,.23.02.77-.02.97l-.05.04-.1-.03c0-.31,0-.63-.01-.94v-.16c.03-.13.03-.33.03-.47Z"/><path class="st20" d="M1288.99,1593.66c.12-.21.73-.12.96-.11,0,.14,0,.34-.03.47-.01-.18.02-.24-.08-.37-.23-.11-.58-.03-.86,0Z"/><path class="st9" d="M1288.9,1593.65l.04.02v.65s0,.81,0,.81c.14,0,.93.03.99,0l.1.03.05-.04c.05-.2.03-.74.02-.97.08.13.05.79.05,1,.18,0,.21.03.33-.07.06-.17.07-.21.09-.39.09-.11.03-.09.14-.11l.05.02v.06c-.08.35-.08.28.14.53-.56.07-1.27-.02-1.78.05l-.28-.04c.08-.15.05-1.28.05-1.56Z"/><path class="st0" d="M1288.07,1593.57c.17,0,.52,0,.67.05-.19.02-.29.02-.48.02.08.05.17.09.26.14-.09.06-.09.04-.2.05-.14.39-.32.18-.65.27-.16-.05-.22-.15-.17-.3.21-.21.29-.2.58-.23Z"/><path class="st20" d="M1287.54,1595.54c.75.03,1.55.02,2.31.02.37,0,1.12.02,1.47-.03-.16.14-.11.07-.18.28l-.05-.11c-.28-.08-2.95-.08-3.32-.05-.07.06-.05.14-.06.26-.04-.26,0-.24-.17-.37Z"/><path class="st7" d="M1288.72,1593.37c.13.11.15.1.17.28,0,.27.03,1.4-.05,1.56-.04,0-.09-.02-.13-.03-.11-.34.03-1.09.02-1.51v-.05c-.14-.04-.5-.04-.67-.05.2-.01.51.05.65-.07v-.12Z"/><path class="st14" d="M1271.19,1616.07c.21-.22.76-.8.98-.96.48.8,1.54,2.06,2.32,2.59.11.09.2.14.24.26-.41.5-.93,1.02-1.38,1.5-.4.43-.86.97-1.27,1.36-.06-.09-.18-.28-.26-.35l.03-.11c-.19-.42-.99-1.22-1.35-1.63-.07.02-.05.01-.12,0-.08-.17-.1-.21-.22-.36l-.03-.03c-.16-.26-.31-.34-.56-.51.18-.25.5-.73.75-.85l.11-.16c-.12-.15-.26-.3-.37-.46.3-.22.58-.58.86-.57.15.08.16.12.26.27Z"/><path class="st20" d="M1272.51,1619.69c.36-.44,1.39-1.49,1.81-1.91l.1.02c-.5.59-2.04,2.3-2.59,2.68l.03-.11c.17-.14.46-.47.6-.64-.21-.23-.33-.5-.45-.79.14-.39.46-.89.89-.99.25-.06.42.14.63.27l-.05.09h-.07s-.13-.17-.17-.18c-.41-.09-.95.2-1.04.62-.08.4.12.63.31.94Z"/><path class="st0" d="M1270.49,1616.85c.1-.07.19-.14.29-.21.21.05.71.7.71.9-.15.19-.12.1-.11.35-.16-.33-.63-.72-.89-1.03Z"/><path class="st11" d="M1270.44,1616.83l.05.02c.26.32.73.71.89,1.03l-.04.07-.31-.22c-.23-.25-.46-.47-.69-.73l.11-.16Z"/><path class="st7" d="M1272.3,1617.12c-.07.03-.06.02-.14.04-.23-.24-.58-.57-.7-.87l.03-.03c.21.14.6.56.73.77l.07.08Z"/><path class="st0" d="M1271.61,1618.33l.04.07c-.02.17-.12.28-.22.43l-.04-.04c.02-.13.14-.33.22-.46Z"/><path class="st20" d="M1272.23,1617.04c.1-.08.21-.21.33-.22-.04.13-.16.21-.26.31l-.07-.08Z"/><path class="st14" d="M1284.93,1617.37c.62-.55,1.49-1.3,1.74-2.1.18-.02.47.23.62.34.25.23.17.32.38.51l.12.03c.17-.14.22-.25.4-.28.13.05.52.44.77.62-.11.13-.23.28-.35.39v.12c.24.26.53.55.74.81-.14.16-.28.35-.45.47-.14.21-.28.44-.48.59-.13.25-.24.41-.51.34.03.47-.61.67-.9,1.15,0,.16.03.23-.05.37-.11.07-.05.05-.17.06-.28-.21-.8-.81-1.05-1.09-.42-.46-.84-.91-1.27-1.37-.16-.14-.26-.19-.24-.41.12-.18.49-.4.69-.54Z"/><path class="st14" d="M1288.63,1617c.23.26.51.55.73.81-.14.16-.28.35-.45.47-.14.21-.28.44-.48.59-.11-.27-.53-.43-.74-.75l.06-.07c.28-.38.59-.57.89-1.05Z"/><path class="st0" d="M1287.73,1618.05c.16.15.19.23.39.27.36-.09.28-.35.53-.43.21.15.08.2.25.39-.14.21-.28.44-.48.59-.11-.27-.53-.43-.74-.75l.06-.07Z"/><path class="st20" d="M1284.48,1618.32c-.16-.14-.26-.19-.24-.41.12-.18.49-.4.69-.54-.13.41-.16.12-.28.38.2.22.39.44.61.63v-.05c.05-.15.12-.33.28-.39.51-.19,1.08.46,1.27.88.1.22-.05.73-.24.89.06-.25.12-.48.19-.73-.15-.32-.19-.41-.42-.69-.31,0-.68-.06-.9.15-.07.4.98,1.09,1.22,1.64l-.05.02c-.42-.33-1.65-2.07-2.02-2.07-.08.13-.08.16-.12.3Z"/><path class="st14" d="M1286.34,1616.71c.15-.19.23-.36.49-.36l.25.28c-.14.16-.2.21-.36.35-.17-.05-.25-.15-.38-.28Z"/><path class="st7" d="M1287.68,1616.12l.12.03c-.52.52-.57.57-.97,1.15-.09-.05-.17-.15-.24-.23.03,0,.1-.05.13-.07.17-.14.22-.19.36-.35,0-.01.16-.17.18-.19.16-.1.3-.18.41-.33Z"/><path class="st7" d="M1287.61,1617.94c.33-.31.67-.73,1.01-1.06v.12c-.29.48-.61.67-.88,1.05l-.06.07-.14-.12.08-.06Z"/><path class="st20" d="M1286.19,1616.72c.21-.18.5-.58.76-.83-.04.15-.09.31-.12.46-.25,0-.34.17-.49.36.13.13.2.23.38.28-.03.02-.1.06-.13.07-.13-.08-.28-.23-.4-.34Z"/><path class="st0" d="M1286.94,1615.9l.08.13v.09c.15.05.11.03.21.16,0,.04.02.14.03.17-.02.02-.17.18-.18.19l-.25-.28c.03-.15.08-.31.12-.46Z"/><path class="st15" d="M1287.53,1618c-.13-.12-.15-.15-.25-.3l.02-.07h-.03c.14.03.24.2.34.31l-.08.06Z"/></g><g><path class="st3" d="M1216.79,1574.5c.62.55,1.25,1.68,1.24,2.54v43.44c-.11,1.54-1.08,2.79-2.52,3.29l-68.55.1c-1.96-.09-3.31-1.9-3.39-3.78v-42.67c.08-1.99,1.54-3.67,3.59-3.78h67.49c.74.03,1.61.37,2.15.85ZM1154.18,1580.49c-.86.26-1.77,1.05-1.89,1.98.37,4.99-.46,10.61,0,15.53.14,1.49.92,2.3,2.42,2.42,5.52.47,11.68-.37,17.27,0,1.57-.24,2.12-1.35,2.23-2.81.37-4.74-.3-9.95,0-14.74-.11-1.04-.73-1.99-1.74-2.33l-18.28-.05ZM1154.18,1610.15c-.93.21-1.77,1.24-1.89,2.18-.3,2.46-.05,4.66,2.82,4.95,1.66.17,5.12.17,6.78,0,1.45-.15,2.82-.83,3.01-2.42.27-2.28.09-4.52-2.61-4.76-1.45-.13-6.88-.23-8.11.05ZM1172.8,1610.15c-1.17.21-1.95,1.43-2.08,2.57-.26,2.25.26,4.28,2.81,4.56,1.58.17,5.81.19,7.35-.02,1.39-.19,2.47-1.2,2.63-2.6.24-2.09-.16-4.33-2.61-4.56-1.64-.15-6.6-.22-8.1.05ZM1191.41,1610.15c-2.84.52-2.82,5.87-.51,6.82,1.16.48,6.95.46,8.4.29,3.97-.47,3.63-6.84.22-7.16-1.64-.15-6.6-.22-8.11.05Z"/><g><rect class="st3" x="1153.85" y="1581.99" width="9.5" height="9.5"/><path class="st3" d="M1161.51,1593.04h10.86s.29.27.29.29v4.85c0,.05-.3.53-.39.58-3.52.05-7.12.22-10.65.21-.16,0-.4-.07-.4-.21v-5.43c0-.05.23-.19.29-.29Z"/><path class="st3" d="M1159.66,1598.86h-5.33s-.48-.45-.48-.48v-5.33h5.53s.29.27.29.29v5.53Z"/><path class="st3" d="M1172.65,1591.49h-7.76v-3.78c0-.43.45-.1.48-.1h6.79s.48-.33.48.1v3.78Z"/><path class="st3" d="M1171.98,1581.99c.23.04.68.46.68.68v3.2h-7.76v-3.88c2.13.25,5.04-.34,7.08,0Z"/></g><path class="st3" d="M1117.91,1574.35c2.51-2.24,6.23.24,5.09,3.36-.33.92-1.7,2.09-2.35,2.9-9.86,12.23-8.35,24.62.69,36.73.56.75,1.53,1.56,1.77,2.48.77,2.85-2.14,5.11-4.64,3.55-1.07-.67-3.32-3.92-4.11-5.1-9.14-13.72-9.16-28.63,1.43-41.53.58-.71,1.46-1.81,2.11-2.39Z"/><path class="st3" d="M1118.2,1600.08c-.44-6.3,1.63-11.85,5.52-16.7.71-.89,2.27-2.79,3.31-3.13,2.31-.76,4.51,1.18,4.07,3.57-.23,1.23-1.65,2.36-2.43,3.32-5.68,7.05-5.54,14.59-.68,22.06,1.41,2.16,5.13,5.12,2.16,7.64-2.24,1.9-4.05.15-5.45-1.59-3.3-4.09-6.14-9.88-6.51-15.18Z"/><path class="st3" d="M1128.6,1599.38c-.24-3.52,1.43-8.79,4.03-11.26,1.66-1.58,4.42-1.01,5.17,1.17.74,2.15-.87,3.15-1.78,4.79-1.53,2.76-1.56,5.44-.37,8.35.95,2.3,4.05,4.85,1.38,7.23-4.67,4.18-8.22-7.15-8.44-10.28Z"/></g><g class="st1"><path class="st3" d="M1329.4,2292.19h-78.77c22.25-29.29,16.56-73.69,16.56-109.07,0-3.76-1.47-7.25-1.89-10.93l3.64-68.67-31.13,9.15v-27.48c10.07,5.66,20.95,10.44,32.95,9.14,1.91-21.56,11.07-54.31,32.31-63.86,21.45-9.65,51.31.85,73.96,3.45l-16.51,36.62c-10.27-10.73-23.5-31.01-39.85-32.69-7.56-.77-13.26,12.91-13.26,18.95v37.55c16.42,1.17,30.02.03,43.97-9.16v27.48c-11.92-8.79-28.03-10.69-42.26-10.21-4.43,3.15,1.32,57.08,2.03,66,1.89,41.04-8.02,88.86,18.24,123.73Z"/><path class="st3" d="M1475.95,2085.18v27.48c-11.92-8.79-28.04-10.69-42.26-10.21-4.43,3.15,1.32,57.08,2.03,66,1.89,41.04-8.01,88.86,18.24,123.73h-78.77c27.71-39.02,13.42-95.07,14.58-140.21l3.73-48.46-31.13,9.15v-27.48c10.07,5.67,20.95,10.44,32.95,9.14,2.09-25.21,14.08-63.56,43.23-67.6,19.08-2.64,43.84,4.92,63.04,7.18l-16.51,36.62c-10.27-10.73-23.5-31.01-39.85-32.69-7.56-.77-13.26,12.91-13.26,18.95v37.55c16.42,1.17,30.02.03,43.97-9.16Z"/><path class="st3" d="M1132.97,2111.33c-109.28,13.26-96.66,195.78,17.82,188.16,118.11-7.9,105.33-203.08-17.82-188.16ZM1138.89,2155.71c0-3.18,11-4.47,12.82,0-2.3,19.99,3.1,46.84,0,65.95-.12.85-2.02,4.39-3.1,4.64l-9.71-2.82v-67.76ZM1193.67,2216.05c-8.06,61.75-106.3,52.08-96.74-16.2.89-6.65,9.23-24.63,15.8-26.44,4.72-1.33,8.87,1.33,9.71,6.17-12.66,15.4-18.46,33.74-5.52,51.27,23.34,31.52,76.63,4.39,60.79-35.23-2.1-5.24-16.85-20.72-4.88-22.57,15.4-2.42,22.41,31.04,20.84,43.01Z"/><path class="st3" d="M375,2294.02h-43.96c3.13-7.79.78-14.2-.91-21.99-11.78-54.2-42.51-134.75-63.66-187.3-3.12-7.74-7.87-21.95-11.9-28.34-1.18-1.87.11-3.21-4.11-2.34-10.25,79.5-7.75,163.42,9.14,241.81h-62.28l3.75-66.78c-.53-66.35,1.66-132.74-3.75-198.85h61.37c25.98,65.8,44.77,135.31,75.71,199.08,1.89,3.9,3.57,9.5,7.62,11.58l78.79-210.66h62.28c-2.1,6.78-4.91,13.07-6.48,20.09-3.56,15.99-5.65,37.58-6.42,54.03-2.94,63,2.13,129.94,14.73,191.51h-62.28l3.74-57.63c.87-59.65,2.2-119.01-1.93-178.68-4.77,4.29-6.86,13.13-9.18,19.2-21.26,55.81-40.72,112.44-59.97,169-2.26,14.27,3.18,29.12,12.36,39.88,2.65,3.1,6.34,3.4,7.34,6.4Z"/><path class="st3" d="M882.42,2112.66v-27.48c9.74,5.1,19.56,10.83,31.13,9.15-3.02-20.89-.43-43.05-12.37-61.8-2.28-3.59-5.3-3-5.94-5.97h78.77c-12.99,16.1-17.07,37.44-18.32,57.74-.22,3.63-1.32,11.78,4.13,11.52,13.4-.65,23.99-3.67,36.17-8.8v25.65c-4.32-2.21-8.54-4.52-13.23-6.01-4.78-1.52-25.26-7.93-26.93-2,2.25,11.28,2.11,23.12,1.77,34.65-.85,28.83-5.38,114.81,6.88,137.66,9.85,18.35,30.89-12.48,39.77-19.57l24.69-32.99,3.79,51.91c-39.18,15.31-78.21,31.33-100.64-16.42-21.1-44.91-17.51-107.76-18.54-156.41-2.6-2.55-26.91,6.69-31.14,9.17Z"/><path class="st3" d="M801.38,2291.83c-27.17-3.99-40.27-57.44-41.68-80.26,18.14,19.99,53.09,17.01,76.87,10.08,64.49-18.78,65.06-92.59-1.73-106.29-126.45-26-168.73,134.91-69.61,175.87,40.31,16.65,76.79,5.56,113.35-13.91l-12.66-45.59c-9.03,18.18-42.61,63.37-64.53,60.1ZM759.91,2187.03c1.61-18.99,19.03-58.73,39.62-62.96,33.25-6.81,44.5,39.14,22.49,62.84-14.11,15.16-65.14,35.87-62.12.12Z"/><path class="st3" d="M584.12,2281.8c-13.34-13.79-23.06-44.86-24.15-63.77-.12-1.98-1.21-6.93,1.85-6.41,2.66,10.16,20.64,13.83,30.19,14.67,37.12,3.27,92.71-13.75,92.03-59.09-.85-57.04-79.57-63.53-119.8-45.75-63,27.97-72.96,116.49-18.7,158.66,40.55,31.64,91.66,19.27,133.5-2.7l-11.85-45.67c-16.97,21.08-51.07,83.04-83.08,50.06ZM564.13,2167.12c4.23-13.06,19.43-39.79,33.82-43.05,26.93-6.17,40.15,23.5,33.62,46.36-4.64,16.33-28.74,33.34-45.15,35.51-33.3,4.43-30.19-14.11-22.29-38.82Z"/></g></g></svg>