<?xml version="1.0" encoding="utf-8"?>
<svg xmlns="http://www.w3.org/2000/svg" viewBox="5.933 152.4393 273.1455 64.7883" width="273.146px" height="64.7883px" preserveAspectRatio="none"><defs><style>
      .st0 {
        letter-spacing: 0em;
      }

      .st0, .st1, .st2 {
        font-family: RedHatDisplay-Black, 'Red Hat Display';
        font-weight: 800;
      }

      .st3 {
        fill: #006158;
        font-size: 18.25px;
      }

      .st4, .st5 {
        font-family: RedHatDisplay-Regular, 'Red Hat Display';
      }

      .st6 {
        fill: #03463f;
      }

      .st5 {
        letter-spacing: 0em;
      }

      .st7 {
        fill: #fff;
      }

      .st8 {
        font-size: 6.31px;
      }

      .st8, .st9, .st2 {
        fill: #c1385e;
      }

      .st10 {
        fill: #b5395a;
      }

      .st2 {
        font-size: 23.37px;
      }
    </style></defs><g id="object-0" style="" transform="matrix(1.789690017700195, 0, 0, 1.789690017700195, -108.31778115507629, 12.827057075903667)"><path class="st9" d="M89.81,78.6c-2.24.72-3.78,2.1-5.49,3.65-7.69-8.75-21.6-3.05-20.41,8.8.5,5.01,5.06,8.17,8.22,11.55.06-.93-.13-1.85-.09-2.8.25-4.37,3.2-8.65,7.17-10.45,9.11-4.1,18.84,3.53,17.34,13.25,2.56-2.7,6.08-5.2,7.51-8.74,3.71-9.18-4.84-18.26-14.25-15.25ZM98.99,94.58c.25-.69.72-1.29.96-1.97,1.81-4.97-1.07-9.26-5.92-10.5-.24-.06-.42.14-.34-.29,6.81-.53,10.72,8.4,5.3,12.75Z"/><path class="st6" d="M202.98,103.31h-6.16c1.74-2.29,1.29-5.76,1.3-8.53,0-.29-.12-.57-.15-.86l.28-5.37-2.43.72v-2.15c.79.44,1.64.82,2.58.71.15-1.69.87-4.25,2.53-4.99,1.68-.75,4.01.07,5.78.27l-1.29,2.86c-.8-.84-1.84-2.43-3.12-2.56-.59-.06-1.04,1.01-1.04,1.48v2.94c1.28.09,2.35,0,3.44-.72v2.15c-.93-.69-2.19-.84-3.3-.8-.35.25.1,4.46.16,5.16.15,3.21-.63,6.95,1.43,9.68Z"/><path class="st6" d="M214.44,87.12v2.15c-.93-.69-2.19-.84-3.3-.8-.35.25.1,4.46.16,5.16.15,3.21-.63,6.95,1.43,9.68h-6.16c2.17-3.05,1.05-7.43,1.14-10.96l.29-3.79-2.43.72v-2.15c.79.44,1.64.82,2.58.71.16-1.97,1.1-4.97,3.38-5.29,1.49-.21,3.43.38,4.93.56l-1.29,2.86c-.8-.84-1.84-2.43-3.12-2.56-.59-.06-1.04,1.01-1.04,1.48v2.94c1.28.09,2.35,0,3.44-.72Z"/><path class="st6" d="M187.61,89.17c-8.55,1.03-7.56,15.3,1.39,14.71,9.24-.62,8.23-15.87-1.39-14.71ZM188.08,92.64c0-.25.86-.35.99,0-.17,1.57.25,3.67,0,5.16,0,.07-.15.34-.24.36l-.75-.22v-5.3ZM192.36,97.36c-.63,4.83-8.31,4.08-7.56-1.27.07-.52.73-1.92,1.24-2.06.36-.11.69.1.75.48-.99,1.2-1.44,2.65-.43,4.01,1.82,2.46,5.99.34,4.76-2.75-.17-.41-1.32-1.62-.39-1.77,1.21-.19,1.76,2.43,1.63,3.36Z"/><path class="st9" d="M128.35,103.45h-3.44c.24-.61.06-1.11-.07-1.72-.92-4.24-3.32-10.54-4.98-14.65-.24-.61-.62-1.72-.93-2.22-.09-.15,0-.25-.32-.18-.8,6.22-.61,12.78.71,18.91h-4.87l.29-5.22c-.04-5.19.13-10.38-.29-15.55h4.8c2.03,5.15,3.5,10.58,5.92,15.57.15.3.28.74.6.91l6.16-16.47h4.87c-.16.53-.38,1.02-.51,1.57-.28,1.25-.44,2.94-.5,4.22-.23,4.93.17,10.16,1.15,14.98h-4.87l.29-4.51c.07-4.66.17-9.31-.15-13.97-.37.34-.54,1.03-.72,1.5-1.66,4.36-3.18,8.79-4.69,13.22-.18,1.12.25,2.28.97,3.12.21.24.5.27.57.5Z"/><path class="st9" d="M168.02,89.27v-2.15c.76.4,1.53.85,2.43.72-.24-1.63-.03-3.37-.97-4.83-.18-.28-.41-.23-.46-.47h6.16c-1.02,1.26-1.34,2.93-1.43,4.51-.02.28-.1.92.32.9,1.05-.05,1.88-.29,2.83-.69v2.01c-.34-.17-.67-.35-1.03-.47-.37-.12-1.98-.62-2.11-.16.18.88.17,1.81.14,2.71-.07,2.25-.42,8.98.54,10.76.77,1.43,2.42-.98,3.11-1.53l1.93-2.58.3,4.06c-3.06,1.2-6.12,2.45-7.87-1.28-1.65-3.51-1.37-8.43-1.45-12.23-.2-.2-2.1.52-2.44.72Z"/><path class="st9" d="M161.69,103.28c-2.13-.31-3.15-4.49-3.27-6.28,1.42,1.57,4.15,1.34,6.02.79,5.04-1.47,5.08-7.24-.14-8.31-9.89-2.03-13.19,10.54-5.44,13.74,3.16,1.31,6.01.44,8.86-1.08l-.98-3.57c-.71,1.42-3.33,4.96-5.04,4.7ZM161.54,90.17c2.61-.53,3.49,3.06,1.77,4.92-1.11,1.18-5.1,2.8-4.86,0,.12-1.49,1.49-4.59,3.09-4.93Z"/><path class="st9" d="M144.7,102.5c-1.04-1.07-1.81-3.51-1.89-4.99,0-.15-.1-.54.14-.5.21.79,1.61,1.08,2.37,1.15,2.9.26,7.24-1.08,7.19-4.62-.07-4.46-6.23-4.97-9.37-3.57-4.92,2.19-5.7,9.1-1.46,12.4,3.17,2.47,7.16,1.51,10.44-.21l-.93-3.57c-1.33,1.65-3.99,6.5-6.5,3.92ZM143.13,93.53c.33-1.01,1.52-3.1,2.65-3.36,2.11-.48,3.14,1.83,2.63,3.63-.36,1.27-2.24,2.61-3.52,2.77-2.61.34-2.37-1.1-1.75-3.04Z"/><path class="st6" d="M83.48,90.62c-4.43.38-8.15,3.84-8.82,8.23-.13.88-.18,1.67-.15,2.39.02.15.04.31.07.46.43,2.6,1.2,3.94,2.66,5.43l7.18,7.08c3.17-3.73,8.8-7.01,9.66-12.13,0-.09.03-.17.04-.26.9-6.25-4.3-11.74-10.63-11.19ZM84.37,102.29c-1.58,0-2.86-1.28-2.86-2.86s1.28-2.86,2.86-2.86,2.86,1.28,2.86,2.86-1.28,2.86-2.86,2.86Z"/></g></svg>