<?xml version="1.0" encoding="utf-8"?>
<svg xmlns="http://www.w3.org/2000/svg" viewBox="197.32 2026.1676 1304.2698 273.5543" width="1304.27px" height="273.554px" preserveAspectRatio="none"><defs><style>
      .st0 {
        fill: #efe32d;
      }

      .st1 {
        opacity: .11;
      }

      .st2 {
        opacity: .09;
      }

      .st3 {
        fill: #fff;
      }

      .st4 {
        fill: url(#Gold3);
      }

      .st5 {
        fill: none;
      }

      .st6 {
        fill: #ddd;
      }

      .st7 {
        fill: #8f521e;
      }

      .st8 {
        fill: #282828;
      }

      .st9 {
        fill: #e0cb26;
      }

      .st10 {
        fill: #a2631c;
      }

      .st11 {
        fill: #90371d;
      }

      .st12 {
        fill: url(#Gold);
      }

      .st13 {
        fill: #c2395b;
      }

      .st14 {
        fill: #eae43a;
      }

      .st15 {
        fill: #c79a1c;
      }

      .st16 {
        fill: #f3f2f2;
      }

      .st17 {
        fill: url(#Gold1);
      }

      .st18 {
        fill: url(#Gold2);
      }

      .st19 {
        fill: #22655b;
      }

      .st20 {
        fill: #d0b322;
      }
    </style></defs><g class="st1" id="object-0"><path class="st3" d="M1329.4,2292.19h-78.77c22.25-29.29,16.56-73.69,16.56-109.07,0-3.76-1.47-7.25-1.89-10.93l3.64-68.67-31.13,9.15v-27.48c10.07,5.66,20.95,10.44,32.95,9.14,1.91-21.56,11.07-54.31,32.31-63.86,21.45-9.65,51.31.85,73.96,3.45l-16.51,36.62c-10.27-10.73-23.5-31.01-39.85-32.69-7.56-.77-13.26,12.91-13.26,18.95v37.55c16.42,1.17,30.02.03,43.97-9.16v27.48c-11.92-8.79-28.03-10.69-42.26-10.21-4.43,3.15,1.32,57.08,2.03,66,1.89,41.04-8.02,88.86,18.24,123.73Z"/><path class="st3" d="M1475.95,2085.18v27.48c-11.92-8.79-28.04-10.69-42.26-10.21-4.43,3.15,1.32,57.08,2.03,66,1.89,41.04-8.01,88.86,18.24,123.73h-78.77c27.71-39.02,13.42-95.07,14.58-140.21l3.73-48.46-31.13,9.15v-27.48c10.07,5.67,20.95,10.44,32.95,9.14,2.09-25.21,14.08-63.56,43.23-67.6,19.08-2.64,43.84,4.92,63.04,7.18l-16.51,36.62c-10.27-10.73-23.5-31.01-39.85-32.69-7.56-.77-13.26,12.91-13.26,18.95v37.55c16.42,1.17,30.02.03,43.97-9.16Z"/><path class="st3" d="M1132.97,2111.33c-109.28,13.26-96.66,195.78,17.82,188.16,118.11-7.9,105.33-203.08-17.82-188.16ZM1138.89,2155.71c0-3.18,11-4.47,12.82,0-2.3,19.99,3.1,46.84,0,65.95-.12.85-2.02,4.39-3.1,4.64l-9.71-2.82v-67.76ZM1193.67,2216.05c-8.06,61.75-106.3,52.08-96.74-16.2.89-6.65,9.23-24.63,15.8-26.44,4.72-1.33,8.87,1.33,9.71,6.17-12.66,15.4-18.46,33.74-5.52,51.27,23.34,31.52,76.63,4.39,60.79-35.23-2.1-5.24-16.85-20.72-4.88-22.57,15.4-2.42,22.41,31.04,20.84,43.01Z"/><path class="st3" d="M375,2294.02h-43.96c3.13-7.79.78-14.2-.91-21.99-11.78-54.2-42.51-134.75-63.66-187.3-3.12-7.74-7.87-21.95-11.9-28.34-1.18-1.87.11-3.21-4.11-2.34-10.25,79.5-7.75,163.42,9.14,241.81h-62.28l3.75-66.78c-.53-66.35,1.66-132.74-3.75-198.85h61.37c25.98,65.8,44.77,135.31,75.71,199.08,1.89,3.9,3.57,9.5,7.62,11.58l78.79-210.66h62.28c-2.1,6.78-4.91,13.07-6.48,20.09-3.56,15.99-5.65,37.58-6.42,54.03-2.94,63,2.13,129.94,14.73,191.51h-62.28l3.74-57.63c.87-59.65,2.2-119.01-1.93-178.68-4.77,4.29-6.86,13.13-9.18,19.2-21.26,55.81-40.72,112.44-59.97,169-2.26,14.27,3.18,29.12,12.36,39.88,2.65,3.1,6.34,3.4,7.34,6.4Z"/><path class="st3" d="M882.42,2112.66v-27.48c9.74,5.1,19.56,10.83,31.13,9.15-3.02-20.89-.43-43.05-12.37-61.8-2.28-3.59-5.3-3-5.94-5.97h78.77c-12.99,16.1-17.07,37.44-18.32,57.74-.22,3.63-1.32,11.78,4.13,11.52,13.4-.65,23.99-3.67,36.17-8.8v25.65c-4.32-2.21-8.54-4.52-13.23-6.01-4.78-1.52-25.26-7.93-26.93-2,2.25,11.28,2.11,23.12,1.77,34.65-.85,28.83-5.38,114.81,6.88,137.66,9.85,18.35,30.89-12.48,39.77-19.57l24.69-32.99,3.79,51.91c-39.18,15.31-78.21,31.33-100.64-16.42-21.1-44.91-17.51-107.76-18.54-156.41-2.6-2.55-26.91,6.69-31.14,9.17Z"/><path class="st3" d="M801.38,2291.83c-27.17-3.99-40.27-57.44-41.68-80.26,18.14,19.99,53.09,17.01,76.87,10.08,64.49-18.78,65.06-92.59-1.73-106.29-126.45-26-168.73,134.91-69.61,175.87,40.31,16.65,76.79,5.56,113.35-13.91l-12.66-45.59c-9.03,18.18-42.61,63.37-64.53,60.1ZM759.91,2187.03c1.61-18.99,19.03-58.73,39.62-62.96,33.25-6.81,44.5,39.14,22.49,62.84-14.11,15.16-65.14,35.87-62.12.12Z"/><path class="st3" d="M584.12,2281.8c-13.34-13.79-23.06-44.86-24.15-63.77-.12-1.98-1.21-6.93,1.85-6.41,2.66,10.16,20.64,13.83,30.19,14.67,37.12,3.27,92.71-13.75,92.03-59.09-.85-57.04-79.57-63.53-119.8-45.75-63,27.97-72.96,116.49-18.7,158.66,40.55,31.64,91.66,19.27,133.5-2.7l-11.85-45.67c-16.97,21.08-51.07,83.04-83.08,50.06ZM564.13,2167.12c4.23-13.06,19.43-39.79,33.82-43.05,26.93-6.17,40.15,23.5,33.62,46.36-4.64,16.33-28.74,33.34-45.15,35.51-33.3,4.43-30.19-14.11-22.29-38.82Z"/></g></svg>